<svg xmlns="http://www.w3.org/2000/svg" xmlns:xlink="http://www.w3.org/1999/xlink" width="540" zoomAndPan="magnify" viewBox="0 0 404.88 404.99999" height="540" preserveAspectRatio="xMidYMid meet" version="1.0"><defs><filter x="0%" y="0%" width="100%" height="100%" id="21a2c3d3aa"><feColorMatrix values="0 0 0 0 1 0 0 0 0 1 0 0 0 0 1 0 0 0 1 0" color-interpolation-filters="sRGB"/></filter><clipPath id="6f181997cd"><path d="M 251.386719 206.128906 L 378 206.128906 L 378 388.578125 L 251.386719 388.578125 Z M 251.386719 206.128906 " clip-rule="nonzero"/></clipPath><clipPath id="c93f247a97"><path d="M 251.386719 277 L 366 277 L 366 388.578125 L 251.386719 388.578125 Z M 251.386719 277 " clip-rule="nonzero"/></clipPath><clipPath id="881c8eef1f"><path d="M 269 206.128906 L 397.257812 206.128906 L 397.257812 388.578125 L 269 388.578125 Z M 269 206.128906 " clip-rule="nonzero"/></clipPath><clipPath id="588812bd16"><path d="M 285 277 L 397.257812 277 L 397.257812 388.578125 L 285 388.578125 Z M 285 277 " clip-rule="nonzero"/></clipPath><mask id="879ddae03c"><g filter="url(#21a2c3d3aa)"><rect x="-40.488" width="485.856" fill="#000000" y="-40.499999" height="485.999988" fill-opacity="0.9961"/></g></mask><clipPath id="ed4d4b8d8f"><path d="M 0.675781 0.835938 L 230.765625 0.835938 L 230.765625 259.242188 L 0.675781 259.242188 Z M 0.675781 0.835938 " clip-rule="nonzero"/></clipPath><mask id="fc6cf6471a"><g filter="url(#21a2c3d3aa)"><rect x="-108.0736" width="583.0272" fill="#000000" y="-165.099998" height="583.199986" fill-opacity="0.9961"/></g></mask><clipPath id="00deb4741d"><rect x="0" width="231" y="0" height="260"/></clipPath><clipPath id="7cd4f8b310"><rect x="0" width="231" y="0" height="260"/></clipPath></defs><g clip-path="url(#6f181997cd)"><path stroke-linecap="butt" transform="matrix(4.258738, 0, 0, 4.258738, 120.328961, -25.073509)" fill="none" stroke-linejoin="miter" d="M 35.849813 58.37981 L 45.048731 58.37981 C 45.124862 58.37981 45.200075 58.387147 45.274371 58.401823 C 45.348666 58.417416 45.421128 58.438512 45.490837 58.467864 C 45.561464 58.497215 45.627505 58.53207 45.690794 58.574263 C 45.754083 58.616455 45.811868 58.665069 45.865985 58.718268 C 45.919185 58.771468 45.966881 58.83017 46.009073 58.893459 C 46.051266 58.956748 46.087038 59.022789 46.116389 59.093416 C 46.144824 59.163126 46.166837 59.235587 46.181513 59.309883 C 46.196189 59.384178 46.204444 59.459392 46.204444 59.534605 L 46.204444 94.254584 C 46.204444 94.330714 46.196189 94.405927 46.181513 94.480223 C 46.166837 94.554519 46.144824 94.62698 46.116389 94.69669 C 46.087038 94.767316 46.051266 94.833357 46.009073 94.896646 C 45.966881 94.959935 45.919185 95.017721 45.865985 95.071837 C 45.811868 95.125037 45.754083 95.17365 45.690794 95.214926 C 45.627505 95.257118 45.561464 95.29289 45.490837 95.322242 C 45.421128 95.350676 45.348666 95.372689 45.274371 95.387365 C 45.200075 95.402958 45.124862 95.410296 45.048731 95.410296 L 35.849813 95.410296 C 35.7746 95.410296 35.699387 95.402958 35.625091 95.387365 C 35.549878 95.372689 35.478334 95.350676 35.407707 95.322242 C 35.337997 95.29289 35.271039 95.257118 35.208668 95.214926 C 35.145379 95.17365 35.086676 95.125037 35.033476 95.071837 C 34.97936 95.017721 34.931664 94.959935 34.889471 94.896646 C 34.847278 94.833357 34.811506 94.767316 34.783072 94.69669 C 34.753721 94.62698 34.731707 94.554519 34.717031 94.480223 C 34.702356 94.405927 34.695018 94.330714 34.695018 94.254584 L 34.695018 59.534605 C 34.695018 59.459392 34.702356 59.384178 34.717031 59.309883 C 34.731707 59.235587 34.753721 59.163126 34.783072 59.093416 C 34.811506 59.022789 34.847278 58.956748 34.889471 58.893459 C 34.931664 58.83017 34.97936 58.771468 35.033476 58.718268 C 35.086676 58.665069 35.145379 58.616455 35.208668 58.574263 C 35.271039 58.53207 35.337997 58.497215 35.407707 58.467864 C 35.478334 58.438512 35.549878 58.417416 35.625091 58.401823 C 35.699387 58.387147 35.7746 58.37981 35.849813 58.37981 Z M 35.849813 58.37981 " stroke="#ff6600" stroke-width="2.5" stroke-opacity="1" stroke-miterlimit="4"/></g><path fill="#ffffff" d="M 305.023438 348.574219 C 305.023438 349.273438 304.953125 349.96875 304.816406 350.652344 C 304.679688 351.339844 304.480469 352.007812 304.210938 352.652344 C 303.941406 353.300781 303.613281 353.914062 303.226562 354.496094 C 302.835938 355.078125 302.394531 355.613281 301.902344 356.109375 C 301.40625 356.605469 300.867188 357.046875 300.285156 357.433594 C 299.703125 357.824219 299.089844 358.152344 298.445312 358.417969 C 297.796875 358.6875 297.132812 358.890625 296.445312 359.027344 C 295.757812 359.164062 295.066406 359.230469 294.367188 359.230469 C 293.667969 359.230469 292.972656 359.164062 292.289062 359.027344 C 291.601562 358.890625 290.933594 358.6875 290.289062 358.417969 C 289.640625 358.152344 289.027344 357.824219 288.445312 357.433594 C 287.863281 357.046875 287.328125 356.605469 286.832031 356.109375 C 286.335938 355.613281 285.894531 355.078125 285.507812 354.496094 C 285.117188 353.914062 284.789062 353.300781 284.523438 352.652344 C 284.253906 352.007812 284.050781 351.339844 283.914062 350.652344 C 283.78125 349.96875 283.710938 349.273438 283.710938 348.574219 C 283.710938 347.875 283.78125 347.183594 283.914062 346.496094 C 284.050781 345.808594 284.253906 345.144531 284.523438 344.496094 C 284.789062 343.851562 285.117188 343.238281 285.507812 342.65625 C 285.894531 342.074219 286.335938 341.535156 286.832031 341.039062 C 287.328125 340.546875 287.863281 340.105469 288.445312 339.714844 C 289.027344 339.328125 289.640625 339 290.289062 338.730469 C 290.933594 338.464844 291.601562 338.261719 292.289062 338.125 C 292.972656 337.988281 293.667969 337.921875 294.367188 337.921875 C 295.066406 337.921875 295.757812 337.988281 296.445312 338.125 C 297.132812 338.261719 297.796875 338.464844 298.445312 338.730469 C 299.089844 339 299.703125 339.328125 300.285156 339.714844 C 300.867188 340.105469 301.40625 340.546875 301.902344 341.039062 C 302.394531 341.535156 302.835938 342.074219 303.226562 342.65625 C 303.613281 343.238281 303.941406 343.851562 304.210938 344.496094 C 304.480469 345.144531 304.679688 345.808594 304.816406 346.496094 C 304.953125 347.183594 305.023438 347.875 305.023438 348.574219 Z M 305.023438 348.574219 " fill-opacity="1" fill-rule="nonzero"/><g clip-path="url(#c93f247a97)"><path stroke-linecap="butt" transform="matrix(4.258738, 0, 0, 4.258738, 120.328961, -25.073509)" fill="none" stroke-linejoin="miter" d="M 43.368363 87.736734 C 43.368363 87.900918 43.351852 88.064186 43.319749 88.224701 C 43.287646 88.386134 43.240867 88.542981 43.177578 88.694324 C 43.114289 88.846584 43.037242 88.99059 42.946436 89.127257 C 42.854713 89.263925 42.751066 89.389586 42.635494 89.506074 C 42.519006 89.622563 42.392428 89.72621 42.25576 89.817016 C 42.119093 89.908739 41.975087 89.985787 41.823744 90.048158 C 41.671484 90.111447 41.515554 90.159143 41.354121 90.191246 C 41.192689 90.22335 41.030338 90.238943 40.866154 90.238943 C 40.701969 90.238943 40.538702 90.22335 40.378187 90.191246 C 40.216754 90.159143 40.059907 90.111447 39.908564 90.048158 C 39.756303 89.985787 39.612298 89.908739 39.47563 89.817016 C 39.338963 89.72621 39.213302 89.622563 39.096814 89.506074 C 38.980325 89.389586 38.876678 89.263925 38.785872 89.127257 C 38.694149 88.99059 38.617101 88.846584 38.55473 88.694324 C 38.491441 88.542981 38.443745 88.386134 38.411641 88.224701 C 38.380456 88.064186 38.363945 87.900918 38.363945 87.736734 C 38.363945 87.572549 38.380456 87.410199 38.411641 87.248767 C 38.443745 87.087334 38.491441 86.931404 38.55473 86.779144 C 38.617101 86.627801 38.694149 86.483795 38.785872 86.347128 C 38.876678 86.21046 38.980325 86.083882 39.096814 85.967394 C 39.213302 85.851822 39.338963 85.748175 39.47563 85.656452 C 39.612298 85.565646 39.756303 85.488598 39.908564 85.425309 C 40.059907 85.362938 40.216754 85.315242 40.378187 85.283139 C 40.538702 85.251035 40.701969 85.235442 40.866154 85.235442 C 41.030338 85.235442 41.192689 85.251035 41.354121 85.283139 C 41.515554 85.315242 41.671484 85.362938 41.823744 85.425309 C 41.975087 85.488598 42.119093 85.565646 42.25576 85.656452 C 42.392428 85.748175 42.519006 85.851822 42.635494 85.967394 C 42.751066 86.083882 42.854713 86.21046 42.946436 86.347128 C 43.037242 86.483795 43.114289 86.627801 43.177578 86.779144 C 43.240867 86.931404 43.287646 87.087334 43.319749 87.248767 C 43.351852 87.410199 43.368363 87.572549 43.368363 87.736734 Z M 43.368363 87.736734 " stroke="#ff6600" stroke-width="2.5" stroke-opacity="1" stroke-miterlimit="4"/></g><g clip-path="url(#881c8eef1f)"><path stroke-linecap="butt" transform="matrix(4.258738, 0, 0, 4.258738, 182.004023, -25.073509)" fill="none" stroke-linejoin="miter" d="M 35.849982 58.37981 L 45.0489 58.37981 C 45.125031 58.37981 45.200244 58.387147 45.274539 58.401823 C 45.348835 58.417416 45.421297 58.438512 45.491006 58.467864 C 45.560716 58.497215 45.627674 58.53207 45.690963 58.574263 C 45.753334 58.616455 45.812037 58.665069 45.866154 58.718268 C 45.919353 58.771468 45.96705 58.83017 46.009242 58.893459 C 46.051435 58.956748 46.087207 59.022789 46.115641 59.093416 C 46.144992 59.163126 46.167006 59.235587 46.181682 59.309883 C 46.196357 59.384178 46.203695 59.459392 46.203695 59.534605 L 46.203695 94.254584 C 46.203695 94.330714 46.196357 94.405927 46.181682 94.480223 C 46.167006 94.554519 46.144992 94.62698 46.115641 94.69669 C 46.087207 94.767316 46.051435 94.833357 46.009242 94.896646 C 45.96705 94.959935 45.919353 95.017721 45.866154 95.071837 C 45.812037 95.125037 45.753334 95.17365 45.690963 95.214926 C 45.627674 95.257118 45.560716 95.29289 45.491006 95.322242 C 45.421297 95.350676 45.348835 95.372689 45.274539 95.387365 C 45.200244 95.402958 45.125031 95.410296 45.0489 95.410296 L 35.849982 95.410296 C 35.773851 95.410296 35.698638 95.402958 35.624343 95.387365 C 35.550047 95.372689 35.478503 95.350676 35.407876 95.322242 C 35.338166 95.29289 35.271208 95.257118 35.207919 95.214926 C 35.145547 95.17365 35.086845 95.125037 35.033645 95.071837 C 34.979529 95.017721 34.931832 94.959935 34.88964 94.896646 C 34.847447 94.833357 34.811675 94.767316 34.783241 94.69669 C 34.753889 94.62698 34.731876 94.554519 34.7172 94.480223 C 34.702524 94.405927 34.695187 94.330714 34.695187 94.254584 L 34.695187 59.534605 C 34.695187 59.459392 34.702524 59.384178 34.7172 59.309883 C 34.731876 59.235587 34.753889 59.163126 34.783241 59.093416 C 34.811675 59.022789 34.847447 58.956748 34.88964 58.893459 C 34.931832 58.83017 34.979529 58.771468 35.033645 58.718268 C 35.086845 58.665069 35.145547 58.616455 35.207919 58.574263 C 35.271208 58.53207 35.338166 58.497215 35.407876 58.467864 C 35.478503 58.438512 35.550047 58.417416 35.624343 58.401823 C 35.698638 58.387147 35.773851 58.37981 35.849982 58.37981 Z M 35.849982 58.37981 " stroke="#ff6600" stroke-width="2.5" stroke-opacity="1" stroke-miterlimit="4"/></g><path fill="#ffffff" d="M 366.695312 348.574219 C 366.695312 349.273438 366.628906 349.96875 366.492188 350.652344 C 366.355469 351.339844 366.152344 352.007812 365.886719 352.652344 C 365.617188 353.300781 365.289062 353.914062 364.902344 354.496094 C 364.511719 355.078125 364.070312 355.613281 363.574219 356.109375 C 363.082031 356.605469 362.542969 357.046875 361.960938 357.433594 C 361.378906 357.824219 360.765625 358.152344 360.121094 358.417969 C 359.472656 358.6875 358.804688 358.890625 358.121094 359.027344 C 357.433594 359.164062 356.742188 359.230469 356.042969 359.230469 C 355.34375 359.230469 354.648438 359.164062 353.960938 359.027344 C 353.277344 358.890625 352.609375 358.6875 351.964844 358.417969 C 351.316406 358.152344 350.703125 357.824219 350.121094 357.433594 C 349.539062 357.046875 349 356.605469 348.507812 356.109375 C 348.011719 355.613281 347.570312 355.078125 347.183594 354.496094 C 346.792969 353.914062 346.464844 353.300781 346.199219 352.652344 C 345.929688 352.007812 345.726562 351.339844 345.589844 350.652344 C 345.453125 349.96875 345.386719 349.273438 345.386719 348.574219 C 345.386719 347.875 345.453125 347.183594 345.589844 346.496094 C 345.726562 345.808594 345.929688 345.144531 346.199219 344.496094 C 346.464844 343.851562 346.792969 343.238281 347.183594 342.65625 C 347.570312 342.074219 348.011719 341.535156 348.507812 341.039062 C 349 340.546875 349.539062 340.105469 350.121094 339.714844 C 350.703125 339.328125 351.316406 339 351.964844 338.730469 C 352.609375 338.464844 353.277344 338.261719 353.960938 338.125 C 354.648438 337.988281 355.34375 337.921875 356.042969 337.921875 C 356.742188 337.921875 357.433594 337.988281 358.121094 338.125 C 358.804688 338.261719 359.472656 338.464844 360.121094 338.730469 C 360.765625 339 361.378906 339.328125 361.960938 339.714844 C 362.542969 340.105469 363.082031 340.546875 363.574219 341.039062 C 364.070312 341.535156 364.511719 342.074219 364.902344 342.65625 C 365.289062 343.238281 365.617188 343.851562 365.886719 344.496094 C 366.152344 345.144531 366.355469 345.808594 366.492188 346.496094 C 366.628906 347.183594 366.695312 347.875 366.695312 348.574219 Z M 366.695312 348.574219 " fill-opacity="1" fill-rule="nonzero"/><g clip-path="url(#588812bd16)"><path stroke-linecap="butt" transform="matrix(4.258738, 0, 0, 4.258738, 182.004023, -25.073509)" fill="none" stroke-linejoin="miter" d="M 43.367614 87.736734 C 43.367614 87.900918 43.352021 88.064186 43.319918 88.224701 C 43.287815 88.386134 43.240119 88.542981 43.177747 88.694324 C 43.114458 88.846584 43.037411 88.99059 42.946605 89.127257 C 42.854882 89.263925 42.751234 89.389586 42.634746 89.506074 C 42.519175 89.622563 42.392597 89.72621 42.255929 89.817016 C 42.119262 89.908739 41.975256 89.985787 41.823913 90.048158 C 41.671652 90.111447 41.514806 90.159143 41.35429 90.191246 C 41.192857 90.22335 41.030507 90.238943 40.866323 90.238943 C 40.702138 90.238943 40.538871 90.22335 40.377438 90.191246 C 40.216923 90.159143 40.060076 90.111447 39.908733 90.048158 C 39.756472 89.985787 39.612467 89.908739 39.475799 89.817016 C 39.339132 89.72621 39.212554 89.622563 39.096983 89.506074 C 38.980494 89.389586 38.876847 89.263925 38.786041 89.127257 C 38.694318 88.99059 38.61727 88.846584 38.554898 88.694324 C 38.491609 88.542981 38.443913 88.386134 38.41181 88.224701 C 38.379707 88.064186 38.364114 87.900918 38.364114 87.736734 C 38.364114 87.572549 38.379707 87.410199 38.41181 87.248767 C 38.443913 87.087334 38.491609 86.931404 38.554898 86.779144 C 38.61727 86.627801 38.694318 86.483795 38.786041 86.347128 C 38.876847 86.21046 38.980494 86.083882 39.096983 85.967394 C 39.212554 85.851822 39.339132 85.748175 39.475799 85.656452 C 39.612467 85.565646 39.756472 85.488598 39.908733 85.425309 C 40.060076 85.362938 40.216923 85.315242 40.377438 85.283139 C 40.538871 85.251035 40.702138 85.235442 40.866323 85.235442 C 41.030507 85.235442 41.192857 85.251035 41.35429 85.283139 C 41.514806 85.315242 41.671652 85.362938 41.823913 85.425309 C 41.975256 85.488598 42.119262 85.565646 42.255929 85.656452 C 42.392597 85.748175 42.519175 85.851822 42.634746 85.967394 C 42.751234 86.083882 42.854882 86.21046 42.946605 86.347128 C 43.037411 86.483795 43.114458 86.627801 43.177747 86.779144 C 43.240119 86.931404 43.287815 87.087334 43.319918 87.248767 C 43.352021 87.410199 43.367614 87.572549 43.367614 87.736734 Z M 43.367614 87.736734 " stroke="#ff6600" stroke-width="2.5" stroke-opacity="1" stroke-miterlimit="4"/></g><path fill="#839496" d="M 257.972656 90.792969 L 390.941406 90.792969 L 390.941406 138.660156 L 257.972656 138.660156 Z M 257.972656 90.792969 " fill-opacity="0.9961" fill-rule="nonzero"/><path fill="#93a1a1" d="M 291.417969 90.792969 L 357.902344 90.792969 L 357.902344 138.660156 L 291.417969 138.660156 Z M 291.417969 90.792969 " fill-opacity="0.9961" fill-rule="nonzero"/><path fill="#586e75" d="M 291.214844 138.660156 L 357.699219 138.660156 L 335.527344 165.253906 L 313.386719 165.253906 Z M 291.214844 138.660156 " fill-opacity="1" fill-rule="nonzero"/><path fill="#657b83" d="M 282.109375 64.199219 L 367.210938 64.199219 L 367.210938 90.792969 L 282.109375 90.792969 Z M 282.109375 64.199219 " fill-opacity="0.9961" fill-rule="nonzero"/><path fill="#586e75" d="M 270.144531 37.605469 L 379.175781 37.605469 C 379.527344 37.605469 379.871094 37.640625 380.214844 37.707031 C 380.558594 37.777344 380.890625 37.875 381.210938 38.011719 C 381.535156 38.144531 381.839844 38.308594 382.132812 38.5 C 382.421875 38.695312 382.691406 38.914062 382.9375 39.164062 C 383.183594 39.410156 383.40625 39.679688 383.597656 39.96875 C 383.792969 40.257812 383.957031 40.566406 384.089844 40.886719 C 384.222656 41.210938 384.324219 41.542969 384.394531 41.886719 C 384.460938 42.230469 384.496094 42.574219 384.496094 42.921875 L 384.496094 58.878906 C 384.496094 59.230469 384.460938 59.574219 384.394531 59.917969 C 384.324219 60.261719 384.222656 60.59375 384.089844 60.914062 C 383.957031 61.238281 383.792969 61.542969 383.597656 61.835938 C 383.40625 62.125 383.183594 62.394531 382.9375 62.640625 C 382.691406 62.886719 382.421875 63.109375 382.132812 63.300781 C 381.839844 63.496094 381.535156 63.660156 381.210938 63.792969 C 380.890625 63.925781 380.558594 64.027344 380.214844 64.097656 C 379.871094 64.164062 379.527344 64.199219 379.175781 64.199219 L 270.144531 64.199219 C 269.792969 64.199219 269.449219 64.164062 269.105469 64.097656 C 268.761719 64.027344 268.429688 63.925781 268.109375 63.792969 C 267.785156 63.660156 267.476562 63.496094 267.1875 63.300781 C 266.898438 63.109375 266.628906 62.886719 266.382812 62.640625 C 266.136719 62.394531 265.914062 62.125 265.71875 61.835938 C 265.527344 61.542969 265.363281 61.238281 265.230469 60.914062 C 265.09375 60.59375 264.996094 60.261719 264.925781 59.917969 C 264.859375 59.574219 264.824219 59.230469 264.824219 58.878906 L 264.824219 42.921875 C 264.824219 42.574219 264.859375 42.230469 264.925781 41.886719 C 264.996094 41.542969 265.09375 41.210938 265.230469 40.886719 C 265.363281 40.566406 265.527344 40.257812 265.71875 39.96875 C 265.914062 39.679688 266.136719 39.410156 266.382812 39.164062 C 266.628906 38.914062 266.898438 38.695312 267.1875 38.5 C 267.476562 38.308594 267.785156 38.144531 268.109375 38.011719 C 268.429688 37.875 268.761719 37.777344 269.105469 37.707031 C 269.449219 37.640625 269.792969 37.605469 270.144531 37.605469 Z M 270.144531 37.605469 " fill-opacity="0.9961" fill-rule="nonzero"/><path fill="#586e75" d="M 264.824219 16.332031 L 384.496094 16.332031 L 384.496094 42.921875 L 264.824219 42.921875 Z M 264.824219 16.332031 " fill-opacity="0.9961" fill-rule="nonzero"/><g mask="url(#879ddae03c)"><g transform="matrix(1, 0, 0, 1, 19, 76)"><g clip-path="url(#7cd4f8b310)"><g clip-path="url(#ed4d4b8d8f)"><g mask="url(#fc6cf6471a)"><g><g clip-path="url(#00deb4741d)"><path fill="#eee8d5" d="M 159.207031 73.957031 L 159.207031 46.085938 C 159.207031 44.019531 160.515625 42.839844 161.992188 42.839844 L 166.265625 42.839844 C 171.574219 42.835938 174.300781 36.480469 170.644531 32.632812 L 161.511719 23.019531 C 160.285156 21.730469 160.285156 19.484375 161.511719 18.195312 L 173.988281 5.0625 C 174.605469 4.414062 175.214844 4.207031 175.84375 4.207031 C 176.476562 4.207031 177.09375 4.414062 177.707031 5.0625 L 215.148438 44.476562 L 227.640625 57.613281 C 228.867188 58.90625 228.867188 61.136719 227.640625 62.429688 L 215.148438 75.566406 L 177.707031 114.980469 C 176.480469 116.273438 175.21875 116.273438 173.988281 114.980469 L 161.511719 101.847656 C 160.285156 100.5625 160.285156 98.3125 161.511719 97.023438 L 170.644531 87.410156 C 174.300781 83.5625 171.574219 77.207031 166.265625 77.203125 L 161.992188 77.203125 C 160.515625 77.203125 159.207031 76.023438 159.207031 73.957031 Z M 159.207031 73.957031 " fill-opacity="0.9961" fill-rule="nonzero"/><path stroke-linecap="round" transform="matrix(4.334653, 0, 0, 4.334653, -38.163734, 18.35386)" fill="none" stroke-linejoin="round" d="M 51.662081 9.625746 L 36.552198 9.625746 L 20.735799 41.790233 L 13.368751 41.790233 " stroke="#eee8d5" stroke-width="8" stroke-opacity="1" stroke-miterlimit="4"/><path fill="#eee8d5" d="M 159.207031 186.097656 L 159.207031 213.96875 C 159.207031 216.035156 160.515625 217.214844 161.992188 217.214844 L 166.265625 217.214844 C 171.574219 217.21875 174.300781 223.574219 170.644531 227.421875 L 161.511719 237.035156 C 160.285156 238.324219 160.285156 240.574219 161.511719 241.859375 L 173.988281 254.992188 C 174.605469 255.640625 175.214844 255.847656 175.84375 255.847656 C 176.476562 255.847656 177.09375 255.640625 177.707031 254.992188 L 215.148438 215.578125 L 227.640625 202.441406 C 228.867188 201.148438 228.867188 198.917969 227.640625 197.625 L 215.148438 184.488281 L 177.707031 145.074219 C 176.480469 143.78125 175.21875 143.78125 173.988281 145.074219 L 161.511719 158.207031 C 160.285156 159.492188 160.285156 161.742188 161.511719 163.03125 L 170.644531 172.644531 C 174.300781 176.492188 171.574219 182.847656 166.265625 182.851562 L 161.992188 182.851562 C 160.515625 182.851562 159.207031 184.03125 159.207031 186.097656 Z M 159.207031 186.097656 " fill-opacity="0.9961" fill-rule="nonzero"/><path stroke-linecap="round" transform="matrix(4.334653, 0, 0, -4.334653, -38.163734, 241.701171)" fill="none" stroke-linejoin="round" d="M 51.662081 9.625825 L 36.552198 9.625825 L 20.735799 41.790312 L 13.368751 41.790312 " stroke="#eee8d5" stroke-width="8" stroke-opacity="1" stroke-miterlimit="4"/></g></g></g></g></g></g></g></svg>