<svg xmlns="http://www.w3.org/2000/svg" xmlns:xlink="http://www.w3.org/1999/xlink" width="540" zoomAndPan="magnify" viewBox="0 0 404.88 404.99999" height="540" preserveAspectRatio="xMidYMid meet" version="1.0"><defs><clipPath id="e982dfd8d7"><path d="M 139 28.871094 L 275 28.871094 L 275 227 L 139 227 Z M 139 28.871094 " clip-rule="nonzero"/></clipPath></defs><path fill="#839496" d="M 116.761719 290.976562 L 297.175781 290.976562 L 297.175781 355.925781 L 116.761719 355.925781 Z M 116.761719 290.976562 " fill-opacity="0.9961" fill-rule="nonzero"/><path fill="#93a1a1" d="M 162.140625 290.976562 L 252.347656 290.976562 L 252.347656 355.925781 L 162.140625 355.925781 Z M 162.140625 290.976562 " fill-opacity="0.9961" fill-rule="nonzero"/><path fill="#586e75" d="M 161.867188 355.925781 L 252.074219 355.925781 L 221.992188 392.007812 L 191.949219 392.007812 Z M 161.867188 355.925781 " fill-opacity="1" fill-rule="nonzero"/><path fill="#657b83" d="M 149.511719 254.894531 L 264.976562 254.894531 L 264.976562 290.976562 L 149.511719 290.976562 Z M 149.511719 254.894531 " fill-opacity="0.9961" fill-rule="nonzero"/><path fill="#586e75" d="M 133.273438 218.8125 L 281.214844 218.8125 C 281.6875 218.8125 282.15625 218.859375 282.621094 218.949219 C 283.085938 219.042969 283.539062 219.179688 283.976562 219.359375 C 284.414062 219.542969 284.828125 219.765625 285.222656 220.027344 C 285.617188 220.289062 285.980469 220.589844 286.316406 220.925781 C 286.652344 221.261719 286.953125 221.625 287.214844 222.019531 C 287.476562 222.414062 287.699219 222.828125 287.882812 223.265625 C 288.0625 223.703125 288.199219 224.15625 288.292969 224.621094 C 288.382812 225.085938 288.429688 225.554688 288.429688 226.027344 L 288.429688 247.675781 C 288.429688 248.152344 288.382812 248.621094 288.292969 249.085938 C 288.199219 249.550781 288.0625 250 287.882812 250.4375 C 287.699219 250.878906 287.476562 251.292969 287.214844 251.6875 C 286.953125 252.082031 286.652344 252.445312 286.316406 252.78125 C 285.980469 253.117188 285.617188 253.414062 285.222656 253.679688 C 284.828125 253.941406 284.414062 254.164062 283.976562 254.34375 C 283.539062 254.527344 283.085938 254.664062 282.621094 254.753906 C 282.15625 254.847656 281.6875 254.894531 281.214844 254.894531 L 133.273438 254.894531 C 132.800781 254.894531 132.332031 254.847656 131.867188 254.753906 C 131.402344 254.664062 130.949219 254.527344 130.511719 254.34375 C 130.074219 254.164062 129.660156 253.941406 129.265625 253.679688 C 128.871094 253.414062 128.507812 253.117188 128.171875 252.78125 C 127.835938 252.445312 127.535156 252.082031 127.273438 251.6875 C 127.011719 251.292969 126.789062 250.878906 126.605469 250.4375 C 126.425781 250 126.289062 249.550781 126.195312 249.085938 C 126.101562 248.621094 126.058594 248.152344 126.058594 247.675781 L 126.058594 226.027344 C 126.058594 225.554688 126.101562 225.085938 126.195312 224.621094 C 126.289062 224.15625 126.425781 223.703125 126.605469 223.265625 C 126.789062 222.828125 127.011719 222.414062 127.273438 222.019531 C 127.535156 221.625 127.835938 221.261719 128.171875 220.925781 C 128.507812 220.589844 128.871094 220.289062 129.265625 220.027344 C 129.660156 219.765625 130.074219 219.542969 130.511719 219.359375 C 130.949219 219.179688 131.402344 219.042969 131.867188 218.949219 C 132.332031 218.859375 132.800781 218.8125 133.273438 218.8125 Z M 133.273438 218.8125 " fill-opacity="0.9961" fill-rule="nonzero"/><path fill="#586e75" d="M 126.058594 189.945312 L 288.429688 189.945312 L 288.429688 226.027344 L 126.058594 226.027344 Z M 126.058594 189.945312 " fill-opacity="0.9961" fill-rule="nonzero"/><g clip-path="url(#e982dfd8d7)"><path fill="#f9d923" d="M 142.136719 155.449219 L 199.789062 223.042969 C 203.675781 227.5625 210.804688 227.5625 214.472656 223.042969 L 272.128906 155.449219 C 277.527344 149.203125 272.992188 139.519531 264.785156 139.519531 L 226.132812 139.519531 L 226.132812 38.558594 C 226.132812 33.175781 221.816406 28.871094 216.417969 28.871094 L 198.0625 28.871094 C 192.664062 28.871094 188.347656 33.175781 188.347656 38.558594 L 188.347656 139.519531 L 149.695312 139.519531 C 141.273438 139.519531 136.738281 149.203125 142.136719 155.449219 Z M 142.136719 155.449219 " fill-opacity="1" fill-rule="nonzero"/></g></svg>