<svg xmlns="http://www.w3.org/2000/svg" xmlns:xlink="http://www.w3.org/1999/xlink" width="540" zoomAndPan="magnify" viewBox="0 0 404.88 404.99999" height="540" preserveAspectRatio="xMidYMid meet" version="1.0"><defs><clipPath id="2862e90ad1"><path d="M 226.132812 218.261719 L 388.082031 218.261719 L 388.082031 380.210938 L 226.132812 380.210938 Z M 226.132812 218.261719 " clip-rule="nonzero"/></clipPath></defs><path fill="#a0a0a0" d="M 66.652344 373.753906 C 65.175781 372.875 63.144531 370.847656 62.136719 369.242188 C 60.332031 366.363281 60.304688 366.203125 60.113281 356.074219 C 59.933594 346.722656 60.058594 345.234375 61.527344 339.167969 C 63.363281 331.597656 65.878906 323.148438 67.140625 320.308594 C 68.550781 317.148438 71.992188 313.296875 74.589844 311.980469 C 76.898438 310.808594 77.230469 310.804688 81.164062 311.898438 C 89.761719 314.292969 96.628906 317.734375 104.296875 323.5 C 109.695312 327.558594 111.320312 330.28125 111.320312 335.269531 C 111.320312 340.085938 109.828125 342.082031 101.15625 348.871094 C 93.574219 354.808594 89.566406 358.832031 81.738281 368.371094 C 79.78125 370.753906 77.316406 373.296875 76.257812 374.023438 C 73.652344 375.808594 69.941406 375.703125 66.652344 373.753906 Z M 112.425781 327.136719 C 111.246094 326.664062 108.09375 324.40625 105.414062 322.117188 C 100.285156 317.730469 94.921875 314.351562 93.101562 314.359375 C 92.503906 314.359375 89.722656 313.542969 86.925781 312.542969 C 83.144531 311.191406 81.304688 310.109375 79.761719 308.324219 C 77.296875 305.46875 77.113281 303.253906 78.863281 297.394531 C 79.511719 295.226562 80.765625 289.90625 81.652344 285.570312 C 83.929688 274.425781 85.953125 267.71875 89.316406 260.140625 C 92.839844 252.210938 95.589844 247.507812 97.554688 246.0625 C 99.542969 244.597656 104.882812 244.769531 110.871094 246.496094 C 117.765625 248.476562 123.292969 252.148438 136.917969 263.792969 C 155.933594 280.046875 160.195312 287.871094 156.335938 299.46875 C 154.835938 303.972656 153.121094 305.824219 147.007812 309.558594 C 144.394531 311.152344 140.324219 314.449219 137.964844 316.882812 C 132.214844 322.816406 122.722656 328.074219 117.847656 328.03125 C 116.046875 328.015625 113.605469 327.613281 112.425781 327.140625 Z M 162.570312 284.855469 C 160.8125 284.0625 158.59375 281.304688 156.539062 277.347656 C 152.644531 269.859375 151.058594 267.179688 148.480469 263.714844 C 141.863281 254.828125 133.199219 248.984375 118.765625 243.675781 C 112.222656 241.269531 110.519531 240.347656 108.546875 238.15625 L 106.183594 235.527344 L 106.496094 230.566406 C 106.921875 223.859375 108.617188 219.867188 117.207031 205.390625 C 128.355469 186.59375 133.585938 181.730469 142.617188 181.761719 C 147.003906 181.777344 151.574219 183.378906 163.582031 189.113281 C 172.632812 193.433594 187.257812 205.5625 193.789062 214.164062 C 198.6875 220.613281 202.066406 230.199219 202.066406 237.644531 C 202.066406 243.644531 200.808594 246.625 194.644531 255.222656 C 192.1875 258.652344 188.804688 263.476562 187.128906 265.945312 C 184.332031 270.054688 170.457031 283.914062 168.035156 285.007812 C 166.59375 285.664062 164.207031 285.597656 162.570312 284.859375 Z M 207.941406 220.195312 C 199.085938 216.46875 196.898438 204.183594 203.429688 194.902344 C 205.40625 192.101562 216.160156 181.308594 223.101562 175.164062 C 232.035156 167.253906 247.804688 156.738281 253.871094 154.648438 C 254.71875 154.355469 257.335938 153.292969 259.683594 152.289062 C 277.34375 144.726562 280.015625 144.0625 297.179688 142.972656 C 310.335938 142.140625 315.097656 142.433594 320.886719 144.433594 C 332.558594 148.46875 341.453125 159.992188 340.191406 169.441406 C 338.765625 180.128906 328.101562 192.28125 318.347656 194.328125 C 314.480469 195.140625 297.230469 194.835938 284.230469 193.726562 C 268.554688 192.390625 262.34375 193.453125 251.757812 199.296875 C 243.050781 204.101562 240.390625 206.003906 233.101562 212.628906 C 226.183594 218.914062 222.886719 220.503906 215.988281 220.878906 C 211.933594 221.097656 209.621094 220.902344 207.941406 220.195312 Z M 186.375 197.8125 C 180.425781 196.492188 176.226562 193.066406 175.171875 188.667969 C 173.507812 181.71875 176.179688 173.324219 186.207031 153.992188 C 193.621094 139.695312 194.386719 138.136719 197.457031 131.03125 C 205.878906 111.550781 213.867188 78.027344 213.78125 62.515625 C 213.730469 53.140625 214.964844 50.472656 220.964844 47.027344 C 223.105469 45.796875 225.007812 45.386719 229.601562 45.160156 C 234.859375 44.902344 236.242188 45.109375 242.40625 47.082031 C 254.605469 50.984375 258.753906 54.347656 262.609375 63.476562 C 266.101562 71.738281 265.496094 79.863281 260.289062 94.710938 C 252.996094 115.492188 246.761719 126.917969 230.695312 148.945312 C 221.851562 161.070312 216.871094 168.460938 213.316406 174.75 C 205.425781 188.710938 203.648438 191.542969 201.082031 194.234375 C 197.179688 198.332031 193.140625 199.3125 186.375 197.8125 Z M 149.90625 179.003906 C 147.578125 177.851562 143.410156 172.828125 141.746094 169.164062 C 140.097656 165.53125 140.074219 158.785156 141.683594 151.132812 C 142.34375 147.992188 143.152344 142.339844 143.480469 138.570312 C 143.808594 134.800781 144.554688 126.976562 145.140625 121.179688 C 146.292969 109.726562 145.921875 101.671875 143.808594 92.3125 C 141.640625 82.726562 134.433594 71.707031 127.457031 67.324219 C 122.492188 64.203125 121.683594 62.382812 122.785156 56.804688 C 123.785156 51.765625 125.832031 47.289062 128.386719 44.570312 C 130.992188 41.800781 137.40625 37.910156 141.664062 36.515625 C 151.6875 33.230469 163.492188 37.492188 171.257812 47.203125 C 174.652344 51.449219 175.980469 54.210938 177.476562 60.144531 C 178.480469 64.121094 178.589844 67.601562 178.589844 95.394531 C 178.589844 119.902344 178.371094 128.695312 177.515625 138.226562 C 174.910156 167.179688 173.789062 170.523438 164.867188 175.871094 C 158.238281 179.839844 153.578125 180.816406 149.90625 179.003906 Z M 149.90625 179.003906 " fill-opacity="1" fill-rule="nonzero"/><path fill="#e38634" d="M 67.597656 373.375 C 64.550781 371.816406 62.066406 368.585938 61.226562 365.089844 C 60.152344 360.609375 60.859375 344.265625 62.367188 338.683594 C 66.464844 323.523438 67.621094 320.339844 70.207031 317.085938 C 71.625 315.296875 73.753906 313.320312 74.933594 312.691406 C 76.941406 311.621094 77.335938 311.621094 80.890625 312.683594 C 94.082031 316.636719 107.738281 325.085938 109.773438 330.566406 C 111.027344 333.9375 110.816406 337.792969 109.238281 340.417969 C 108.484375 341.667969 106.082031 344.070312 103.902344 345.75 C 94.578125 352.933594 88.644531 358.53125 83.78125 364.730469 C 76.1875 374.410156 72.980469 376.121094 67.597656 373.375 Z M 112.820312 326.304688 C 111.523438 325.773438 108.09375 323.363281 105.199219 320.953125 C 98.765625 315.597656 96.367188 314.257812 90.488281 312.726562 C 84.824219 311.25 80.878906 309.109375 79.277344 306.644531 C 77.894531 304.511719 77.714844 305.898438 81.683594 288.3125 C 82.917969 282.847656 84.609375 275.910156 85.445312 272.894531 C 87.355469 265.996094 93.410156 252.519531 96.308594 248.710938 C 98.417969 245.941406 98.652344 245.824219 101.96875 245.832031 C 106.066406 245.847656 114.191406 248.027344 117.621094 250.03125 C 126.554688 255.261719 144.589844 270.800781 151.34375 279.082031 C 156.617188 285.550781 157.894531 290.652344 156.015625 297.75 C 154.726562 302.640625 152.769531 304.949219 146.734375 308.707031 C 143.867188 310.492188 139.84375 313.746094 137.800781 315.9375 C 135.140625 318.789062 132.183594 320.976562 127.390625 323.648438 C 120.109375 327.703125 117.410156 328.199219 112.820312 326.304688 Z M 161.8125 283.34375 C 160.523438 282.363281 158.199219 278.816406 155.414062 273.578125 C 149.023438 261.570312 141.820312 253.886719 131.867188 248.464844 C 127.78125 246.242188 119.660156 242.742188 117.011719 242.066406 C 113.132812 241.078125 109.664062 238.894531 108.238281 236.550781 C 106.988281 234.492188 106.828125 233.597656 107.109375 230.222656 C 107.476562 225.753906 110.414062 218.113281 114.046875 212.15625 C 115.34375 210.035156 118.480469 204.789062 121.019531 200.5 C 126.894531 190.578125 131.652344 185.582031 137.160156 183.550781 C 142.074219 181.734375 143.230469 181.730469 147.972656 183.511719 C 162.082031 188.800781 167.082031 191.371094 175.324219 197.585938 C 187.332031 206.636719 194.289062 214.554688 198.03125 223.441406 C 203.449219 236.296875 202.765625 242.460938 194.660156 253.738281 C 192.507812 256.738281 189.382812 261.300781 187.71875 263.886719 C 185.839844 266.800781 181.734375 271.425781 176.90625 276.070312 C 167.050781 285.550781 165.613281 286.246094 161.8125 283.347656 Z M 209.527344 219.796875 C 204.253906 218.390625 200.867188 213.675781 200.367188 207.046875 C 199.933594 201.335938 202.140625 197.09375 209.574219 189.320312 C 225.941406 172.214844 240.933594 161.105469 256.328125 154.675781 C 259.179688 153.484375 262.746094 151.949219 264.253906 151.261719 C 276.519531 145.675781 282.707031 144.429688 300.699219 143.917969 C 313.066406 143.566406 315.417969 143.671875 318.992188 144.726562 C 327.125 147.125 335.089844 153.671875 337.953125 160.320312 C 339.417969 163.722656 339.679688 169.503906 338.542969 173.25 C 336.582031 179.691406 329.378906 188.480469 323.53125 191.558594 L 320.042969 193.394531 L 304.800781 193.390625 C 296.417969 193.386719 285.421875 193.109375 280.363281 192.773438 C 265.988281 191.820312 258.65625 193.648438 246.878906 201.121094 C 240.441406 205.207031 237.199219 207.703125 233.246094 211.628906 C 226.105469 218.71875 217.109375 221.816406 209.527344 219.792969 Z M 187.355469 197.183594 C 183.1875 196.347656 179.378906 194.238281 177.503906 191.734375 C 176.03125 189.765625 175.847656 188.964844 175.847656 184.484375 C 175.847656 180.503906 176.222656 178.402344 177.644531 174.429688 C 179.40625 169.511719 181.714844 164.25 184.203125 159.472656 C 196.648438 135.585938 200.207031 127.65625 204.058594 115.269531 C 210.828125 93.488281 213.988281 77.761719 214.667969 62.5 C 214.875 57.8125 215.382812 53.496094 215.851562 52.460938 C 216.300781 51.460938 217.976562 49.785156 219.578125 48.738281 C 222.234375 47.003906 223.148438 46.808594 229.90625 46.546875 C 236.625 46.285156 237.851562 46.433594 243.015625 48.132812 C 254.4375 51.894531 258.253906 55.074219 261.921875 63.871094 C 265.929688 73.484375 264.289062 83.785156 255.339844 105.210938 C 253.871094 108.722656 252.671875 111.757812 252.671875 111.957031 C 252.671875 112.867188 245.363281 126.144531 241.902344 131.523438 C 239.789062 134.8125 233.933594 143.136719 228.890625 150.027344 C 220.609375 161.339844 214.714844 170.578125 206.894531 184.488281 C 203.734375 190.109375 200.042969 194.832031 197.773438 196.152344 C 195.613281 197.40625 190.820312 197.882812 187.355469 197.183594 Z M 151.015625 178.4375 C 148.28125 177.316406 144.101562 172.6875 142.464844 168.960938 C 140.730469 165.007812 140.675781 159.757812 142.289062 152.199219 C 142.941406 149.144531 143.769531 143.28125 144.128906 139.179688 C 144.488281 135.074219 145.21875 128.015625 145.757812 123.492188 C 147.507812 108.753906 146.082031 93.828125 142.027344 84.429688 C 139.390625 78.328125 132.902344 70.128906 128.082031 66.808594 C 122.992188 63.304688 122.410156 61.878906 123.707031 56.082031 C 125.472656 48.171875 128.589844 44.226562 136.566406 39.792969 L 141.335938 37.144531 L 149.003906 37.144531 C 156.492188 37.144531 156.765625 37.199219 160.921875 39.484375 C 165.78125 42.160156 173.082031 49.851562 174.878906 54.1875 C 175.480469 55.648438 176.519531 59.8125 177.183594 63.441406 C 178.308594 69.574219 178.375 72.019531 178.097656 98.136719 C 177.898438 116.695312 177.476562 129.492188 176.855469 135.828125 C 176.335938 141.105469 175.636719 148.507812 175.300781 152.277344 C 174.449219 161.742188 172.617188 168.109375 169.914062 170.972656 C 167.515625 173.519531 163.160156 176.164062 158.238281 178.066406 C 154.476562 179.523438 153.757812 179.558594 151.015625 178.4375 Z M 151.015625 178.4375 " fill-opacity="1" fill-rule="nonzero"/><path fill="#51cf29" d="M 67.597656 373.375 C 64.550781 371.816406 62.066406 368.585938 61.226562 365.089844 C 60.152344 360.609375 60.859375 344.265625 62.367188 338.683594 C 66.464844 323.523438 67.621094 320.339844 70.207031 317.085938 C 71.625 315.296875 73.753906 313.320312 74.933594 312.691406 C 76.941406 311.621094 77.335938 311.621094 80.890625 312.683594 C 94.082031 316.636719 107.738281 325.085938 109.773438 330.566406 C 111.027344 333.9375 110.816406 337.792969 109.238281 340.417969 C 108.484375 341.667969 106.082031 344.070312 103.902344 345.75 C 94.578125 352.933594 88.644531 358.53125 83.78125 364.730469 C 76.1875 374.410156 72.980469 376.121094 67.597656 373.375 Z M 82.523438 361.023438 C 88.535156 354.09375 92.753906 349.957031 97.972656 345.863281 C 107.492188 338.390625 108.722656 336.476562 106.90625 331.988281 C 105.828125 329.332031 96.429688 322.648438 89.574219 319.664062 C 78.46875 314.828125 76.78125 314.722656 73.242188 318.636719 C 70.484375 321.6875 69.882812 323.316406 65.726562 339.027344 C 64.183594 344.855469 64.003906 346.539062 64.03125 355.132812 C 64.046875 361.394531 64.320312 365.273438 64.8125 366.304688 C 65.921875 368.621094 69.113281 370.546875 71.855469 370.546875 C 74.136719 370.550781 74.65625 370.085938 82.523438 361.023438 Z M 112.820312 326.304688 C 111.523438 325.773438 108.09375 323.363281 105.199219 320.953125 C 98.765625 315.597656 96.367188 314.257812 90.488281 312.726562 C 84.824219 311.25 80.878906 309.109375 79.277344 306.644531 C 77.894531 304.511719 77.714844 305.898438 81.683594 288.3125 C 82.917969 282.847656 84.609375 275.910156 85.445312 272.894531 C 87.355469 265.996094 93.410156 252.519531 96.308594 248.710938 C 98.417969 245.941406 98.652344 245.824219 101.96875 245.832031 C 106.066406 245.847656 114.191406 248.027344 117.621094 250.03125 C 126.554688 255.261719 144.589844 270.800781 151.34375 279.082031 C 156.617188 285.550781 157.894531 290.652344 156.015625 297.75 C 154.726562 302.640625 152.769531 304.949219 146.734375 308.707031 C 143.867188 310.492188 139.84375 313.746094 137.800781 315.9375 C 135.140625 318.789062 132.183594 320.976562 127.390625 323.648438 C 120.109375 327.703125 117.410156 328.199219 112.820312 326.304688 Z M 126.273438 320.214844 C 130.949219 317.5625 133.925781 315.324219 136.523438 312.503906 C 138.6875 310.152344 142.296875 307.269531 145.363281 305.445312 C 149.929688 302.726562 150.714844 301.976562 151.972656 299.128906 C 155.453125 291.238281 154.054688 286.289062 146.046875 278.179688 C 139.296875 271.34375 137.59375 269.792969 130.464844 263.984375 C 127.226562 261.34375 123.578125 258.328125 122.359375 257.277344 C 117.609375 253.1875 111.054688 250.535156 103.253906 249.550781 C 99.917969 249.128906 99.839844 249.160156 98.21875 251.546875 C 95.886719 254.984375 89.648438 269.007812 88.519531 273.347656 C 87.996094 275.359375 86.710938 281.0625 85.660156 286.023438 C 84.613281 290.984375 83.210938 296.824219 82.542969 299 C 81.875 301.175781 81.484375 303.496094 81.671875 304.15625 C 82.082031 305.613281 86.058594 307.839844 90.183594 308.917969 C 96.261719 310.507812 101.363281 313.175781 106.117188 317.25 C 111.652344 321.996094 114.984375 323.914062 117.738281 323.933594 C 118.902344 323.941406 122.328125 322.449219 126.273438 320.214844 Z M 161.8125 283.34375 C 160.523438 282.363281 158.199219 278.816406 155.414062 273.578125 C 149.023438 261.570312 141.820312 253.886719 131.867188 248.464844 C 127.78125 246.242188 119.660156 242.742188 117.011719 242.066406 C 113.132812 241.078125 109.664062 238.894531 108.238281 236.550781 C 106.988281 234.492188 106.828125 233.597656 107.109375 230.222656 C 107.476562 225.753906 110.414062 218.113281 114.046875 212.15625 C 115.34375 210.035156 118.480469 204.789062 121.019531 200.5 C 126.894531 190.578125 131.652344 185.582031 137.160156 183.550781 C 142.074219 181.734375 143.230469 181.730469 147.972656 183.511719 C 162.082031 188.800781 167.082031 191.371094 175.324219 197.585938 C 187.332031 206.636719 194.289062 214.554688 198.03125 223.441406 C 203.449219 236.296875 202.765625 242.460938 194.660156 253.738281 C 192.507812 256.738281 189.382812 261.300781 187.71875 263.886719 C 185.839844 266.800781 181.734375 271.425781 176.90625 276.070312 C 167.050781 285.550781 165.613281 286.246094 161.8125 283.347656 Z M 167.191406 280.496094 C 168.09375 279.96875 169.523438 278.703125 170.359375 277.6875 C 171.199219 276.671875 174.300781 273.675781 177.25 271.023438 C 180.671875 267.953125 183.523438 264.6875 185.121094 262.011719 C 186.5 259.703125 189.605469 255.039062 192.023438 251.648438 C 197.796875 243.546875 198.046875 242.941406 197.984375 237.21875 C 197.945312 233.503906 197.496094 231.152344 196.039062 227.066406 C 192.890625 218.222656 189.851562 214.226562 179.925781 205.867188 C 169.640625 197.203125 164.832031 194.058594 157.648438 191.292969 C 155.082031 190.304688 151.15625 188.601562 148.917969 187.507812 C 143.8125 185.003906 141.152344 184.996094 136.523438 187.46875 C 131.925781 189.921875 128.308594 194.09375 124.023438 201.871094 C 122.179688 205.222656 119.140625 210.390625 117.273438 213.355469 C 112.707031 220.613281 110.609375 226.292969 110.609375 231.414062 L 110.609375 235.417969 L 113.242188 236.851562 C 114.6875 237.636719 116.464844 238.28125 117.1875 238.28125 C 117.910156 238.28125 120.636719 239.230469 123.246094 240.390625 C 141.027344 248.292969 150.632812 256.847656 157.605469 270.996094 C 160.628906 277.128906 163.667969 281.457031 164.949219 281.457031 C 165.277344 281.457031 166.285156 281.023438 167.191406 280.496094 Z M 209.527344 219.796875 C 204.253906 218.390625 200.867188 213.675781 200.367188 207.046875 C 199.933594 201.335938 202.140625 197.09375 209.574219 189.320312 C 225.941406 172.214844 240.933594 161.105469 256.328125 154.675781 C 259.179688 153.484375 262.746094 151.949219 264.253906 151.261719 C 276.519531 145.675781 282.707031 144.429688 300.699219 143.917969 C 313.066406 143.566406 315.417969 143.671875 318.992188 144.726562 C 327.125 147.125 335.089844 153.671875 337.953125 160.320312 C 339.417969 163.722656 339.679688 169.503906 338.542969 173.25 C 336.582031 179.691406 329.378906 188.480469 323.53125 191.558594 L 320.042969 193.394531 L 304.800781 193.390625 C 296.417969 193.386719 285.421875 193.109375 280.363281 192.773438 C 265.988281 191.820312 258.65625 193.648438 246.878906 201.121094 C 240.441406 205.207031 237.199219 207.703125 233.246094 211.628906 C 226.105469 218.71875 217.109375 221.816406 209.527344 219.792969 Z M 187.355469 197.183594 C 183.1875 196.347656 179.378906 194.238281 177.503906 191.734375 C 176.03125 189.765625 175.847656 188.964844 175.847656 184.484375 C 175.847656 180.503906 176.222656 178.402344 177.644531 174.429688 C 179.40625 169.511719 181.714844 164.25 184.203125 159.472656 C 196.648438 135.585938 200.207031 127.65625 204.058594 115.269531 C 210.828125 93.488281 213.988281 77.761719 214.667969 62.5 C 214.875 57.8125 215.382812 53.496094 215.851562 52.460938 C 216.300781 51.460938 217.976562 49.785156 219.578125 48.738281 C 222.234375 47.003906 223.148438 46.808594 229.90625 46.546875 C 236.625 46.285156 237.851562 46.433594 243.015625 48.132812 C 254.4375 51.894531 258.253906 55.074219 261.921875 63.871094 C 265.929688 73.484375 264.289062 83.785156 255.339844 105.210938 C 253.871094 108.722656 252.671875 111.757812 252.671875 111.957031 C 252.671875 112.867188 245.363281 126.144531 241.902344 131.523438 C 239.789062 134.8125 233.933594 143.136719 228.890625 150.027344 C 220.609375 161.339844 214.714844 170.578125 206.894531 184.488281 C 203.734375 190.109375 200.042969 194.832031 197.773438 196.152344 C 195.613281 197.40625 190.820312 197.882812 187.355469 197.183594 Z M 151.015625 178.4375 C 148.28125 177.316406 144.101562 172.6875 142.464844 168.960938 C 140.730469 165.007812 140.675781 159.757812 142.289062 152.199219 C 142.941406 149.144531 143.769531 143.28125 144.128906 139.179688 C 144.488281 135.074219 145.21875 128.015625 145.757812 123.492188 C 147.507812 108.753906 146.082031 93.828125 142.027344 84.429688 C 139.390625 78.328125 132.902344 70.128906 128.082031 66.808594 C 122.992188 63.304688 122.410156 61.878906 123.707031 56.082031 C 125.472656 48.171875 128.589844 44.226562 136.566406 39.792969 L 141.335938 37.144531 L 149.003906 37.144531 C 156.492188 37.144531 156.765625 37.199219 160.921875 39.484375 C 165.78125 42.160156 173.082031 49.851562 174.878906 54.1875 C 175.480469 55.648438 176.519531 59.8125 177.183594 63.441406 C 178.308594 69.574219 178.375 72.019531 178.097656 98.136719 C 177.898438 116.695312 177.476562 129.492188 176.855469 135.828125 C 176.335938 141.105469 175.636719 148.507812 175.300781 152.277344 C 174.449219 161.742188 172.617188 168.109375 169.914062 170.972656 C 167.515625 173.519531 163.160156 176.164062 158.238281 178.066406 C 154.476562 179.523438 153.757812 179.558594 151.015625 178.4375 Z M 151.015625 178.4375 " fill-opacity="1" fill-rule="nonzero"/><path fill="#b16b2c" d="M 67.597656 373.375 C 64.550781 371.816406 62.066406 368.585938 61.226562 365.089844 C 60.152344 360.609375 60.859375 344.265625 62.367188 338.683594 C 66.464844 323.523438 67.621094 320.339844 70.207031 317.085938 C 71.625 315.296875 73.753906 313.320312 74.933594 312.691406 C 76.941406 311.621094 77.335938 311.621094 80.890625 312.683594 C 94.082031 316.636719 107.738281 325.085938 109.773438 330.566406 C 111.027344 333.9375 110.816406 337.792969 109.238281 340.417969 C 108.484375 341.667969 106.082031 344.070312 103.902344 345.75 C 94.578125 352.933594 88.644531 358.53125 83.78125 364.730469 C 76.1875 374.410156 72.980469 376.121094 67.597656 373.375 Z M 82.523438 361.023438 C 88.535156 354.09375 92.753906 349.957031 97.972656 345.863281 C 107.492188 338.390625 108.722656 336.476562 106.90625 331.988281 C 105.828125 329.332031 96.429688 322.648438 89.574219 319.664062 C 78.46875 314.828125 76.78125 314.722656 73.242188 318.636719 C 70.484375 321.6875 69.882812 323.316406 65.726562 339.027344 C 64.183594 344.855469 64.003906 346.539062 64.03125 355.132812 C 64.046875 361.394531 64.320312 365.273438 64.8125 366.304688 C 65.921875 368.621094 69.113281 370.546875 71.855469 370.546875 C 74.136719 370.550781 74.65625 370.085938 82.523438 361.023438 Z M 112.820312 326.304688 C 111.523438 325.773438 108.09375 323.363281 105.199219 320.953125 C 98.765625 315.597656 96.367188 314.257812 90.488281 312.726562 C 84.824219 311.25 80.878906 309.109375 79.277344 306.644531 C 77.894531 304.511719 77.714844 305.898438 81.683594 288.3125 C 82.917969 282.847656 84.609375 275.910156 85.445312 272.894531 C 87.355469 265.996094 93.410156 252.519531 96.308594 248.710938 C 98.417969 245.941406 98.652344 245.824219 101.96875 245.832031 C 106.066406 245.847656 114.191406 248.027344 117.621094 250.03125 C 126.554688 255.261719 144.589844 270.800781 151.34375 279.082031 C 156.617188 285.550781 157.894531 290.652344 156.015625 297.75 C 154.726562 302.640625 152.769531 304.949219 146.734375 308.707031 C 143.867188 310.492188 139.84375 313.746094 137.800781 315.9375 C 135.140625 318.789062 132.183594 320.976562 127.390625 323.648438 C 120.109375 327.703125 117.410156 328.199219 112.820312 326.304688 Z M 126.273438 320.214844 C 130.949219 317.5625 133.925781 315.324219 136.523438 312.503906 C 138.6875 310.152344 142.296875 307.269531 145.363281 305.445312 C 149.929688 302.726562 150.714844 301.976562 151.972656 299.128906 C 155.453125 291.238281 154.054688 286.289062 146.046875 278.179688 C 139.296875 271.34375 137.59375 269.792969 130.464844 263.984375 C 127.226562 261.34375 123.578125 258.328125 122.359375 257.277344 C 117.609375 253.1875 111.054688 250.535156 103.253906 249.550781 C 99.917969 249.128906 99.839844 249.160156 98.21875 251.546875 C 95.886719 254.984375 89.648438 269.007812 88.519531 273.347656 C 87.996094 275.359375 86.710938 281.0625 85.660156 286.023438 C 84.613281 290.984375 83.210938 296.824219 82.542969 299 C 81.875 301.175781 81.484375 303.496094 81.671875 304.15625 C 82.082031 305.613281 86.058594 307.839844 90.183594 308.917969 C 96.261719 310.507812 101.363281 313.175781 106.117188 317.25 C 111.652344 321.996094 114.984375 323.914062 117.738281 323.933594 C 118.902344 323.941406 122.328125 322.449219 126.273438 320.214844 Z M 161.8125 283.34375 C 160.523438 282.363281 158.199219 278.816406 155.414062 273.578125 C 149.023438 261.570312 141.820312 253.886719 131.867188 248.464844 C 127.78125 246.242188 119.660156 242.742188 117.011719 242.066406 C 113.132812 241.078125 109.664062 238.894531 108.238281 236.550781 C 106.988281 234.492188 106.828125 233.597656 107.109375 230.222656 C 107.476562 225.753906 110.414062 218.113281 114.046875 212.15625 C 115.34375 210.035156 118.480469 204.789062 121.019531 200.5 C 126.894531 190.578125 131.652344 185.582031 137.160156 183.550781 C 142.074219 181.734375 143.230469 181.730469 147.972656 183.511719 C 162.082031 188.800781 167.082031 191.371094 175.324219 197.585938 C 187.332031 206.636719 194.289062 214.554688 198.03125 223.441406 C 203.449219 236.296875 202.765625 242.460938 194.660156 253.738281 C 192.507812 256.738281 189.382812 261.300781 187.71875 263.886719 C 185.839844 266.800781 181.734375 271.425781 176.90625 276.070312 C 167.050781 285.550781 165.613281 286.246094 161.8125 283.347656 Z M 167.191406 280.496094 C 168.09375 279.96875 169.523438 278.703125 170.359375 277.6875 C 171.199219 276.671875 174.300781 273.675781 177.25 271.023438 C 180.671875 267.953125 183.523438 264.6875 185.121094 262.011719 C 186.5 259.703125 189.605469 255.039062 192.023438 251.648438 C 197.796875 243.546875 198.046875 242.941406 197.984375 237.21875 C 197.945312 233.503906 197.496094 231.152344 196.039062 227.066406 C 192.890625 218.222656 189.851562 214.226562 179.925781 205.867188 C 169.640625 197.203125 164.832031 194.058594 157.648438 191.292969 C 155.082031 190.304688 151.15625 188.601562 148.917969 187.507812 C 143.8125 185.003906 141.152344 184.996094 136.523438 187.46875 C 131.925781 189.921875 128.308594 194.09375 124.023438 201.871094 C 122.179688 205.222656 119.140625 210.390625 117.273438 213.355469 C 112.707031 220.613281 110.609375 226.292969 110.609375 231.414062 L 110.609375 235.417969 L 113.242188 236.851562 C 114.6875 237.636719 116.464844 238.28125 117.1875 238.28125 C 117.910156 238.28125 120.636719 239.230469 123.246094 240.390625 C 141.027344 248.292969 150.632812 256.847656 157.605469 270.996094 C 160.628906 277.128906 163.667969 281.457031 164.949219 281.457031 C 165.277344 281.457031 166.285156 281.023438 167.191406 280.496094 Z M 209.527344 219.796875 C 204.253906 218.390625 200.867188 213.675781 200.367188 207.046875 C 199.933594 201.335938 202.140625 197.09375 209.574219 189.320312 C 225.941406 172.214844 240.933594 161.105469 256.328125 154.675781 C 259.179688 153.484375 262.746094 151.949219 264.253906 151.261719 C 276.519531 145.675781 282.707031 144.429688 300.699219 143.917969 C 313.066406 143.566406 315.417969 143.671875 318.992188 144.726562 C 327.125 147.125 335.089844 153.671875 337.953125 160.320312 C 339.417969 163.722656 339.679688 169.503906 338.542969 173.25 C 336.582031 179.691406 329.378906 188.480469 323.53125 191.558594 L 320.042969 193.394531 L 304.800781 193.390625 C 296.417969 193.386719 285.421875 193.109375 280.363281 192.773438 C 265.988281 191.820312 258.65625 193.648438 246.878906 201.121094 C 240.441406 205.207031 237.199219 207.703125 233.246094 211.628906 C 226.105469 218.71875 217.109375 221.816406 209.527344 219.792969 Z M 220.65625 216.214844 C 224.171875 215.222656 227.429688 213.203125 230.324219 210.226562 C 233.617188 206.84375 240.679688 201.570312 247.183594 197.636719 C 259.226562 190.351562 268.769531 188.253906 283.273438 189.695312 C 287.738281 190.140625 297.835938 190.539062 305.714844 190.578125 L 320.042969 190.65625 L 323.140625 188.820312 C 329.265625 185.1875 336.8125 173.609375 336.8125 167.839844 C 336.8125 163.316406 335.460938 160.042969 332.019531 156.238281 C 328.527344 152.371094 322.121094 148.4375 317.300781 147.195312 C 313.824219 146.296875 299.667969 146.273438 290.308594 147.140625 C 280.851562 148.019531 277.007812 149.222656 256.9375 157.585938 C 247.519531 161.511719 233.359375 170.691406 224.625 178.53125 C 219.160156 183.441406 205.800781 197.082031 204.847656 198.726562 C 203.09375 201.75 202.382812 206.386719 203.203125 209.464844 C 205.035156 216.339844 211.4375 218.8125 220.65625 216.210938 Z M 187.355469 197.183594 C 183.1875 196.347656 179.378906 194.238281 177.503906 191.734375 C 176.03125 189.765625 175.847656 188.964844 175.847656 184.484375 C 175.847656 180.503906 176.222656 178.402344 177.644531 174.429688 C 179.40625 169.511719 181.714844 164.25 184.203125 159.472656 C 196.648438 135.585938 200.207031 127.65625 204.058594 115.269531 C 210.828125 93.488281 213.988281 77.761719 214.667969 62.5 C 214.875 57.8125 215.382812 53.496094 215.851562 52.460938 C 216.300781 51.460938 217.976562 49.785156 219.578125 48.738281 C 222.234375 47.003906 223.148438 46.808594 229.90625 46.546875 C 236.625 46.285156 237.851562 46.433594 243.015625 48.132812 C 254.4375 51.894531 258.253906 55.074219 261.921875 63.871094 C 265.929688 73.484375 264.289062 83.785156 255.339844 105.210938 C 253.871094 108.722656 252.671875 111.757812 252.671875 111.957031 C 252.671875 112.867188 245.363281 126.144531 241.902344 131.523438 C 239.789062 134.8125 233.933594 143.136719 228.886719 150.027344 C 220.609375 161.339844 214.714844 170.578125 206.894531 184.488281 C 203.734375 190.109375 200.042969 194.832031 197.773438 196.152344 C 195.613281 197.40625 190.820312 197.882812 187.355469 197.183594 Z M 199.574219 190.566406 C 201.113281 188.675781 204.140625 183.914062 206.300781 179.984375 C 211.984375 169.644531 219.023438 158.796875 228.285156 146.109375 C 235.03125 136.863281 240.691406 128.527344 243.710938 123.382812 C 249.253906 113.949219 255.234375 99.503906 259.667969 84.824219 C 262.789062 74.507812 261.453125 65.460938 255.796875 58.5625 C 251.746094 53.621094 242.1875 49.820312 232.484375 49.285156 C 225.449219 48.898438 221.246094 50.152344 218.851562 53.351562 C 217.433594 55.242188 217.308594 55.945312 217.3125 62.039062 C 217.3125 65.683594 216.878906 71.289062 216.351562 74.492188 C 213.800781 89.910156 213.621094 90.777344 210.257812 104.304688 C 209.789062 106.191406 208.558594 110.351562 207.519531 113.558594 C 206.484375 116.761719 205.144531 120.925781 204.542969 122.808594 C 202.363281 129.625 197.875 139.492188 191.601562 151.25 C 182.976562 167.417969 179.480469 175.691406 178.703125 181.757812 C 178.210938 185.597656 178.257812 186.972656 178.949219 188.578125 C 180.628906 192.492188 185.539062 194.460938 192.867188 194.160156 C 196.714844 194.003906 196.816406 193.949219 199.574219 190.566406 Z M 151.015625 178.4375 C 148.28125 177.316406 144.101562 172.6875 142.464844 168.960938 C 140.730469 165.007812 140.675781 159.757812 142.289062 152.199219 C 142.941406 149.144531 143.769531 143.28125 144.128906 139.179688 C 144.488281 135.074219 145.21875 128.015625 145.757812 123.492188 C 147.507812 108.753906 146.082031 93.828125 142.027344 84.429688 C 139.390625 78.328125 132.902344 70.128906 128.082031 66.808594 C 122.992188 63.304688 122.410156 61.878906 123.707031 56.082031 C 125.472656 48.171875 128.589844 44.226562 136.566406 39.792969 L 141.335938 37.144531 L 149.003906 37.144531 C 156.492188 37.144531 156.765625 37.199219 160.921875 39.484375 C 165.78125 42.160156 173.082031 49.851562 174.878906 54.1875 C 175.480469 55.648438 176.519531 59.8125 177.183594 63.441406 C 178.308594 69.574219 178.375 72.019531 178.097656 98.136719 C 177.898438 116.695312 177.476562 129.492188 176.855469 135.828125 C 176.335938 141.105469 175.636719 148.507812 175.300781 152.277344 C 174.449219 161.742188 172.617188 168.109375 169.914062 170.972656 C 167.515625 173.519531 163.160156 176.164062 158.238281 178.066406 C 154.476562 179.523438 153.757812 179.558594 151.015625 178.4375 Z M 161.03125 173.523438 C 171.308594 168.1875 171.355469 168.054688 174.054688 136.171875 C 175.035156 124.574219 175.328125 115.601562 175.417969 94.023438 C 175.535156 65.34375 175.378906 63.148438 172.738281 56.183594 C 171.039062 51.714844 164.386719 44.683594 159.226562 41.902344 C 155.167969 39.714844 154.417969 39.542969 148.949219 39.542969 C 143.160156 39.542969 142.941406 39.601562 137.652344 42.625 C 129.828125 47.09375 128.117188 49.015625 126.761719 54.875 C 125.320312 61.097656 125.476562 61.917969 128.441406 63.605469 C 133.808594 66.664062 141.402344 75.890625 144.402344 82.996094 C 148.316406 92.269531 149.816406 106.695312 148.402344 121.445312 C 147.964844 125.964844 147.625 130.277344 147.640625 131.03125 C 147.683594 132.96875 145.515625 150.527344 144.425781 157.074219 C 142.976562 165.785156 144.554688 170.28125 150.71875 174.980469 C 153.441406 177.054688 154.523438 176.902344 161.03125 173.523438 Z M 161.03125 173.523438 " fill-opacity="1" fill-rule="nonzero"/><path fill="#5e5e5c" d="M 67.597656 373.375 C 64.550781 371.816406 62.066406 368.585938 61.226562 365.089844 C 60.152344 360.609375 60.859375 344.265625 62.367188 338.683594 C 66.464844 323.523438 67.621094 320.339844 70.207031 317.085938 C 71.625 315.296875 73.753906 313.320312 74.933594 312.691406 C 76.941406 311.621094 77.335938 311.621094 80.890625 312.683594 C 94.082031 316.636719 107.738281 325.085938 109.773438 330.566406 C 111.027344 333.9375 110.816406 337.792969 109.238281 340.417969 C 108.484375 341.667969 106.082031 344.070312 103.902344 345.75 C 94.578125 352.933594 88.644531 358.53125 83.78125 364.730469 C 76.1875 374.410156 72.980469 376.121094 67.597656 373.375 Z M 82.234375 362.753906 C 86.605469 357.710938 92.425781 351.777344 95.171875 349.5625 C 97.914062 347.347656 101.679688 344.316406 103.542969 342.824219 C 105.488281 341.265625 107.363281 339.085938 107.945312 337.710938 C 108.84375 335.589844 108.859375 334.996094 108.105469 332.570312 C 106.671875 327.957031 95.988281 320.667969 84.425781 316.421875 C 81.328125 315.285156 78.183594 314.355469 77.441406 314.355469 C 76.671875 314.355469 74.746094 315.753906 72.972656 317.609375 C 69.671875 321.0625 68.621094 323.640625 65.492188 335.941406 C 63.394531 344.191406 62.929688 348.804688 63.246094 358.097656 C 63.511719 365.769531 63.667969 366.703125 64.972656 368.292969 C 66.796875 370.515625 69.484375 371.859375 72.175781 371.894531 C 74.09375 371.917969 75.011719 371.082031 82.234375 362.753906 Z M 112.820312 326.304688 C 111.523438 325.773438 108.09375 323.363281 105.199219 320.953125 C 98.765625 315.597656 96.367188 314.257812 90.488281 312.726562 C 84.824219 311.25 80.878906 309.109375 79.277344 306.644531 C 77.894531 304.511719 77.714844 305.898438 81.683594 288.3125 C 82.917969 282.847656 84.609375 275.910156 85.445312 272.894531 C 87.355469 265.996094 93.410156 252.519531 96.308594 248.710938 C 98.417969 245.941406 98.652344 245.824219 101.96875 245.832031 C 106.066406 245.847656 114.191406 248.027344 117.621094 250.03125 C 126.554688 255.261719 144.589844 270.800781 151.34375 279.082031 C 156.617188 285.550781 157.894531 290.652344 156.015625 297.75 C 154.726562 302.640625 152.769531 304.949219 146.734375 308.707031 C 143.867188 310.492188 139.84375 313.746094 137.800781 315.9375 C 135.140625 318.789062 132.183594 320.976562 127.390625 323.648438 C 120.109375 327.703125 117.410156 328.199219 112.820312 326.304688 Z M 126.09375 321.511719 C 131.441406 318.65625 133.863281 316.925781 135.785156 314.589844 C 138.511719 311.285156 140.777344 309.464844 146.425781 306.054688 C 151.046875 303.265625 152.007812 302.246094 153.367188 298.707031 C 154.890625 294.742188 154.835938 289.507812 153.238281 285.792969 C 151.539062 281.851562 144.082031 274.140625 132.863281 264.734375 C 121.242188 254.988281 118.765625 253.09375 115.777344 251.671875 C 112.714844 250.214844 101.527344 247.761719 100.160156 248.25 C 98.671875 248.78125 96.484375 252.25 93.015625 259.585938 C 89.035156 268.011719 87.355469 273.160156 85.339844 283.171875 C 84.425781 287.695312 83 293.773438 82.164062 296.683594 C 80.070312 303.980469 80.308594 305.347656 84.070312 307.625 C 85.738281 308.636719 88.757812 309.789062 90.777344 310.183594 C 95.488281 311.109375 101.964844 314.730469 106.757812 319.113281 C 110.5 322.542969 115.230469 325.210938 117.683594 325.28125 C 118.390625 325.304688 122.175781 323.605469 126.09375 321.511719 Z M 161.8125 283.34375 C 160.523438 282.363281 158.199219 278.816406 155.414062 273.578125 C 149.023438 261.570312 141.820312 253.886719 131.867188 248.464844 C 127.78125 246.242188 119.660156 242.742188 117.011719 242.066406 C 113.132812 241.078125 109.664062 238.894531 108.238281 236.550781 C 106.988281 234.492188 106.828125 233.597656 107.109375 230.222656 C 107.476562 225.753906 110.414062 218.113281 114.046875 212.15625 C 115.34375 210.035156 118.480469 204.789062 121.019531 200.5 C 126.894531 190.578125 131.652344 185.582031 137.160156 183.550781 C 142.074219 181.734375 143.230469 181.730469 147.972656 183.511719 C 162.082031 188.800781 167.082031 191.371094 175.324219 197.585938 C 187.332031 206.636719 194.289062 214.554688 198.03125 223.441406 C 203.449219 236.296875 202.765625 242.460938 194.660156 253.738281 C 192.507812 256.738281 189.382812 261.300781 187.71875 263.886719 C 185.839844 266.800781 181.734375 271.425781 176.90625 276.070312 C 167.050781 285.550781 165.613281 286.246094 161.8125 283.347656 Z M 170.859375 278.464844 C 172.804688 276.53125 176.4375 273.078125 178.933594 270.789062 C 181.867188 268.097656 184.636719 264.703125 186.773438 261.191406 C 188.589844 258.203125 191.359375 254.0625 192.925781 251.992188 C 197.542969 245.871094 198.472656 244.003906 198.820312 240.164062 C 199.511719 232.539062 196.042969 221.699219 190.824219 215.175781 C 185.789062 208.882812 170.566406 196.316406 163.898438 192.953125 C 161.917969 191.953125 158.242188 190.3125 155.726562 189.304688 C 153.210938 188.300781 149.804688 186.804688 148.152344 185.980469 C 143.964844 183.894531 140.425781 184.109375 135.910156 186.726562 C 130.59375 189.808594 127.246094 193.773438 122.527344 202.582031 C 121.234375 204.996094 118.605469 209.433594 116.6875 212.441406 C 110.351562 222.386719 107.640625 232.890625 110.5625 236.179688 C 111.210938 236.902344 113.335938 238.011719 115.289062 238.640625 C 117.242188 239.273438 120.21875 240.375 121.902344 241.09375 C 123.582031 241.808594 125.171875 242.398438 125.425781 242.398438 C 126.671875 242.398438 139.90625 250.367188 142.3125 252.566406 C 149.039062 258.722656 153.851562 265.027344 156.773438 271.523438 C 160.125 278.960938 163.679688 283.054688 166.152344 282.324219 C 166.796875 282.136719 168.914062 280.398438 170.859375 278.464844 Z M 209.527344 219.796875 C 204.253906 218.390625 200.867188 213.675781 200.367188 207.046875 C 199.933594 201.335938 202.140625 197.09375 209.574219 189.320312 C 225.941406 172.214844 240.933594 161.105469 256.328125 154.675781 C 259.179688 153.484375 262.746094 151.949219 264.253906 151.261719 C 276.519531 145.675781 282.707031 144.429688 300.699219 143.917969 C 313.066406 143.566406 315.417969 143.671875 318.992188 144.726562 C 327.125 147.125 335.089844 153.671875 337.953125 160.320312 C 339.417969 163.722656 339.679688 169.503906 338.542969 173.25 C 336.582031 179.691406 329.378906 188.480469 323.53125 191.558594 L 320.042969 193.394531 L 304.800781 193.390625 C 296.417969 193.386719 285.421875 193.109375 280.363281 192.773438 C 265.988281 191.820312 258.65625 193.648438 246.878906 201.121094 C 240.441406 205.207031 237.199219 207.703125 233.246094 211.628906 C 226.105469 218.71875 217.109375 221.816406 209.527344 219.792969 Z M 220.65625 216.214844 C 224.171875 215.222656 227.429688 213.203125 230.324219 210.226562 C 233.617188 206.84375 240.679688 201.570312 247.183594 197.636719 C 259.226562 190.351562 268.769531 188.253906 283.273438 189.695312 C 287.738281 190.140625 297.835938 190.539062 305.714844 190.578125 L 320.042969 190.65625 L 323.140625 188.820312 C 329.265625 185.1875 336.8125 173.609375 336.8125 167.839844 C 336.8125 163.316406 335.460938 160.042969 332.019531 156.238281 C 328.527344 152.371094 322.121094 148.4375 317.300781 147.195312 C 313.824219 146.296875 299.667969 146.273438 290.308594 147.140625 C 280.851562 148.019531 277.007812 149.222656 256.9375 157.585938 C 247.519531 161.511719 233.359375 170.691406 224.625 178.53125 C 219.160156 183.441406 205.800781 197.082031 204.847656 198.726562 C 203.09375 201.75 202.382812 206.386719 203.203125 209.464844 C 205.035156 216.339844 211.4375 218.8125 220.65625 216.210938 Z M 187.355469 197.183594 C 183.1875 196.347656 179.378906 194.238281 177.503906 191.734375 C 176.03125 189.765625 175.847656 188.964844 175.847656 184.484375 C 175.847656 180.503906 176.222656 178.402344 177.644531 174.429688 C 179.40625 169.511719 181.714844 164.25 184.203125 159.472656 C 196.648438 135.585938 200.207031 127.65625 204.058594 115.269531 C 210.828125 93.488281 213.988281 77.761719 214.667969 62.5 C 214.875 57.8125 215.382812 53.496094 215.851562 52.460938 C 216.300781 51.460938 217.976562 49.785156 219.578125 48.738281 C 222.234375 47.003906 223.148438 46.808594 229.90625 46.546875 C 236.625 46.285156 237.851562 46.433594 243.015625 48.132812 C 254.4375 51.894531 258.253906 55.074219 261.921875 63.871094 C 265.929688 73.484375 264.289062 83.785156 255.339844 105.210938 C 253.871094 108.722656 252.671875 111.757812 252.671875 111.957031 C 252.671875 112.867188 245.363281 126.144531 241.902344 131.523438 C 239.789062 134.8125 233.933594 143.136719 228.886719 150.027344 C 220.609375 161.339844 214.714844 170.578125 206.894531 184.488281 C 203.734375 190.109375 200.042969 194.832031 197.773438 196.152344 C 195.613281 197.40625 190.820312 197.882812 187.355469 197.183594 Z M 199.574219 190.566406 C 201.113281 188.675781 204.140625 183.914062 206.300781 179.984375 C 211.984375 169.644531 219.023438 158.796875 228.285156 146.109375 C 235.03125 136.863281 240.691406 128.527344 243.710938 123.382812 C 249.253906 113.949219 255.234375 99.503906 259.667969 84.824219 C 262.789062 74.507812 261.453125 65.460938 255.796875 58.5625 C 251.746094 53.621094 242.1875 49.820312 232.484375 49.285156 C 225.449219 48.898438 221.246094 50.152344 218.851562 53.351562 C 217.433594 55.242188 217.308594 55.945312 217.3125 62.039062 C 217.3125 65.683594 216.878906 71.289062 216.351562 74.492188 C 213.800781 89.910156 213.621094 90.777344 210.257812 104.304688 C 209.789062 106.191406 208.558594 110.351562 207.519531 113.558594 C 206.484375 116.761719 205.144531 120.925781 204.542969 122.808594 C 202.363281 129.625 197.875 139.492188 191.601562 151.25 C 182.976562 167.417969 179.480469 175.691406 178.703125 181.757812 C 178.210938 185.597656 178.257812 186.972656 178.949219 188.578125 C 180.628906 192.492188 185.539062 194.460938 192.867188 194.160156 C 196.714844 194.003906 196.816406 193.949219 199.574219 190.566406 Z M 151.015625 178.4375 C 148.28125 177.316406 144.101562 172.6875 142.464844 168.960938 C 140.730469 165.007812 140.675781 159.757812 142.289062 152.199219 C 142.941406 149.144531 143.769531 143.28125 144.128906 139.179688 C 144.488281 135.074219 145.21875 128.015625 145.757812 123.492188 C 147.507812 108.753906 146.082031 93.828125 142.027344 84.429688 C 139.390625 78.328125 132.902344 70.128906 128.082031 66.808594 C 122.992188 63.304688 122.410156 61.878906 123.707031 56.082031 C 125.472656 48.171875 128.589844 44.226562 136.566406 39.792969 L 141.335938 37.144531 L 149.003906 37.144531 C 156.492188 37.144531 156.765625 37.199219 160.921875 39.484375 C 165.78125 42.160156 173.082031 49.851562 174.878906 54.1875 C 175.480469 55.648438 176.519531 59.8125 177.183594 63.441406 C 178.308594 69.574219 178.375 72.019531 178.097656 98.136719 C 177.898438 116.695312 177.476562 129.492188 176.855469 135.828125 C 176.335938 141.105469 175.636719 148.507812 175.300781 152.277344 C 174.449219 161.742188 172.617188 168.109375 169.914062 170.972656 C 167.515625 173.519531 163.160156 176.164062 158.238281 178.066406 C 154.476562 179.523438 153.757812 179.558594 151.015625 178.4375 Z M 161.03125 173.523438 C 171.308594 168.1875 171.355469 168.054688 174.054688 136.171875 C 175.035156 124.574219 175.328125 115.601562 175.417969 94.023438 C 175.535156 65.34375 175.378906 63.148438 172.738281 56.183594 C 171.039062 51.714844 164.386719 44.683594 159.226562 41.902344 C 155.167969 39.714844 154.417969 39.542969 148.949219 39.542969 C 143.160156 39.542969 142.941406 39.601562 137.652344 42.625 C 129.828125 47.09375 128.117188 49.015625 126.761719 54.875 C 125.320312 61.097656 125.476562 61.917969 128.441406 63.605469 C 133.808594 66.664062 141.402344 75.890625 144.402344 82.996094 C 148.316406 92.269531 149.816406 106.695312 148.402344 121.445312 C 147.964844 125.964844 147.625 130.277344 147.640625 131.03125 C 147.683594 132.96875 145.515625 150.527344 144.425781 157.074219 C 142.976562 165.785156 144.554688 170.28125 150.71875 174.980469 C 153.441406 177.054688 154.523438 176.902344 161.03125 173.523438 Z M 161.03125 173.523438 " fill-opacity="1" fill-rule="nonzero"/><path fill="#315a23" d="M 67.421875 372.507812 C 65.875 371.644531 64.105469 369.890625 63.15625 368.273438 C 61.5625 365.570312 61.527344 365.269531 61.542969 354.835938 C 61.558594 345.710938 61.769531 343.371094 62.988281 338.683594 C 67.324219 321.996094 69.742188 316.753906 74.464844 313.816406 L 76.984375 312.253906 L 81.449219 313.589844 C 90.5 316.296875 95.539062 318.820312 103.207031 324.480469 C 108.714844 328.550781 110.015625 330.652344 109.976562 335.40625 C 109.941406 339.914062 109.089844 340.9375 98.71875 348.972656 C 92.96875 353.425781 88.96875 357.527344 80.449219 367.695312 C 74.875 374.351562 72.390625 375.269531 67.421875 372.507812 Z M 76.375 369.859375 C 77.765625 368.726562 78.90625 367.554688 78.90625 367.253906 C 78.90625 365.542969 91.113281 352.957031 98.589844 346.964844 C 108.75 338.820312 110.15625 336.464844 107.847656 331.449219 C 106.640625 328.824219 96.355469 321.199219 90.753906 318.777344 C 84.714844 316.164062 79.4375 314.367188 77.777344 314.359375 C 74.929688 314.351562 71.066406 318.253906 69.128906 323.109375 C 67.253906 327.804688 63.78125 342.304688 63.046875 348.519531 C 62.054688 356.882812 63.105469 366.046875 65.371094 368.734375 C 68.613281 372.59375 72.527344 372.992188 76.375 369.859375 Z M 112.941406 325.667969 C 111.710938 325.160156 108.554688 322.90625 105.929688 320.667969 C 100.105469 315.6875 96.792969 313.753906 92.015625 312.535156 C 85.570312 310.886719 81.609375 308.929688 80.109375 306.644531 C 78.550781 304.28125 78.621094 303.496094 81.300781 293.453125 C 82.003906 290.8125 83.128906 285.726562 83.804688 282.144531 C 85.328125 274.050781 86.851562 269.25 90.597656 260.769531 C 94.019531 253.019531 96.824219 248.152344 98.417969 247.191406 C 101.097656 245.578125 110.117188 247.101562 116.277344 250.207031 C 122.496094 253.34375 138.867188 266.546875 147.367188 275.277344 C 153.203125 281.273438 156.335938 287.308594 156.335938 292.550781 C 156.335938 295.40625 154.550781 301.171875 153.039062 303.1875 C 152.25 304.238281 149.378906 306.433594 146.65625 308.0625 C 143.933594 309.691406 139.769531 313.023438 137.390625 315.476562 C 134.21875 318.746094 131.394531 320.835938 126.792969 323.3125 C 120.015625 326.960938 117.21875 327.4375 112.941406 325.667969 Z M 126.394531 321.441406 C 131.351562 318.726562 134.296875 316.625 136.21875 314.425781 C 139.484375 310.6875 141.757812 308.871094 146.316406 306.363281 C 150.640625 303.980469 153 300.945312 154.234375 296.179688 C 155.886719 289.792969 154.382812 285.570312 148 278.675781 C 141.875 272.0625 130.257812 261.816406 120.363281 254.300781 C 115.683594 250.746094 101.277344 246.6875 99.324219 248.375 C 97.015625 250.375 90.441406 263.648438 88.195312 270.835938 C 87.492188 273.097656 85.949219 279.574219 84.773438 285.230469 C 83.59375 290.882812 82.203125 296.65625 81.683594 298.054688 C 81.160156 299.457031 80.734375 301.6875 80.734375 303.015625 C 80.734375 305.042969 81.097656 305.695312 83.035156 307.136719 C 84.300781 308.082031 87.25 309.347656 89.589844 309.957031 C 97.019531 311.886719 101.894531 314.636719 108.011719 320.351562 C 110.917969 323.066406 115.121094 325.164062 117.855469 325.265625 C 118.65625 325.296875 122.5 323.574219 126.394531 321.441406 Z M 163.316406 283.542969 C 161.652344 282.785156 158.476562 278.660156 156.917969 275.230469 C 149.050781 257.890625 137.058594 247.964844 115.199219 240.699219 C 112.863281 239.921875 110.84375 238.6875 109.558594 237.242188 C 106.890625 234.242188 106.855469 230.558594 109.425781 223.320312 C 111.707031 216.902344 124.242188 195.566406 128.738281 190.453125 C 135.265625 183.023438 141.992188 181.492188 151.15625 185.359375 C 153.835938 186.488281 157.679688 188.117188 159.691406 188.96875 C 170.789062 193.683594 185.515625 205.390625 192.925781 215.394531 C 197.390625 221.421875 200.847656 231.074219 200.847656 237.527344 C 200.847656 242.648438 199 246.832031 193.097656 255.09375 C 190.679688 258.476562 187.386719 263.125 185.78125 265.421875 C 182.75 269.761719 169.898438 282.464844 167.425781 283.570312 C 165.757812 284.316406 165 284.308594 163.316406 283.539062 Z M 166.878906 282.039062 C 168.480469 281.074219 181.738281 268.546875 183.546875 266.289062 C 184.257812 265.398438 186.160156 262.511719 187.773438 259.871094 C 189.382812 257.234375 192.03125 253.386719 193.652344 251.328125 C 198.339844 245.367188 199.257812 242.640625 198.828125 235.984375 C 198.085938 224.496094 194.132812 217.371094 182.554688 206.667969 C 175.492188 200.136719 161.210938 190.3125 158.78125 190.3125 C 158.464844 190.3125 155.046875 188.925781 151.1875 187.226562 C 147.328125 185.53125 143.273438 184.144531 142.175781 184.144531 C 139.347656 184.144531 133.363281 187.558594 130.011719 191.082031 C 128.441406 192.730469 125.613281 196.855469 123.726562 200.25 C 121.839844 203.640625 118.632812 209.066406 116.601562 212.300781 C 111.703125 220.105469 109.390625 226.246094 109.390625 231.453125 C 109.390625 235.066406 109.554688 235.582031 111.128906 236.84375 C 112.089844 237.609375 114.214844 238.59375 115.855469 239.03125 C 119.878906 240.101562 125.378906 242.558594 133.730469 247.019531 C 140.234375 250.492188 141.121094 251.21875 147.210938 258.046875 C 152.433594 263.90625 154.308594 266.566406 156.664062 271.472656 C 159.445312 277.261719 163.488281 282.828125 164.914062 282.828125 C 165.269531 282.828125 166.15625 282.472656 166.878906 282.039062 Z M 210.90625 219.445312 C 210.570312 219.320312 209.5625 219.035156 208.667969 218.8125 C 206.300781 218.230469 203.28125 215.113281 201.992188 211.929688 C 199.527344 205.832031 201.109375 199.617188 206.761719 193.1875 C 211.417969 187.886719 224.882812 175.125 229.503906 171.636719 C 230.339844 171 232.125 169.617188 233.464844 168.554688 C 239.109375 164.09375 248.546875 158.652344 256.328125 155.378906 C 259.179688 154.179688 262.769531 152.621094 264.304688 151.914062 C 276.027344 146.511719 283.042969 145.105469 300.699219 144.605469 C 317.054688 144.140625 320.152344 144.683594 327.140625 149.257812 C 331.5625 152.148438 336.472656 157.757812 337.886719 161.527344 C 339.367188 165.484375 338.625 172.183594 336.167969 177.039062 C 333.371094 182.5625 327.882812 188.582031 323.578125 190.851562 L 320.042969 192.710938 L 305.105469 192.710938 C 296.890625 192.710938 285.894531 192.433594 280.667969 192.09375 C 266.117188 191.152344 259.554688 192.703125 247.476562 199.941406 C 241.511719 203.515625 238.378906 205.863281 232.855469 210.902344 C 227.109375 216.144531 223.792969 218.164062 219.484375 219.042969 C 216.015625 219.75 212.199219 219.929688 210.90625 219.445312 Z M 220.65625 216.214844 C 224.171875 215.222656 227.429688 213.203125 230.324219 210.226562 C 233.617188 206.84375 240.679688 201.570312 247.183594 197.636719 C 259.226562 190.351562 268.769531 188.253906 283.273438 189.695312 C 287.738281 190.140625 297.835938 190.539062 305.714844 190.578125 L 320.042969 190.65625 L 323.140625 188.820312 C 329.265625 185.1875 336.8125 173.609375 336.8125 167.839844 C 336.8125 163.316406 335.460938 160.042969 332.019531 156.238281 C 328.527344 152.371094 322.121094 148.4375 317.300781 147.195312 C 313.824219 146.296875 299.667969 146.273438 290.308594 147.140625 C 280.851562 148.019531 277.007812 149.222656 256.9375 157.585938 C 247.519531 161.511719 233.359375 170.691406 224.625 178.53125 C 219.160156 183.441406 205.800781 197.082031 204.847656 198.726562 C 203.09375 201.75 202.382812 206.386719 203.203125 209.464844 C 205.035156 216.339844 211.4375 218.8125 220.65625 216.210938 Z M 187.300781 196.492188 C 183.65625 195.761719 179.101562 193.222656 177.609375 191.089844 C 175.8125 188.523438 176.035156 181.390625 178.105469 175.101562 C 179.753906 170.097656 184.808594 159.410156 191.328125 147.136719 C 198.296875 134.019531 202.488281 123.3125 207.429688 106.019531 C 212.136719 89.539062 214.707031 75.261719 215.417969 61.675781 C 215.914062 52.101562 216.25 51.355469 221.269531 48.703125 C 223.894531 47.320312 225.265625 47.09375 231.078125 47.085938 C 236.765625 47.082031 238.753906 47.390625 243.578125 49.027344 C 246.734375 50.097656 250.734375 51.785156 252.464844 52.777344 C 259.347656 56.722656 264.371094 67.792969 263.417969 76.917969 C 262.675781 84.003906 254.796875 107.148438 250.421875 115.085938 C 249.648438 116.492188 249.011719 117.816406 249.011719 118.03125 C 249.011719 118.648438 241.449219 131.3125 238.539062 135.570312 C 237.089844 137.691406 233.570312 142.582031 230.722656 146.4375 C 220.195312 160.683594 214.855469 168.898438 207.550781 182.089844 C 203.769531 188.917969 200.828125 193.046875 198.535156 194.738281 C 195.933594 196.660156 191.546875 197.34375 187.300781 196.492188 Z M 199.574219 190.566406 C 201.113281 188.675781 204.140625 183.914062 206.300781 179.984375 C 211.984375 169.644531 219.023438 158.796875 228.285156 146.109375 C 235.03125 136.863281 240.691406 128.527344 243.710938 123.382812 C 249.253906 113.949219 255.234375 99.503906 259.667969 84.824219 C 262.789062 74.507812 261.453125 65.460938 255.796875 58.5625 C 251.746094 53.621094 242.1875 49.820312 232.484375 49.285156 C 225.449219 48.898438 221.246094 50.152344 218.851562 53.351562 C 217.433594 55.242188 217.308594 55.945312 217.3125 62.039062 C 217.3125 65.683594 216.878906 71.289062 216.351562 74.492188 C 213.800781 89.910156 213.621094 90.777344 210.257812 104.304688 C 209.789062 106.191406 208.558594 110.351562 207.519531 113.558594 C 206.484375 116.761719 205.144531 120.925781 204.542969 122.808594 C 202.363281 129.625 197.875 139.492188 191.601562 151.25 C 182.976562 167.417969 179.480469 175.691406 178.703125 181.757812 C 178.210938 185.597656 178.257812 186.972656 178.949219 188.578125 C 180.628906 192.492188 185.539062 194.460938 192.867188 194.160156 C 196.714844 194.003906 196.816406 193.949219 199.574219 190.566406 Z M 150.972656 177.796875 C 148.71875 176.984375 144.21875 171.726562 142.699219 168.132812 C 141.367188 164.980469 141.441406 159.027344 142.898438 152.199219 C 143.550781 149.144531 144.386719 143.28125 144.753906 139.179688 C 145.121094 135.074219 145.816406 128.324219 146.300781 124.179688 C 148.160156 108.242188 146.714844 93.101562 142.449219 83.875 C 139.503906 77.492188 133.027344 69.238281 128.617188 66.234375 C 123.652344 62.851562 123.089844 61.742188 124.042969 57.207031 C 125.808594 48.785156 128.792969 44.839844 136.789062 40.367188 C 141.074219 37.96875 141.707031 37.816406 148.113281 37.601562 C 154.210938 37.398438 155.277344 37.546875 158.644531 39.085938 C 163.308594 41.21875 169.183594 46.230469 171.914062 50.414062 C 174.253906 54 176.03125 59.550781 177.09375 66.613281 C 178.113281 73.375 177.507812 122.921875 176.25 135.828125 C 175.734375 141.105469 175.011719 148.589844 174.640625 152.464844 C 173.679688 162.539062 172.144531 167.652344 169.160156 170.679688 C 166.308594 173.574219 162.1875 176.027344 157.597656 177.558594 C 153.878906 178.796875 153.761719 178.800781 150.972656 177.796875 Z M 161.03125 173.523438 C 171.308594 168.1875 171.355469 168.054688 174.054688 136.171875 C 175.035156 124.574219 175.328125 115.601562 175.417969 94.023438 C 175.535156 65.34375 175.378906 63.148438 172.738281 56.183594 C 171.039062 51.714844 164.390625 44.683594 159.226562 41.902344 C 155.167969 39.714844 154.417969 39.542969 148.949219 39.542969 C 143.160156 39.542969 142.941406 39.601562 137.652344 42.625 C 129.828125 47.09375 128.117188 49.015625 126.761719 54.875 C 125.320312 61.097656 125.476562 61.917969 128.441406 63.605469 C 133.808594 66.664062 141.402344 75.890625 144.402344 82.996094 C 148.316406 92.269531 149.816406 106.695312 148.402344 121.445312 C 147.964844 125.964844 147.625 130.277344 147.640625 131.03125 C 147.683594 132.96875 145.515625 150.527344 144.425781 157.074219 C 142.976562 165.785156 144.554688 170.28125 150.71875 174.980469 C 153.441406 177.054688 154.523438 176.902344 161.03125 173.523438 Z M 161.03125 173.523438 " fill-opacity="1" fill-rule="nonzero"/><path fill="#33362c" d="M 67.421875 372.507812 C 65.875 371.644531 64.105469 369.890625 63.15625 368.273438 C 61.5625 365.570312 61.527344 365.269531 61.542969 354.835938 C 61.558594 345.710938 61.769531 343.371094 62.988281 338.683594 C 67.324219 321.996094 69.742188 316.753906 74.464844 313.816406 L 76.984375 312.253906 L 81.449219 313.589844 C 90.5 316.296875 95.539062 318.820312 103.207031 324.480469 C 108.714844 328.550781 110.015625 330.652344 109.976562 335.40625 C 109.941406 339.914062 109.089844 340.9375 98.71875 348.972656 C 92.96875 353.425781 88.96875 357.527344 80.449219 367.695312 C 74.875 374.351562 72.390625 375.269531 67.421875 372.507812 Z M 76.375 369.859375 C 77.765625 368.726562 78.90625 367.554688 78.90625 367.253906 C 78.90625 365.542969 91.113281 352.957031 98.589844 346.964844 C 108.75 338.820312 110.15625 336.464844 107.847656 331.449219 C 106.640625 328.824219 96.355469 321.199219 90.753906 318.777344 C 84.714844 316.164062 79.4375 314.367188 77.777344 314.359375 C 74.929688 314.351562 71.066406 318.253906 69.128906 323.109375 C 67.253906 327.804688 63.78125 342.304688 63.046875 348.519531 C 62.054688 356.882812 63.105469 366.046875 65.371094 368.734375 C 68.613281 372.59375 72.527344 372.992188 76.375 369.859375 Z M 112.941406 325.667969 C 111.710938 325.160156 108.554688 322.90625 105.929688 320.667969 C 100.105469 315.6875 96.792969 313.753906 92.015625 312.535156 C 85.570312 310.886719 81.609375 308.929688 80.109375 306.644531 C 78.550781 304.28125 78.621094 303.496094 81.300781 293.453125 C 82.003906 290.8125 83.128906 285.726562 83.804688 282.144531 C 85.328125 274.050781 86.851562 269.25 90.597656 260.769531 C 94.019531 253.019531 96.824219 248.152344 98.417969 247.191406 C 101.097656 245.578125 110.117188 247.101562 116.277344 250.207031 C 122.496094 253.34375 138.867188 266.546875 147.367188 275.277344 C 153.203125 281.273438 156.335938 287.308594 156.335938 292.550781 C 156.335938 295.40625 154.550781 301.171875 153.039062 303.1875 C 152.25 304.238281 149.378906 306.433594 146.65625 308.0625 C 143.933594 309.691406 139.769531 313.023438 137.390625 315.476562 C 134.21875 318.746094 131.394531 320.835938 126.792969 323.3125 C 120.015625 326.960938 117.21875 327.4375 112.941406 325.667969 Z M 126.394531 321.441406 C 131.351562 318.726562 134.296875 316.625 136.21875 314.425781 C 139.484375 310.6875 141.757812 308.871094 146.316406 306.363281 C 150.640625 303.980469 153 300.945312 154.234375 296.179688 C 155.886719 289.792969 154.382812 285.570312 148 278.675781 C 141.875 272.0625 130.257812 261.816406 120.363281 254.300781 C 115.683594 250.746094 101.277344 246.6875 99.324219 248.375 C 97.015625 250.375 90.441406 263.648438 88.195312 270.835938 C 87.492188 273.097656 85.949219 279.574219 84.773438 285.230469 C 83.59375 290.882812 82.203125 296.65625 81.683594 298.054688 C 81.160156 299.457031 80.734375 301.6875 80.734375 303.015625 C 80.734375 305.042969 81.097656 305.695312 83.035156 307.136719 C 84.300781 308.082031 87.25 309.347656 89.589844 309.957031 C 97.019531 311.886719 101.894531 314.636719 108.011719 320.351562 C 110.917969 323.066406 115.121094 325.164062 117.855469 325.265625 C 118.65625 325.296875 122.5 323.574219 126.394531 321.441406 Z M 163.316406 283.542969 C 161.652344 282.785156 158.476562 278.660156 156.917969 275.230469 C 149.050781 257.890625 137.058594 247.964844 115.199219 240.699219 C 112.863281 239.921875 110.84375 238.6875 109.558594 237.242188 C 106.890625 234.242188 106.855469 230.558594 109.425781 223.320312 C 111.707031 216.902344 124.242188 195.566406 128.738281 190.453125 C 135.265625 183.023438 141.992188 181.492188 151.15625 185.359375 C 153.835938 186.488281 157.679688 188.117188 159.691406 188.96875 C 170.789062 193.683594 185.515625 205.390625 192.925781 215.394531 C 197.390625 221.421875 200.847656 231.074219 200.847656 237.527344 C 200.847656 242.648438 199 246.832031 193.097656 255.09375 C 190.679688 258.476562 187.386719 263.125 185.78125 265.421875 C 182.75 269.761719 169.898438 282.464844 167.425781 283.570312 C 165.757812 284.316406 165 284.308594 163.316406 283.539062 Z M 166.878906 282.039062 C 168.480469 281.074219 181.738281 268.546875 183.546875 266.289062 C 184.257812 265.398438 186.160156 262.511719 187.773438 259.871094 C 189.382812 257.234375 192.03125 253.386719 193.652344 251.328125 C 198.339844 245.367188 199.257812 242.640625 198.828125 235.984375 C 198.085938 224.496094 194.132812 217.371094 182.554688 206.667969 C 175.492188 200.136719 161.210938 190.3125 158.78125 190.3125 C 158.464844 190.3125 155.046875 188.925781 151.1875 187.226562 C 147.328125 185.53125 143.273438 184.144531 142.175781 184.144531 C 139.347656 184.144531 133.363281 187.558594 130.011719 191.082031 C 128.441406 192.730469 125.613281 196.855469 123.726562 200.25 C 121.839844 203.640625 118.632812 209.066406 116.601562 212.300781 C 111.703125 220.105469 109.390625 226.246094 109.390625 231.453125 C 109.390625 235.066406 109.554688 235.582031 111.128906 236.84375 C 112.089844 237.609375 114.214844 238.59375 115.855469 239.03125 C 119.878906 240.101562 125.378906 242.558594 133.730469 247.019531 C 140.234375 250.492188 141.121094 251.21875 147.210938 258.046875 C 152.433594 263.90625 154.308594 266.566406 156.664062 271.472656 C 159.445312 277.261719 163.488281 282.828125 164.914062 282.828125 C 165.269531 282.828125 166.15625 282.472656 166.878906 282.039062 Z M 210.90625 219.445312 C 210.570312 219.320312 209.5625 219.035156 208.667969 218.8125 C 206.300781 218.230469 203.28125 215.113281 201.992188 211.929688 C 199.527344 205.832031 201.109375 199.617188 206.761719 193.1875 C 211.417969 187.886719 224.882812 175.125 229.503906 171.636719 C 230.339844 171 232.125 169.617188 233.464844 168.554688 C 239.109375 164.09375 248.546875 158.652344 256.328125 155.378906 C 259.179688 154.179688 262.769531 152.621094 264.304688 151.914062 C 276.027344 146.511719 283.042969 145.105469 300.699219 144.605469 C 317.054688 144.140625 320.152344 144.683594 327.140625 149.257812 C 331.5625 152.148438 336.472656 157.757812 337.886719 161.527344 C 339.367188 165.484375 338.625 172.183594 336.167969 177.039062 C 333.371094 182.5625 327.882812 188.582031 323.578125 190.851562 L 320.042969 192.710938 L 305.105469 192.710938 C 296.890625 192.710938 285.894531 192.433594 280.667969 192.09375 C 266.117188 191.152344 259.554688 192.703125 247.476562 199.941406 C 241.511719 203.515625 238.378906 205.863281 232.855469 210.902344 C 227.109375 216.144531 223.792969 218.164062 219.484375 219.042969 C 216.015625 219.75 212.199219 219.929688 210.90625 219.445312 Z M 220.523438 217.414062 C 224.792969 216.269531 226.835938 214.957031 232.648438 209.628906 C 242.367188 200.71875 256.074219 193.082031 265.675781 191.230469 C 271.460938 190.113281 274.988281 190.164062 295.65625 191.679688 C 309.160156 192.671875 319.582031 192.148438 322.761719 190.328125 C 330.207031 186.058594 338.03125 174.105469 338.03125 167 C 338.03125 157.964844 327.015625 147.589844 315.503906 145.78125 C 313.09375 145.402344 305.945312 145.402344 297.484375 145.777344 C 282.175781 146.457031 279.945312 146.929688 267 152.265625 C 263.644531 153.648438 258.980469 155.566406 256.632812 156.527344 C 245.320312 161.15625 229.839844 171.734375 219.6875 181.773438 C 217.875 183.566406 214.613281 186.761719 212.4375 188.871094 C 205.148438 195.949219 202.765625 199.4375 201.808594 204.421875 C 201.351562 206.800781 202.816406 212.5 204.414062 214.566406 C 207.199219 218.160156 213.558594 219.285156 220.523438 217.417969 Z M 187.300781 196.492188 C 183.65625 195.761719 179.101562 193.222656 177.609375 191.089844 C 175.8125 188.523438 176.035156 181.390625 178.105469 175.101562 C 179.753906 170.097656 184.808594 159.410156 191.328125 147.136719 C 198.296875 134.023438 202.488281 123.3125 207.429688 106.019531 C 212.136719 89.539062 214.707031 75.261719 215.417969 61.675781 C 215.914062 52.101562 216.25 51.355469 221.269531 48.703125 C 223.894531 47.320312 225.265625 47.09375 231.078125 47.085938 C 236.765625 47.082031 238.753906 47.390625 243.578125 49.027344 C 246.734375 50.097656 250.734375 51.785156 252.464844 52.777344 C 259.347656 56.722656 264.371094 67.792969 263.417969 76.917969 C 262.675781 84.003906 254.796875 107.148438 250.421875 115.085938 C 249.648438 116.492188 249.011719 117.816406 249.011719 118.03125 C 249.011719 118.648438 241.449219 131.3125 238.539062 135.570312 C 237.089844 137.691406 233.570312 142.582031 230.722656 146.4375 C 220.195312 160.683594 214.855469 168.898438 207.550781 182.089844 C 203.769531 188.917969 200.828125 193.046875 198.535156 194.738281 C 195.933594 196.660156 191.546875 197.34375 187.300781 196.492188 Z M 195.707031 195.089844 C 198.480469 193.90625 201.003906 191.066406 204.351562 185.363281 C 206.113281 182.363281 207.554688 179.777344 207.554688 179.617188 C 207.554688 178.230469 223.5 153.988281 230.722656 144.394531 C 241.78125 129.707031 249.355469 116.570312 254.21875 103.621094 C 261.117188 85.253906 262.019531 81.898438 262.039062 74.492188 C 262.054688 68.671875 261.875 67.585938 260.339844 64.246094 C 256.601562 56.113281 253.289062 53.332031 243.527344 50.128906 C 238.78125 48.570312 236.523438 48.222656 231.027344 48.207031 C 224.886719 48.191406 224.042969 48.347656 221.074219 50.070312 C 216.992188 52.4375 215.785156 55.160156 216.332031 60.765625 C 216.828125 65.804688 213.804688 86.285156 210.867188 97.792969 C 210.339844 99.867188 209.660156 102.644531 209.355469 103.960938 C 209.054688 105.28125 207.804688 109.445312 206.585938 113.214844 C 205.363281 116.984375 203.964844 121.300781 203.480469 122.808594 C 201.726562 128.261719 195.324219 142.207031 190.113281 151.933594 C 176.925781 176.558594 174.21875 188.0625 180.578125 192.476562 C 184.449219 195.167969 192.339844 196.53125 195.707031 195.089844 Z M 150.972656 177.796875 C 148.71875 176.984375 144.21875 171.730469 142.699219 168.132812 C 141.367188 164.980469 141.441406 159.027344 142.898438 152.199219 C 143.550781 149.144531 144.386719 143.285156 144.753906 139.179688 C 145.121094 135.074219 145.816406 128.324219 146.300781 124.179688 C 148.160156 108.246094 146.714844 93.101562 142.449219 83.875 C 139.503906 77.492188 133.027344 69.238281 128.617188 66.234375 C 123.652344 62.851562 123.089844 61.742188 124.042969 57.207031 C 125.808594 48.785156 128.792969 44.839844 136.789062 40.367188 C 141.074219 37.96875 141.707031 37.816406 148.113281 37.601562 C 154.210938 37.398438 155.277344 37.546875 158.644531 39.085938 C 163.308594 41.21875 169.183594 46.230469 171.914062 50.414062 C 174.253906 54 176.03125 59.550781 177.09375 66.613281 C 178.113281 73.375 177.507812 122.921875 176.25 135.828125 C 175.734375 141.105469 175.011719 148.59375 174.640625 152.464844 C 173.679688 162.539062 172.144531 167.652344 169.160156 170.679688 C 166.308594 173.574219 162.1875 176.027344 157.597656 177.558594 C 153.878906 178.796875 153.761719 178.800781 150.972656 177.796875 Z M 157.003906 176.695312 C 161.003906 175.144531 167.117188 171.507812 168.984375 169.574219 C 171.375 167.089844 172.707031 161.527344 173.972656 148.699219 C 175.992188 128.230469 176.566406 115.597656 176.59375 90.941406 C 176.625 65.691406 176.289062 61.996094 173.308594 54.875 C 171.625 50.851562 164.285156 43.273438 159.691406 40.816406 C 156.339844 39.023438 155.457031 38.859375 149.152344 38.859375 C 141.53125 38.855469 140.292969 39.246094 133.683594 43.722656 C 128.882812 46.976562 126.78125 50.101562 125.460938 55.949219 C 124.269531 61.222656 124.847656 63.089844 128.179688 64.769531 C 131.179688 66.277344 133.285156 68.328125 137.480469 73.816406 C 142.070312 79.824219 143.132812 81.679688 144.699219 86.441406 C 147.804688 95.871094 148.78125 109.851562 147.335938 124.179688 C 146.917969 128.324219 146.292969 134.800781 145.949219 138.570312 C 145.605469 142.339844 144.914062 147.582031 144.414062 150.222656 C 142.917969 158.097656 142.632812 164.925781 143.6875 167.746094 C 144.988281 171.238281 148.019531 174.875 151.015625 176.539062 C 152.433594 177.328125 153.621094 177.976562 153.652344 177.976562 C 153.683594 177.976562 155.191406 177.402344 157.003906 176.695312 Z M 157.003906 176.695312 " fill-opacity="1" fill-rule="nonzero"/><g clip-path="url(#2862e90ad1)"><path fill="#faab03" d="M 373.015625 284.167969 L 322.175781 284.167969 L 322.175781 233.328125 C 322.175781 225.003906 315.433594 218.273438 307.109375 218.273438 C 298.78125 218.273438 292.039062 225.003906 292.039062 233.328125 L 292.039062 284.167969 L 241.199219 284.167969 C 232.875 284.167969 226.132812 290.910156 226.132812 299.238281 C 226.132812 307.5625 232.875 314.304688 241.199219 314.304688 L 292.039062 314.304688 L 292.039062 365.144531 C 292.039062 373.46875 298.78125 380.210938 307.109375 380.210938 C 315.433594 380.210938 322.175781 373.46875 322.175781 365.144531 L 322.175781 314.304688 L 373.015625 314.304688 C 381.328125 314.304688 388.082031 307.5625 388.082031 299.238281 C 388.082031 290.910156 381.328125 284.167969 373.015625 284.167969 " fill-opacity="1" fill-rule="nonzero"/></g></svg>