<svg xmlns="http://www.w3.org/2000/svg" xmlns:xlink="http://www.w3.org/1999/xlink" width="540" zoomAndPan="magnify" viewBox="0 0 404.88 404.99999" height="540" preserveAspectRatio="xMidYMid meet" version="1.0"><defs><clipPath id="00fd027efb"><path d="M 27 23 L 404.761719 23 L 404.761719 401 L 27 401 Z M 27 23 " clip-rule="nonzero"/></clipPath></defs><g clip-path="url(#00fd027efb)"><path fill="#8899a6" d="M 385.488281 93.25 L 355.15625 123.59375 C 355.15625 123.59375 334.921875 133.703125 314.699219 113.46875 C 294.46875 93.25 304.578125 73.015625 304.578125 73.015625 L 334.921875 42.671875 C 345.042969 32.5625 332.886719 23.289062 323.761719 23.289062 C 278.945312 23.289062 242.628906 59.609375 242.628906 104.410156 C 242.628906 110.707031 243.425781 116.8125 244.777344 122.695312 L 176.199219 191.273438 L 236.875 251.949219 L 305.453125 183.382812 C 311.347656 184.734375 317.445312 185.53125 323.75 185.53125 C 368.550781 185.53125 404.867188 149.214844 404.867188 104.410156 C 404.878906 95.230469 395.597656 83.136719 385.488281 93.25 Z M 175.003906 193.25 L 40.167969 328.078125 C 23.628906 344.628906 23.628906 371.453125 40.167969 388.003906 C 56.726562 404.542969 83.542969 404.542969 100.089844 388.003906 L 234.90625 253.175781 L 175.003906 193.253906 Z M 70.390625 375.492188 C 61.328125 375.492188 53.996094 368.148438 53.996094 359.097656 C 53.996094 350.050781 61.339844 342.691406 70.390625 342.691406 C 79.449219 342.691406 86.785156 350.039062 86.785156 359.097656 C 86.785156 368.148438 79.449219 375.492188 70.390625 375.492188 Z M 70.390625 375.492188 " fill-opacity="1" fill-rule="nonzero"/></g><path fill="#f4900c" d="M 347.6875 391.433594 C 360.585938 404.332031 381.117188 404.941406 393.277344 392.769531 C 405.445312 380.601562 404.835938 360.082031 391.9375 347.183594 L 134.574219 89.820312 C 121.664062 76.910156 101.152344 76.3125 88.984375 88.480469 C 76.816406 100.648438 77.425781 121.171875 90.324219 134.070312 Z M 347.6875 391.433594 " fill-opacity="1" fill-rule="nonzero"/><path fill="#66757f" d="M 243.855469 33.167969 C 243.855469 33.167969 177.484375 -0.015625 122.171875 55.292969 L 44.734375 132.730469 C 44.734375 132.730469 33.671875 121.667969 22.613281 132.730469 L 11.550781 143.792969 C 11.550781 143.792969 0.488281 154.855469 11.550781 165.917969 L 55.796875 210.167969 C 55.796875 210.167969 66.859375 221.226562 77.921875 210.167969 L 88.984375 199.105469 C 88.984375 199.105469 100.046875 188.042969 88.984375 176.980469 L 88.121094 176.117188 C 96.640625 167.898438 109.394531 159.523438 122.171875 165.917969 L 166.421875 121.667969 C 166.421875 121.667969 155.359375 88.480469 177.484375 66.355469 C 199.609375 44.230469 210.671875 44.230469 232.796875 44.230469 C 254.917969 44.230469 243.855469 33.167969 243.855469 33.167969 Z M 243.855469 33.167969 " fill-opacity="1" fill-rule="nonzero"/></svg>