<svg xmlns="http://www.w3.org/2000/svg" xmlns:xlink="http://www.w3.org/1999/xlink" width="540" zoomAndPan="magnify" viewBox="0 0 404.88 404.99999" height="540" preserveAspectRatio="xMidYMid meet" version="1.0"><defs><clipPath id="db32cdc1fb"><path d="M 62.136719 15.027344 L 314 15.027344 L 314 378.667969 L 62.136719 378.667969 Z M 62.136719 15.027344 " clip-rule="nonzero"/></clipPath><clipPath id="a5f4e07de1"><path d="M 62.136719 157 L 290 157 L 290 378.667969 L 62.136719 378.667969 Z M 62.136719 157 " clip-rule="nonzero"/></clipPath><clipPath id="8f6a0de3d2"><path d="M 98 15.027344 L 353.03125 15.027344 L 353.03125 378.667969 L 98 378.667969 Z M 98 15.027344 " clip-rule="nonzero"/></clipPath><clipPath id="8396885961"><path d="M 129 157 L 353.03125 157 L 353.03125 378.667969 L 129 378.667969 Z M 129 157 " clip-rule="nonzero"/></clipPath></defs><g clip-path="url(#db32cdc1fb)"><path stroke-linecap="butt" transform="matrix(8.479986, 0, 0, 8.479986, -198.388497, -444.960569)" fill="none" stroke-linejoin="miter" d="M 35.849785 58.380063 L 45.048834 58.380063 C 45.12484 58.380063 45.199925 58.387433 45.274549 58.402173 C 45.348713 58.416914 45.421034 58.439025 45.491052 58.468046 C 45.56107 58.497066 45.627402 58.532536 45.69051 58.574454 C 45.753619 58.616833 45.81212 58.66474 45.865555 58.718175 C 45.91945 58.77207 45.967357 58.830111 46.009276 58.893219 C 46.051655 58.956328 46.087124 59.023121 46.116145 59.093139 C 46.145166 59.163156 46.166816 59.235477 46.182017 59.309641 C 46.196758 59.384265 46.204128 59.45935 46.204128 59.534896 L 46.204128 94.254973 C 46.204128 94.330979 46.196758 94.406064 46.182017 94.480228 C 46.166816 94.554852 46.145166 94.626712 46.116145 94.697191 C 46.087124 94.767209 46.051655 94.833541 46.009276 94.896649 C 45.967357 94.959758 45.91945 95.018259 45.865555 95.071694 C 45.81212 95.125129 45.753619 95.173035 45.69051 95.215415 C 45.627402 95.257333 45.56107 95.293263 45.491052 95.322284 C 45.421034 95.351304 45.348713 95.372955 45.274549 95.387695 C 45.199925 95.402436 45.12484 95.409806 45.048834 95.409806 L 35.849785 95.409806 C 35.774239 95.409806 35.699154 95.402436 35.62453 95.387695 C 35.550367 95.372955 35.478046 95.351304 35.408028 95.322284 C 35.33801 95.293263 35.271217 95.257333 35.208109 95.215415 C 35.145461 95.173035 35.086959 95.125129 35.033064 95.071694 C 34.979629 95.018259 34.931722 94.959758 34.889804 94.896649 C 34.847425 94.833541 34.811955 94.767209 34.782935 94.697191 C 34.753914 94.626712 34.731803 94.554852 34.717063 94.480228 C 34.702322 94.406064 34.694952 94.330979 34.694952 94.254973 L 34.694952 59.534896 C 34.694952 59.45935 34.702322 59.384265 34.717063 59.309641 C 34.731803 59.235477 34.753914 59.163156 34.782935 59.093139 C 34.811955 59.023121 34.847425 58.956328 34.889804 58.893219 C 34.931722 58.830111 34.979629 58.77207 35.033064 58.718175 C 35.086959 58.66474 35.145461 58.616833 35.208109 58.574454 C 35.271217 58.532536 35.33801 58.497066 35.408028 58.468046 C 35.478046 58.439025 35.550367 58.416914 35.62453 58.402173 C 35.699154 58.387433 35.774239 58.380063 35.849785 58.380063 Z M 35.849785 58.380063 " stroke="#ff6600" stroke-width="2.5" stroke-opacity="1" stroke-miterlimit="4"/></g><path fill="#ffffff" d="M 169.371094 299.046875 C 169.371094 299.742188 169.335938 300.4375 169.269531 301.128906 C 169.203125 301.820312 169.097656 302.503906 168.964844 303.1875 C 168.828125 303.867188 168.660156 304.542969 168.457031 305.207031 C 168.257812 305.871094 168.023438 306.523438 167.757812 307.167969 C 167.492188 307.808594 167.195312 308.4375 166.867188 309.050781 C 166.539062 309.664062 166.183594 310.257812 165.796875 310.835938 C 165.410156 311.414062 164.996094 311.96875 164.554688 312.507812 C 164.113281 313.046875 163.648438 313.558594 163.15625 314.050781 C 162.664062 314.542969 162.152344 315.007812 161.613281 315.449219 C 161.078125 315.890625 160.519531 316.304688 159.941406 316.6875 C 159.363281 317.074219 158.769531 317.433594 158.15625 317.757812 C 157.542969 318.085938 156.914062 318.382812 156.273438 318.648438 C 155.632812 318.914062 154.980469 319.148438 154.3125 319.351562 C 153.648438 319.554688 152.976562 319.722656 152.292969 319.855469 C 151.613281 319.992188 150.925781 320.09375 150.234375 320.164062 C 149.542969 320.230469 148.847656 320.265625 148.15625 320.265625 C 147.460938 320.265625 146.765625 320.230469 146.074219 320.164062 C 145.382812 320.09375 144.695312 319.992188 144.015625 319.855469 C 143.332031 319.722656 142.660156 319.554688 141.996094 319.351562 C 141.332031 319.148438 140.675781 318.914062 140.035156 318.648438 C 139.394531 318.382812 138.765625 318.085938 138.152344 317.757812 C 137.539062 317.433594 136.945312 317.074219 136.367188 316.6875 C 135.789062 316.304688 135.230469 315.890625 134.695312 315.449219 C 134.15625 315.007812 133.644531 314.542969 133.152344 314.050781 C 132.660156 313.558594 132.195312 313.046875 131.753906 312.507812 C 131.3125 311.96875 130.898438 311.414062 130.511719 310.835938 C 130.128906 310.257812 129.769531 309.664062 129.441406 309.050781 C 129.117188 308.4375 128.820312 307.808594 128.550781 307.167969 C 128.285156 306.523438 128.054688 305.871094 127.851562 305.207031 C 127.648438 304.542969 127.480469 303.867188 127.34375 303.1875 C 127.210938 302.503906 127.109375 301.820312 127.039062 301.128906 C 126.972656 300.4375 126.9375 299.742188 126.9375 299.046875 C 126.9375 298.351562 126.972656 297.660156 127.039062 296.96875 C 127.109375 296.277344 127.210938 295.589844 127.34375 294.910156 C 127.480469 294.226562 127.648438 293.554688 127.851562 292.890625 C 128.054688 292.222656 128.285156 291.570312 128.550781 290.929688 C 128.820312 290.285156 129.117188 289.660156 129.441406 289.046875 C 129.769531 288.433594 130.128906 287.839844 130.511719 287.261719 C 130.898438 286.683594 131.3125 286.125 131.753906 285.589844 C 132.195312 285.050781 132.660156 284.535156 133.152344 284.046875 C 133.644531 283.554688 134.15625 283.089844 134.695312 282.648438 C 135.230469 282.207031 135.789062 281.792969 136.367188 281.40625 C 136.945312 281.019531 137.539062 280.664062 138.152344 280.335938 C 138.765625 280.007812 139.394531 279.710938 140.035156 279.445312 C 140.675781 279.179688 141.332031 278.945312 141.996094 278.746094 C 142.660156 278.542969 143.332031 278.375 144.015625 278.238281 C 144.695312 278.101562 145.382812 278 146.074219 277.933594 C 146.765625 277.863281 147.460938 277.832031 148.15625 277.832031 C 148.847656 277.832031 149.542969 277.863281 150.234375 277.933594 C 150.925781 278 151.613281 278.101562 152.292969 278.238281 C 152.976562 278.375 153.648438 278.542969 154.3125 278.746094 C 154.980469 278.945312 155.632812 279.179688 156.273438 279.445312 C 156.914062 279.710938 157.542969 280.007812 158.15625 280.335938 C 158.769531 280.664062 159.363281 281.019531 159.941406 281.40625 C 160.519531 281.792969 161.078125 282.207031 161.613281 282.648438 C 162.152344 283.089844 162.664062 283.554688 163.15625 284.046875 C 163.648438 284.535156 164.113281 285.050781 164.554688 285.589844 C 164.996094 286.125 165.410156 286.683594 165.796875 287.261719 C 166.183594 287.839844 166.539062 288.433594 166.867188 289.046875 C 167.195312 289.660156 167.492188 290.285156 167.757812 290.929688 C 168.023438 291.570312 168.257812 292.222656 168.457031 292.890625 C 168.660156 293.554688 168.828125 294.226562 168.964844 294.910156 C 169.097656 295.589844 169.203125 296.277344 169.269531 296.96875 C 169.335938 297.660156 169.371094 298.351562 169.371094 299.046875 Z M 169.371094 299.046875 " fill-opacity="1" fill-rule="nonzero"/><g clip-path="url(#a5f4e07de1)"><path stroke-linecap="butt" transform="matrix(8.479986, 0, 0, 8.479986, -198.388497, -444.960569)" fill="none" stroke-linejoin="miter" d="M 43.367946 87.736869 C 43.367946 87.818863 43.363801 87.900858 43.35597 87.982391 C 43.348139 88.063925 43.335701 88.144538 43.320039 88.225151 C 43.303917 88.305303 43.284109 88.384994 43.260156 88.463303 C 43.236663 88.541613 43.209024 88.61854 43.177701 88.694546 C 43.146377 88.770092 43.111368 88.844255 43.072674 88.916576 C 43.03398 88.988897 42.992061 89.058915 42.946458 89.12709 C 42.900854 89.195266 42.852026 89.260677 42.799973 89.324246 C 42.74792 89.387815 42.693104 89.448159 42.635063 89.5062 C 42.577022 89.564241 42.516677 89.619058 42.453108 89.67111 C 42.39 89.723163 42.324128 89.771991 42.255953 89.817134 C 42.187778 89.862738 42.11776 89.905117 42.045439 89.943351 C 41.973118 89.982045 41.898954 90.017054 41.823409 90.048377 C 41.747863 90.079701 41.670936 90.10734 41.592166 90.131293 C 41.513856 90.155247 41.434626 90.175054 41.354013 90.190716 C 41.273861 90.206839 41.192788 90.218815 41.111254 90.227107 C 41.02972 90.234938 40.947726 90.239084 40.866192 90.239084 C 40.784197 90.239084 40.702203 90.234938 40.620669 90.227107 C 40.539135 90.218815 40.458062 90.206839 40.37791 90.190716 C 40.297297 90.175054 40.218067 90.155247 40.139757 90.131293 C 40.061448 90.10734 39.98406 90.079701 39.908514 90.048377 C 39.832969 90.017054 39.758805 89.982045 39.686484 89.943351 C 39.614163 89.905117 39.544145 89.862738 39.47597 89.817134 C 39.407795 89.771991 39.341923 89.723163 39.278815 89.67111 C 39.215246 89.619058 39.154901 89.564241 39.09686 89.5062 C 39.038819 89.448159 38.984003 89.387815 38.93195 89.324246 C 38.879897 89.260677 38.831069 89.195266 38.785465 89.12709 C 38.740322 89.058915 38.697943 88.988897 38.659249 88.916576 C 38.621016 88.844255 38.586007 88.770092 38.554222 88.694546 C 38.522899 88.61854 38.495721 88.541613 38.471767 88.463303 C 38.447814 88.384994 38.428006 88.305303 38.411884 88.225151 C 38.396222 88.144538 38.384245 88.063925 38.375953 87.982391 C 38.368122 87.900858 38.363977 87.818863 38.363977 87.736869 C 38.363977 87.654874 38.368122 87.57334 38.375953 87.491806 C 38.384245 87.410272 38.396222 87.329199 38.411884 87.249047 C 38.428006 87.168435 38.447814 87.089204 38.471767 87.010894 C 38.495721 86.932124 38.522899 86.855197 38.554222 86.779651 C 38.586007 86.703645 38.621016 86.629942 38.659249 86.557621 C 38.697943 86.4853 38.740322 86.415283 38.785465 86.347107 C 38.831069 86.278932 38.879897 86.21306 38.93195 86.149952 C 38.984003 86.086383 39.038819 86.025578 39.09686 85.967998 C 39.154901 85.909957 39.215246 85.85514 39.278815 85.803087 C 39.341923 85.751035 39.407795 85.702207 39.47597 85.656603 C 39.544145 85.610999 39.614163 85.569081 39.686484 85.530387 C 39.758805 85.491692 39.832969 85.456684 39.908514 85.42536 C 39.98406 85.394036 40.061448 85.366397 40.139757 85.342905 C 40.218067 85.318951 40.297297 85.299144 40.37791 85.283021 C 40.458062 85.266898 40.539135 85.254922 40.620669 85.247091 C 40.702203 85.238799 40.784197 85.235114 40.866192 85.235114 C 40.947726 85.235114 41.02972 85.238799 41.111254 85.247091 C 41.192788 85.254922 41.273861 85.266898 41.354013 85.283021 C 41.434626 85.299144 41.513856 85.318951 41.592166 85.342905 C 41.670936 85.366397 41.747863 85.394036 41.823409 85.42536 C 41.898954 85.456684 41.973118 85.491692 42.045439 85.530387 C 42.11776 85.569081 42.187778 85.610999 42.255953 85.656603 C 42.324128 85.702207 42.39 85.751035 42.453108 85.803087 C 42.516677 85.85514 42.577022 85.909957 42.635063 85.967998 C 42.693104 86.025578 42.74792 86.086383 42.799973 86.149952 C 42.852026 86.21306 42.900854 86.278932 42.946458 86.347107 C 42.992061 86.415283 43.03398 86.4853 43.072674 86.557621 C 43.111368 86.629942 43.146377 86.703645 43.177701 86.779651 C 43.209024 86.855197 43.236663 86.932124 43.260156 87.010894 C 43.284109 87.089204 43.303917 87.168435 43.320039 87.249047 C 43.335701 87.329199 43.348139 87.410272 43.35597 87.491806 C 43.363801 87.57334 43.367946 87.654874 43.367946 87.736869 Z M 43.367946 87.736869 " stroke="#ff6600" stroke-width="2.5" stroke-opacity="1" stroke-miterlimit="4"/></g><g clip-path="url(#8f6a0de3d2)"><path stroke-linecap="butt" transform="matrix(8.479986, 0, 0, 8.479986, -75.581287, -444.960569)" fill="none" stroke-linejoin="miter" d="M 35.849948 58.380063 L 45.048997 58.380063 C 45.125003 58.380063 45.200088 58.387433 45.274252 58.402173 C 45.348876 58.416914 45.420737 58.439025 45.491215 58.468046 C 45.561233 58.497066 45.627565 58.532536 45.690674 58.574454 C 45.753782 58.616833 45.812283 58.66474 45.865718 58.718175 C 45.919153 58.77207 45.96706 58.830111 46.009439 58.893219 C 46.051357 58.956328 46.086827 59.023121 46.115848 59.093139 C 46.144868 59.163156 46.166979 59.235477 46.18172 59.309641 C 46.19646 59.384265 46.20383 59.45935 46.20383 59.534896 L 46.20383 94.254973 C 46.20383 94.330979 46.19646 94.406064 46.18172 94.480228 C 46.166979 94.554852 46.144868 94.626712 46.115848 94.697191 C 46.086827 94.767209 46.051357 94.833541 46.009439 94.896649 C 45.96706 94.959758 45.919153 95.018259 45.865718 95.071694 C 45.812283 95.125129 45.753782 95.173035 45.690674 95.215415 C 45.627565 95.257333 45.561233 95.293263 45.491215 95.322284 C 45.420737 95.351304 45.348876 95.372955 45.274252 95.387695 C 45.200088 95.402436 45.125003 95.409806 45.048997 95.409806 L 35.849948 95.409806 C 35.773942 95.409806 35.698857 95.402436 35.624693 95.387695 C 35.550069 95.372955 35.478209 95.351304 35.408191 95.322284 C 35.337712 95.293263 35.27138 95.257333 35.208272 95.215415 C 35.145164 95.173035 35.087122 95.125129 35.033227 95.071694 C 34.979793 95.018259 34.931886 94.959758 34.889506 94.896649 C 34.847588 94.833541 34.812118 94.767209 34.783098 94.697191 C 34.754077 94.626712 34.731966 94.554852 34.717226 94.480228 C 34.702485 94.406064 34.695115 94.330979 34.695115 94.254973 L 34.695115 59.534896 C 34.695115 59.45935 34.702485 59.384265 34.717226 59.309641 C 34.731966 59.235477 34.754077 59.163156 34.783098 59.093139 C 34.812118 59.023121 34.847588 58.956328 34.889506 58.893219 C 34.931886 58.830111 34.979793 58.77207 35.033227 58.718175 C 35.087122 58.66474 35.145164 58.616833 35.208272 58.574454 C 35.27138 58.532536 35.337712 58.497066 35.408191 58.468046 C 35.478209 58.439025 35.550069 58.416914 35.624693 58.402173 C 35.698857 58.387433 35.773942 58.380063 35.849948 58.380063 Z M 35.849948 58.380063 " stroke="#ff6600" stroke-width="2.5" stroke-opacity="1" stroke-miterlimit="4"/></g><path fill="#ffffff" d="M 292.179688 299.046875 C 292.179688 299.742188 292.144531 300.4375 292.078125 301.128906 C 292.007812 301.820312 291.90625 302.503906 291.769531 303.1875 C 291.636719 303.867188 291.46875 304.542969 291.265625 305.207031 C 291.0625 305.871094 290.828125 306.523438 290.5625 307.167969 C 290.296875 307.808594 290 308.4375 289.671875 309.050781 C 289.347656 309.664062 288.988281 310.257812 288.601562 310.835938 C 288.21875 311.414062 287.804688 311.96875 287.363281 312.507812 C 286.921875 313.046875 286.457031 313.558594 285.964844 314.050781 C 285.472656 314.542969 284.957031 315.007812 284.421875 315.449219 C 283.882812 315.890625 283.328125 316.304688 282.75 316.6875 C 282.171875 317.074219 281.578125 317.433594 280.964844 317.757812 C 280.351562 318.085938 279.722656 318.382812 279.082031 318.648438 C 278.4375 318.914062 277.785156 319.148438 277.121094 319.351562 C 276.457031 319.554688 275.78125 319.722656 275.101562 319.855469 C 274.417969 319.992188 273.734375 320.09375 273.042969 320.164062 C 272.351562 320.230469 271.65625 320.265625 270.960938 320.265625 C 270.265625 320.265625 269.574219 320.230469 268.882812 320.164062 C 268.191406 320.09375 267.503906 319.992188 266.824219 319.855469 C 266.140625 319.722656 265.46875 319.554688 264.804688 319.351562 C 264.136719 319.148438 263.484375 318.914062 262.84375 318.648438 C 262.199219 318.382812 261.574219 318.085938 260.960938 317.757812 C 260.347656 317.433594 259.753906 317.074219 259.175781 316.6875 C 258.597656 316.304688 258.039062 315.890625 257.5 315.449219 C 256.964844 315.007812 256.449219 314.542969 255.960938 314.050781 C 255.46875 313.558594 255 313.046875 254.5625 312.507812 C 254.121094 311.96875 253.707031 311.414062 253.320312 310.835938 C 252.933594 310.257812 252.578125 309.664062 252.25 309.050781 C 251.921875 308.4375 251.625 307.808594 251.359375 307.167969 C 251.09375 306.523438 250.859375 305.871094 250.660156 305.207031 C 250.457031 304.542969 250.289062 303.867188 250.152344 303.1875 C 250.015625 302.503906 249.914062 301.820312 249.847656 301.128906 C 249.777344 300.4375 249.746094 299.742188 249.746094 299.046875 C 249.746094 298.351562 249.777344 297.660156 249.847656 296.96875 C 249.914062 296.277344 250.015625 295.589844 250.152344 294.910156 C 250.289062 294.226562 250.457031 293.554688 250.660156 292.890625 C 250.859375 292.222656 251.09375 291.570312 251.359375 290.929688 C 251.625 290.285156 251.921875 289.660156 252.25 289.046875 C 252.578125 288.433594 252.933594 287.839844 253.320312 287.261719 C 253.707031 286.683594 254.121094 286.125 254.5625 285.589844 C 255 285.050781 255.46875 284.535156 255.960938 284.046875 C 256.449219 283.554688 256.964844 283.089844 257.5 282.648438 C 258.039062 282.207031 258.597656 281.792969 259.175781 281.40625 C 259.753906 281.019531 260.347656 280.664062 260.960938 280.335938 C 261.574219 280.007812 262.199219 279.710938 262.84375 279.445312 C 263.484375 279.179688 264.136719 278.945312 264.804688 278.746094 C 265.46875 278.542969 266.140625 278.375 266.824219 278.238281 C 267.503906 278.101562 268.191406 278 268.882812 277.933594 C 269.574219 277.863281 270.265625 277.832031 270.960938 277.832031 C 271.65625 277.832031 272.351562 277.863281 273.042969 277.933594 C 273.734375 278 274.417969 278.101562 275.101562 278.238281 C 275.78125 278.375 276.457031 278.542969 277.121094 278.746094 C 277.785156 278.945312 278.4375 279.179688 279.082031 279.445312 C 279.722656 279.710938 280.351562 280.007812 280.964844 280.335938 C 281.578125 280.664062 282.171875 281.019531 282.75 281.40625 C 283.328125 281.792969 283.882812 282.207031 284.421875 282.648438 C 284.957031 283.089844 285.472656 283.554688 285.964844 284.046875 C 286.457031 284.535156 286.921875 285.050781 287.363281 285.589844 C 287.804688 286.125 288.21875 286.683594 288.601562 287.261719 C 288.988281 287.839844 289.347656 288.433594 289.671875 289.046875 C 290 289.660156 290.296875 290.285156 290.5625 290.929688 C 290.828125 291.570312 291.0625 292.222656 291.265625 292.890625 C 291.46875 293.554688 291.636719 294.226562 291.769531 294.910156 C 291.90625 295.589844 292.007812 296.277344 292.078125 296.96875 C 292.144531 297.660156 292.179688 298.351562 292.179688 299.046875 Z M 292.179688 299.046875 " fill-opacity="1" fill-rule="nonzero"/><g clip-path="url(#8396885961)"><path stroke-linecap="butt" transform="matrix(8.479986, 0, 0, 8.479986, -75.581287, -444.960569)" fill="none" stroke-linejoin="miter" d="M 43.368109 87.736869 C 43.368109 87.818863 43.363964 87.900858 43.356133 87.982391 C 43.347841 88.063925 43.335864 88.144538 43.319742 88.225151 C 43.30408 88.305303 43.284272 88.384994 43.260319 88.463303 C 43.236365 88.541613 43.208727 88.61854 43.177403 88.694546 C 43.146079 88.770092 43.11107 88.844255 43.072376 88.916576 C 43.034143 88.988897 42.991764 89.058915 42.94616 89.12709 C 42.901017 89.195266 42.852189 89.260677 42.800136 89.324246 C 42.748083 89.387815 42.693267 89.448159 42.635226 89.5062 C 42.577185 89.564241 42.51638 89.619058 42.453272 89.67111 C 42.389703 89.723163 42.324291 89.771991 42.256116 89.817134 C 42.187941 89.862738 42.117923 89.905117 42.045602 89.943351 C 41.973281 89.982045 41.899118 90.017054 41.823572 90.048377 C 41.747566 90.079701 41.670638 90.10734 41.592329 90.131293 C 41.51402 90.155247 41.434328 90.175054 41.354176 90.190716 C 41.273564 90.206839 41.192951 90.218815 41.111417 90.227107 C 41.029883 90.234938 40.947889 90.239084 40.865894 90.239084 C 40.7839 90.239084 40.702366 90.234938 40.620832 90.227107 C 40.539298 90.218815 40.458225 90.206839 40.378073 90.190716 C 40.29746 90.175054 40.21823 90.155247 40.13992 90.131293 C 40.06115 90.10734 39.984223 90.079701 39.908677 90.048377 C 39.832671 90.017054 39.758968 89.982045 39.686647 89.943351 C 39.614326 89.905117 39.544308 89.862738 39.476133 89.817134 C 39.407958 89.771991 39.342086 89.723163 39.278517 89.67111 C 39.215409 89.619058 39.154604 89.564241 39.097024 89.5062 C 39.038982 89.448159 38.983705 89.387815 38.932113 89.324246 C 38.88006 89.260677 38.831232 89.195266 38.785629 89.12709 C 38.740025 89.058915 38.698106 88.988897 38.659412 88.916576 C 38.620718 88.844255 38.585709 88.770092 38.554386 88.694546 C 38.523062 88.61854 38.495423 88.541613 38.47193 88.463303 C 38.447977 88.384994 38.428169 88.305303 38.412047 88.225151 C 38.395924 88.144538 38.383948 88.063925 38.376117 87.982391 C 38.367825 87.900858 38.36414 87.818863 38.36414 87.736869 C 38.36414 87.654874 38.367825 87.57334 38.376117 87.491806 C 38.383948 87.410272 38.395924 87.329199 38.412047 87.249047 C 38.428169 87.168435 38.447977 87.089204 38.47193 87.010894 C 38.495423 86.932124 38.523062 86.855197 38.554386 86.779651 C 38.585709 86.703645 38.620718 86.629942 38.659412 86.557621 C 38.698106 86.4853 38.740025 86.415283 38.785629 86.347107 C 38.831232 86.278932 38.88006 86.21306 38.932113 86.149952 C 38.983705 86.086383 39.038982 86.025578 39.097024 85.967998 C 39.154604 85.909957 39.215409 85.85514 39.278517 85.803087 C 39.342086 85.751035 39.407958 85.702207 39.476133 85.656603 C 39.544308 85.610999 39.614326 85.569081 39.686647 85.530387 C 39.758968 85.491692 39.832671 85.456684 39.908677 85.42536 C 39.984223 85.394036 40.06115 85.366397 40.13992 85.342905 C 40.21823 85.318951 40.29746 85.299144 40.378073 85.283021 C 40.458225 85.266898 40.539298 85.254922 40.620832 85.247091 C 40.702366 85.238799 40.7839 85.235114 40.865894 85.235114 C 40.947889 85.235114 41.029883 85.238799 41.111417 85.247091 C 41.192951 85.254922 41.273564 85.266898 41.354176 85.283021 C 41.434328 85.299144 41.51402 85.318951 41.592329 85.342905 C 41.670638 85.366397 41.747566 85.394036 41.823572 85.42536 C 41.899118 85.456684 41.973281 85.491692 42.045602 85.530387 C 42.117923 85.569081 42.187941 85.610999 42.256116 85.656603 C 42.324291 85.702207 42.389703 85.751035 42.453272 85.803087 C 42.51638 85.85514 42.577185 85.909957 42.635226 85.967998 C 42.693267 86.025578 42.748083 86.086383 42.800136 86.149952 C 42.852189 86.21306 42.901017 86.278932 42.94616 86.347107 C 42.991764 86.415283 43.034143 86.4853 43.072376 86.557621 C 43.11107 86.629942 43.146079 86.703645 43.177403 86.779651 C 43.208727 86.855197 43.236365 86.932124 43.260319 87.010894 C 43.284272 87.089204 43.30408 87.168435 43.319742 87.249047 C 43.335864 87.329199 43.347841 87.410272 43.356133 87.491806 C 43.363964 87.57334 43.368109 87.654874 43.368109 87.736869 Z M 43.368109 87.736869 " stroke="#ff6600" stroke-width="2.5" stroke-opacity="1" stroke-miterlimit="4"/></g></svg>