<svg xmlns="http://www.w3.org/2000/svg" xmlns:xlink="http://www.w3.org/1999/xlink" width="540" zoomAndPan="magnify" viewBox="0 0 404.88 404.99999" height="540" preserveAspectRatio="xMidYMid meet" version="1.0"><defs><clipPath id="92ecac0ece"><path d="M 45.957031 6 L 373.609375 6 L 373.609375 399 L 45.957031 399 Z M 45.957031 6 " clip-rule="nonzero"/></clipPath></defs><path fill="#b29576" d="M 360.261719 112.296875 L 309.46875 71.898438 C 304.679688 68.070312 298.742188 65.988281 292.617188 65.988281 L 226.09375 65.988281 L 226.09375 9.851562 L 155.464844 9.851562 L 155.464844 65.988281 L 77.125 65.988281 C 61.613281 65.988281 49.054688 78.582031 49.054688 94.070312 L 49.054688 367.4375 C 49.054688 382.925781 61.613281 395.492188 77.125 395.492188 L 342.417969 395.492188 C 357.929688 395.492188 370.492188 382.925781 370.492188 367.4375 L 370.492188 133.503906 C 370.492188 125.234375 366.730469 117.425781 360.261719 112.296875 Z M 360.261719 112.296875 " fill-opacity="1" fill-rule="nonzero"/><path fill="#655f68" d="M 133.425781 150.984375 L 143.183594 162.117188 L 94.222656 162.117188 L 94.222656 65.988281 L 105.105469 65.988281 L 105.105469 136.367188 C 105.105469 144.421875 111.632812 150.984375 119.683594 150.984375 Z M 133.425781 150.984375 " fill-opacity="1" fill-rule="nonzero"/><path fill="#655f68" d="M 282.390625 65.988281 L 282.390625 162.117188 L 238.371094 162.117188 L 248.132812 150.984375 L 256.898438 150.984375 C 264.984375 150.984375 271.511719 144.421875 271.511719 136.367188 L 271.511719 65.988281 Z M 282.390625 65.988281 " fill-opacity="1" fill-rule="nonzero"/><path fill="#655f68" d="M 226.09375 87.664062 L 253.109375 87.664062 L 253.109375 109.402344 L 226.09375 109.402344 Z M 226.09375 87.664062 " fill-opacity="1" fill-rule="nonzero"/><path fill="#e7f2f1" d="M 256.898438 150.984375 L 248.132812 150.984375 L 251.023438 147.6875 C 253.792969 144.546875 251.554688 139.601562 247.355469 139.601562 L 226.09375 139.601562 L 226.09375 109.402344 L 253.109375 109.402344 L 253.109375 87.664062 L 226.09375 87.664062 L 226.09375 65.988281 L 271.511719 65.988281 L 271.511719 136.367188 C 271.511719 144.421875 264.984375 150.984375 256.898438 150.984375 Z M 256.898438 150.984375 " fill-opacity="1" fill-rule="nonzero"/><path fill="#e7f2f1" d="M 155.464844 65.988281 L 155.464844 139.601562 L 134.199219 139.601562 C 130.003906 139.601562 127.765625 144.546875 130.53125 147.6875 L 133.425781 150.984375 L 119.683594 150.984375 C 111.632812 150.984375 105.105469 144.421875 105.105469 136.367188 L 105.105469 65.988281 Z M 155.464844 65.988281 " fill-opacity="1" fill-rule="nonzero"/><path fill="#e7f2f1" d="M 350.316406 273.859375 L 350.316406 354.097656 C 350.316406 365.292969 341.238281 374.375 330.046875 374.375 L 89.5 374.375 C 78.308594 374.375 69.230469 365.292969 69.230469 354.097656 L 69.230469 273.859375 C 69.230469 262.664062 78.308594 253.582031 89.5 253.582031 L 330.046875 253.582031 C 341.238281 253.582031 350.316406 262.664062 350.316406 273.859375 Z M 350.316406 273.859375 " fill-opacity="1" fill-rule="nonzero"/><path fill="#6fceae" d="M 247.355469 139.601562 C 251.554688 139.601562 253.792969 144.546875 251.023438 147.6875 L 248.132812 150.984375 L 238.371094 162.117188 L 238.339844 162.117188 L 194.445312 212.1875 C 192.488281 214.398438 189.070312 214.398438 187.109375 212.1875 L 143.214844 162.117188 L 143.183594 162.117188 L 133.425781 150.984375 L 130.53125 147.6875 C 127.765625 144.546875 130.003906 139.601562 134.199219 139.601562 L 155.464844 139.601562 L 155.464844 9.851562 L 226.09375 9.851562 L 226.09375 139.601562 Z M 247.355469 139.601562 " fill-opacity="1" fill-rule="nonzero"/><path fill="#d6eae8" d="M 238.746094 287.574219 C 247.078125 277.558594 254.910156 266.269531 262.058594 253.582031 L 330.046875 253.582031 C 341.238281 253.582031 350.316406 262.664062 350.316406 273.859375 L 350.316406 354.097656 C 350.316406 365.292969 341.238281 374.375 330.046875 374.375 L 89.5 374.375 C 83.40625 374.375 77.964844 371.699219 74.265625 367.4375 C 95.964844 366.132812 129.101562 361.25 163.515625 345.328125 C 177.289062 338.921875 191.277344 330.773438 204.800781 320.355469 C 216.613281 311.273438 228.082031 300.449219 238.746094 287.574219 Z M 238.746094 287.574219 " fill-opacity="1" fill-rule="nonzero"/><path fill="#a3876d" d="M 370.492188 133.503906 L 370.492188 367.4375 C 370.492188 382.925781 357.929688 395.492188 342.417969 395.492188 L 77.125 395.492188 C 61.613281 395.492188 49.054688 382.925781 49.054688 367.4375 C 49.054688 367.4375 58.722656 368.339844 74.265625 367.4375 C 77.964844 371.699219 83.40625 374.375 89.5 374.375 L 330.046875 374.375 C 341.238281 374.375 350.316406 365.292969 350.316406 354.097656 L 350.316406 273.859375 C 350.316406 262.664062 341.238281 253.582031 330.046875 253.582031 L 262.058594 253.582031 C 286.585938 210.167969 303.03125 150.394531 303.03125 68.101562 C 305.332031 69.035156 307.507812 70.3125 309.46875 71.898438 L 360.261719 112.296875 C 366.730469 117.425781 370.492188 125.234375 370.492188 133.503906 Z M 370.492188 133.503906 " fill-opacity="1" fill-rule="nonzero"/><g clip-path="url(#92ecac0ece)"><path fill="#3a322b" d="M 362.199219 109.867188 L 311.417969 69.457031 C 306.105469 65.222656 299.4375 62.894531 292.636719 62.894531 L 229.214844 62.894531 L 229.214844 9.851562 C 229.214844 8.136719 227.824219 6.742188 226.105469 6.742188 L 155.457031 6.742188 C 153.738281 6.742188 152.347656 8.136719 152.347656 9.851562 L 152.347656 62.894531 L 77.121094 62.894531 C 59.933594 62.894531 45.957031 76.878906 45.957031 94.070312 L 45.957031 367.425781 C 45.957031 384.617188 59.933594 398.601562 77.117188 398.601562 L 342.429688 398.601562 C 359.609375 398.601562 373.589844 384.617188 373.589844 367.421875 L 373.589844 133.488281 C 373.59375 124.238281 369.441406 115.625 362.199219 109.867188 Z M 249.542969 154.085938 L 256.914062 154.085938 C 266.683594 154.085938 274.625 146.136719 274.625 136.371094 L 274.625 69.113281 L 279.292969 69.113281 L 279.292969 159.023438 L 245.214844 159.023438 Z M 268.410156 69.113281 L 268.410156 136.371094 C 268.410156 142.710938 263.253906 147.867188 256.914062 147.867188 L 254.582031 147.867188 C 255.574219 145.785156 255.625 143.375 254.628906 141.179688 C 253.320312 138.292969 250.539062 136.496094 247.367188 136.496094 L 229.214844 136.496094 L 229.214844 112.503906 L 253.109375 112.503906 C 254.828125 112.503906 256.21875 111.109375 256.21875 109.394531 L 256.21875 87.683594 C 256.21875 85.964844 254.828125 84.574219 253.109375 84.574219 L 229.214844 84.574219 L 229.214844 69.117188 L 268.410156 69.117188 Z M 229.214844 90.785156 L 250 90.785156 L 250 106.277344 L 229.214844 106.277344 Z M 158.566406 12.960938 L 223 12.960938 L 223 139.601562 C 223 141.316406 224.390625 142.710938 226.109375 142.710938 L 247.367188 142.710938 C 248.390625 142.710938 248.828125 143.433594 248.96875 143.742188 C 249.109375 144.054688 249.363281 144.855469 248.691406 145.625 L 192.101562 210.140625 C 191.644531 210.660156 191.082031 210.734375 190.78125 210.734375 C 190.484375 210.734375 189.917969 210.660156 189.460938 210.140625 L 132.875 145.632812 C 132.203125 144.863281 132.453125 144.0625 132.597656 143.75 C 132.738281 143.4375 133.175781 142.71875 134.199219 142.71875 L 155.457031 142.71875 C 157.175781 142.71875 158.566406 141.324219 158.566406 139.605469 Z M 152.347656 69.113281 L 152.347656 136.496094 L 134.199219 136.496094 C 131.023438 136.496094 128.242188 138.296875 126.933594 141.183594 C 125.941406 143.375 125.992188 145.789062 126.984375 147.867188 L 119.695312 147.867188 C 113.359375 147.867188 108.207031 142.707031 108.207031 136.371094 L 108.207031 69.113281 Z M 101.984375 69.113281 L 101.984375 136.371094 C 101.984375 146.140625 109.933594 154.085938 119.691406 154.085938 L 132.019531 154.085938 L 136.347656 159.019531 L 97.316406 159.019531 L 97.316406 69.109375 L 101.984375 69.109375 Z M 367.375 367.421875 C 367.375 381.183594 356.183594 392.382812 342.433594 392.382812 L 77.117188 392.382812 C 63.363281 392.382812 52.171875 381.183594 52.171875 367.421875 L 52.171875 94.070312 C 52.171875 80.308594 63.363281 69.113281 77.117188 69.113281 L 91.097656 69.113281 L 91.097656 162.132812 C 91.097656 163.851562 92.488281 165.242188 94.207031 165.242188 L 141.800781 165.242188 L 184.789062 214.242188 C 186.300781 215.96875 188.484375 216.960938 190.78125 216.960938 L 190.785156 216.960938 C 193.078125 216.960938 195.261719 215.96875 196.773438 214.242188 L 239.757812 165.242188 L 282.398438 165.242188 C 284.121094 165.242188 285.507812 163.851562 285.507812 162.132812 L 285.507812 69.113281 L 292.636719 69.113281 C 298.03125 69.113281 303.324219 70.964844 307.550781 74.324219 L 358.332031 114.734375 C 364.082031 119.308594 367.375 126.144531 367.375 133.488281 Z M 367.375 367.421875 " fill-opacity="1" fill-rule="nonzero"/></g><path fill="#3a322b" d="M 330.050781 250.460938 L 89.5 250.460938 C 76.605469 250.460938 66.117188 260.953125 66.117188 273.851562 L 66.117188 354.105469 C 66.117188 367.003906 76.605469 377.496094 89.5 377.496094 L 330.050781 377.496094 C 342.941406 377.496094 353.429688 367.003906 353.429688 354.105469 L 353.429688 273.851562 C 353.429688 260.953125 342.941406 250.460938 330.050781 250.460938 Z M 347.210938 354.105469 C 347.210938 363.574219 339.511719 371.277344 330.050781 371.277344 L 89.5 371.277344 C 80.03125 371.277344 72.335938 363.574219 72.335938 354.105469 L 72.335938 273.851562 C 72.335938 264.382812 80.035156 256.679688 89.5 256.679688 L 330.050781 256.679688 C 339.515625 256.679688 347.210938 264.382812 347.210938 273.851562 Z M 347.210938 354.105469 " fill-opacity="1" fill-rule="nonzero"/><path fill="#3a322b" d="M 318.980469 284.472656 L 100.566406 284.472656 C 98.847656 284.472656 97.457031 285.867188 97.457031 287.585938 C 97.457031 289.300781 98.847656 290.695312 100.566406 290.695312 L 318.980469 290.695312 C 320.699219 290.695312 322.089844 289.300781 322.089844 287.585938 C 322.089844 285.867188 320.699219 284.472656 318.980469 284.472656 Z M 318.980469 284.472656 " fill-opacity="1" fill-rule="nonzero"/><path fill="#3a322b" d="M 318.980469 317.25 L 100.566406 317.25 C 98.847656 317.25 97.457031 318.644531 97.457031 320.359375 C 97.457031 322.078125 98.847656 323.46875 100.566406 323.46875 L 318.980469 323.46875 C 320.699219 323.46875 322.089844 322.078125 322.089844 320.359375 C 322.089844 318.644531 320.699219 317.25 318.980469 317.25 Z M 318.980469 317.25 " fill-opacity="1" fill-rule="nonzero"/><path fill="#3a322b" d="M 267.402344 342.222656 L 152.140625 342.222656 C 150.421875 342.222656 149.03125 343.617188 149.03125 345.332031 C 149.03125 347.050781 150.421875 348.445312 152.140625 348.445312 L 267.402344 348.445312 C 269.125 348.445312 270.511719 347.050781 270.511719 345.332031 C 270.511719 343.617188 269.125 342.222656 267.402344 342.222656 Z M 267.402344 342.222656 " fill-opacity="1" fill-rule="nonzero"/></svg>