<svg xmlns="http://www.w3.org/2000/svg" xmlns:xlink="http://www.w3.org/1999/xlink" width="540" zoomAndPan="magnify" viewBox="0 0 404.88 404.99999" height="540" preserveAspectRatio="xMidYMid meet" version="1.0"><defs><filter x="0%" y="0%" width="100%" height="100%" id="a4a549c992"><feColorMatrix values="0 0 0 0 1 0 0 0 0 1 0 0 0 0 1 0 0 0 1 0" color-interpolation-filters="sRGB"/></filter><clipPath id="ab9b7f9f66"><path d="M 0 0.0585938 L 404.761719 0.0585938 L 404.761719 404.9375 L 0 404.9375 Z M 0 0.0585938 " clip-rule="nonzero"/></clipPath><mask id="0df4a1f1f5"><g filter="url(#a4a549c992)"><rect x="-40.488" width="485.856" fill="#000000" y="-40.499999" height="485.999988" fill-opacity="0.6275"/></g></mask><clipPath id="62821ed690"><rect x="0" width="405" y="0" height="405"/></clipPath><clipPath id="e7ed054de3"><path d="M 89 0.0585938 L 317 0.0585938 L 317 51 L 89 51 Z M 89 0.0585938 " clip-rule="nonzero"/></clipPath></defs><g clip-path="url(#ab9b7f9f66)"><g mask="url(#0df4a1f1f5)"><g transform="matrix(1, 0, 0, 1, 0, 0.000000000000001117)"><g clip-path="url(#62821ed690)"><path fill="#fefe33" d="M 383.496094 153.984375 C 392.425781 187.300781 392.425781 217.699219 383.496094 251.015625 L 365.378906 261.988281 L 202.441406 202.5 L 367.542969 144.09375 Z M 383.496094 153.984375 " fill-opacity="1" fill-rule="nonzero"/><path fill="#fb9902" d="M 250.953125 21.441406 C 284.269531 30.371094 310.59375 45.570312 334.984375 69.957031 L 335.449219 88.605469 L 202.441406 202.5 L 234.730469 30.433594 Z M 250.953125 21.441406 " fill-opacity="1" fill-rule="nonzero"/><path fill="#fabc02" d="M 334.984375 69.957031 C 359.371094 94.34375 374.570312 120.671875 383.496094 153.984375 L 202.441406 202.5 Z M 334.984375 69.957031 " fill-opacity="1" fill-rule="nonzero"/><path fill="#fe2712" d="M 69.898438 69.957031 C 94.285156 45.570312 120.609375 30.371094 153.925781 21.441406 L 173.351562 33.425781 L 202.441406 202.5 L 69.535156 90.074219 Z M 69.898438 69.957031 " fill-opacity="1" fill-rule="nonzero"/><path fill="#fd5308" d="M 153.925781 21.441406 C 187.242188 12.515625 217.640625 12.515625 250.953125 21.441406 L 202.441406 202.5 Z M 153.925781 21.441406 " fill-opacity="1" fill-rule="nonzero"/><path fill="#8601af" d="M 21.382812 251.015625 C 12.457031 217.699219 12.457031 187.300781 21.382812 153.984375 L 42.222656 139.988281 L 202.441406 202.5 L 41.878906 262.035156 Z M 21.382812 251.015625 " fill-opacity="1" fill-rule="nonzero"/><path fill="#a7194b" d="M 21.382812 153.984375 C 30.308594 120.671875 45.507812 94.34375 69.898438 69.957031 L 202.441406 202.5 Z M 21.382812 153.984375 " fill-opacity="1" fill-rule="nonzero"/><path fill="#0247fe" d="M 153.925781 383.558594 C 120.609375 374.628906 94.285156 359.429688 69.898438 335.042969 L 71.460938 313.910156 L 202.441406 202.5 L 173.234375 374.730469 Z M 153.925781 383.558594 " fill-opacity="1" fill-rule="nonzero"/><path fill="#3d01a4" d="M 69.898438 335.042969 C 45.507812 310.65625 30.308594 284.328125 21.382812 251.015625 L 202.441406 202.5 Z M 69.898438 335.042969 " fill-opacity="1" fill-rule="nonzero"/><path fill="#66b032" d="M 334.984375 335.042969 C 310.59375 359.429688 284.269531 374.628906 250.953125 383.558594 L 232.769531 372.242188 L 202.441406 202.5 L 334.4375 315.835938 Z M 334.984375 335.042969 " fill-opacity="1" fill-rule="nonzero"/><path fill="#0391ce" d="M 250.953125 383.558594 C 217.640625 392.484375 187.242188 392.484375 153.925781 383.558594 L 202.441406 202.5 Z M 250.953125 383.558594 " fill-opacity="1" fill-rule="nonzero"/><path fill="#d0ea2b" d="M 383.496094 251.015625 C 374.570312 284.328125 359.371094 310.65625 334.984375 335.042969 L 202.441406 202.5 Z M 383.496094 251.015625 " fill-opacity="1" fill-rule="nonzero"/><path fill="#ffffff" d="M 317.753906 202.5 C 317.753906 204.386719 317.707031 206.273438 317.613281 208.15625 C 317.519531 210.042969 317.382812 211.925781 317.199219 213.800781 C 317.011719 215.679688 316.78125 217.554688 316.503906 219.417969 C 316.226562 221.285156 315.90625 223.144531 315.535156 224.996094 C 315.167969 226.847656 314.753906 228.6875 314.296875 230.519531 C 313.839844 232.347656 313.335938 234.167969 312.789062 235.972656 C 312.238281 237.78125 311.648438 239.570312 311.011719 241.347656 C 310.375 243.125 309.699219 244.882812 308.976562 246.628906 C 308.253906 248.371094 307.488281 250.097656 306.679688 251.800781 C 305.875 253.507812 305.027344 255.195312 304.136719 256.859375 C 303.246094 258.523438 302.316406 260.164062 301.347656 261.78125 C 300.375 263.402344 299.367188 264.996094 298.320312 266.5625 C 297.269531 268.132812 296.183594 269.675781 295.058594 271.191406 C 293.9375 272.707031 292.773438 274.195312 291.578125 275.652344 C 290.378906 277.113281 289.148438 278.539062 287.882812 279.9375 C 286.613281 281.335938 285.3125 282.703125 283.976562 284.039062 C 282.644531 285.371094 281.277344 286.671875 279.878906 287.941406 C 278.480469 289.207031 277.050781 290.441406 275.59375 291.636719 C 274.136719 292.835938 272.648438 293.996094 271.132812 295.121094 C 269.617188 296.246094 268.074219 297.332031 266.503906 298.378906 C 264.933594 299.425781 263.339844 300.4375 261.722656 301.40625 C 260.105469 302.378906 258.460938 303.308594 256.796875 304.195312 C 255.132812 305.085938 253.449219 305.933594 251.742188 306.742188 C 250.035156 307.546875 248.3125 308.3125 246.566406 309.035156 C 244.824219 309.757812 243.066406 310.4375 241.289062 311.070312 C 239.511719 311.707031 237.71875 312.300781 235.914062 312.847656 C 234.109375 313.394531 232.289062 313.898438 230.457031 314.355469 C 228.628906 314.816406 226.789062 315.230469 224.9375 315.597656 C 223.085938 315.964844 221.226562 316.289062 219.359375 316.566406 C 217.492188 316.839844 215.621094 317.074219 213.742188 317.257812 C 211.863281 317.441406 209.984375 317.582031 208.097656 317.675781 C 206.214844 317.765625 204.328125 317.8125 202.441406 317.8125 C 200.554688 317.8125 198.667969 317.765625 196.78125 317.675781 C 194.898438 317.582031 193.015625 317.441406 191.136719 317.257812 C 189.257812 317.074219 187.386719 316.839844 185.519531 316.566406 C 183.652344 316.289062 181.792969 315.964844 179.945312 315.597656 C 178.09375 315.230469 176.25 314.816406 174.421875 314.355469 C 172.589844 313.898438 170.773438 313.394531 168.964844 312.847656 C 167.160156 312.300781 165.367188 311.707031 163.59375 311.070312 C 161.816406 310.4375 160.054688 309.757812 158.3125 309.035156 C 156.566406 308.3125 154.84375 307.546875 153.136719 306.742188 C 151.429688 305.933594 149.746094 305.085938 148.082031 304.195312 C 146.417969 303.308594 144.777344 302.378906 143.15625 301.40625 C 141.539062 300.4375 139.945312 299.425781 138.375 298.378906 C 136.804688 297.332031 135.265625 296.246094 133.75 295.121094 C 132.230469 293.996094 130.746094 292.835938 129.285156 291.636719 C 127.828125 290.441406 126.398438 289.207031 125 287.941406 C 123.601562 286.671875 122.234375 285.371094 120.902344 284.039062 C 119.566406 282.703125 118.265625 281.335938 117 279.9375 C 115.730469 278.539062 114.5 277.113281 113.300781 275.652344 C 112.105469 274.195312 110.945312 272.707031 109.820312 271.191406 C 108.695312 269.675781 107.609375 268.132812 106.5625 266.5625 C 105.511719 264.996094 104.503906 263.402344 103.53125 261.78125 C 102.5625 260.164062 101.632812 258.523438 100.742188 256.859375 C 99.855469 255.195312 99.003906 253.507812 98.199219 251.800781 C 97.390625 250.097656 96.628906 248.371094 95.90625 246.628906 C 95.183594 244.882812 94.503906 243.125 93.867188 241.347656 C 93.230469 239.570312 92.640625 237.78125 92.09375 235.972656 C 91.542969 234.167969 91.042969 232.347656 90.582031 230.519531 C 90.125 228.6875 89.710938 226.847656 89.34375 224.996094 C 88.976562 223.144531 88.652344 221.285156 88.375 219.417969 C 88.097656 217.554688 87.867188 215.679688 87.683594 213.800781 C 87.496094 211.925781 87.359375 210.042969 87.265625 208.15625 C 87.171875 206.273438 87.128906 204.386719 87.128906 202.5 C 87.128906 200.613281 87.171875 198.726562 87.265625 196.84375 C 87.359375 194.957031 87.496094 193.074219 87.683594 191.199219 C 87.867188 189.320312 88.097656 187.445312 88.375 185.578125 C 88.652344 183.714844 88.976562 181.855469 89.34375 180.003906 C 89.710938 178.152344 90.125 176.3125 90.582031 174.480469 C 91.042969 172.652344 91.542969 170.832031 92.09375 169.027344 C 92.640625 167.21875 93.230469 165.429688 93.867188 163.652344 C 94.503906 161.875 95.183594 160.113281 95.90625 158.371094 C 96.628906 156.628906 97.390625 154.902344 98.199219 153.199219 C 99.003906 151.492188 99.855469 149.804688 100.742188 148.140625 C 101.632812 146.476562 102.5625 144.835938 103.53125 143.21875 C 104.503906 141.597656 105.511719 140.003906 106.5625 138.4375 C 107.609375 136.867188 108.695312 135.324219 109.820312 133.808594 C 110.945312 132.292969 112.105469 130.804688 113.300781 129.347656 C 114.5 127.886719 115.730469 126.457031 117 125.0625 C 118.265625 123.664062 119.566406 122.296875 120.902344 120.960938 C 122.234375 119.628906 123.601562 118.324219 125 117.058594 C 126.398438 115.792969 127.828125 114.558594 129.285156 113.363281 C 130.746094 112.164062 132.230469 111.003906 133.75 109.878906 C 135.265625 108.753906 136.804688 107.667969 138.375 106.621094 C 139.945312 105.574219 141.539062 104.5625 143.15625 103.59375 C 144.777344 102.621094 146.417969 101.691406 148.082031 100.804688 C 149.746094 99.914062 151.429688 99.066406 153.136719 98.257812 C 154.84375 97.453125 156.566406 96.6875 158.3125 95.964844 C 160.054688 95.242188 161.816406 94.5625 163.59375 93.929688 C 165.367188 93.292969 167.160156 92.699219 168.964844 92.152344 C 170.773438 91.605469 172.589844 91.101562 174.421875 90.644531 C 176.25 90.183594 178.09375 89.769531 179.945312 89.402344 C 181.792969 89.035156 183.652344 88.710938 185.519531 88.433594 C 187.386719 88.160156 189.257812 87.925781 191.136719 87.742188 C 193.015625 87.558594 194.898438 87.417969 196.78125 87.324219 C 198.667969 87.234375 200.554688 87.1875 202.441406 87.1875 C 204.328125 87.1875 206.214844 87.234375 208.097656 87.324219 C 209.984375 87.417969 211.863281 87.558594 213.742188 87.742188 C 215.621094 87.925781 217.492188 88.160156 219.359375 88.433594 C 221.226562 88.710938 223.085938 89.035156 224.9375 89.402344 C 226.789062 89.769531 228.628906 90.183594 230.457031 90.644531 C 232.289062 91.101562 234.109375 91.605469 235.914062 92.152344 C 237.71875 92.699219 239.511719 93.292969 241.289062 93.929688 C 243.066406 94.5625 244.824219 95.242188 246.566406 95.964844 C 248.3125 96.6875 250.035156 97.453125 251.742188 98.257812 C 253.449219 99.066406 255.132812 99.914062 256.796875 100.804688 C 258.460938 101.691406 260.105469 102.621094 261.722656 103.59375 C 263.339844 104.5625 264.933594 105.574219 266.503906 106.621094 C 268.074219 107.667969 269.617188 108.753906 271.132812 109.878906 C 272.648438 111.003906 274.136719 112.164062 275.59375 113.363281 C 277.050781 114.558594 278.480469 115.792969 279.878906 117.058594 C 281.277344 118.324219 282.644531 119.628906 283.976562 120.960938 C 285.3125 122.296875 286.613281 123.664062 287.882812 125.0625 C 289.148438 126.457031 290.378906 127.886719 291.578125 129.347656 C 292.773438 130.804688 293.9375 132.292969 295.058594 133.808594 C 296.183594 135.324219 297.269531 136.867188 298.320312 138.4375 C 299.367188 140.003906 300.375 141.597656 301.347656 143.21875 C 302.316406 144.835938 303.246094 146.476562 304.136719 148.140625 C 305.027344 149.804688 305.875 151.492188 306.679688 153.199219 C 307.488281 154.902344 308.253906 156.628906 308.976562 158.371094 C 309.699219 160.113281 310.375 161.875 311.011719 163.652344 C 311.648438 165.429688 312.238281 167.21875 312.789062 169.027344 C 313.335938 170.832031 313.839844 172.652344 314.296875 174.480469 C 314.753906 176.3125 315.167969 178.152344 315.535156 180.003906 C 315.90625 181.855469 316.226562 183.714844 316.503906 185.578125 C 316.78125 187.445312 317.011719 189.320312 317.199219 191.199219 C 317.382812 193.074219 317.519531 194.957031 317.613281 196.84375 C 317.707031 198.726562 317.753906 200.613281 317.753906 202.5 Z M 317.753906 202.5 " fill-opacity="1" fill-rule="nonzero"/></g></g></g></g><path fill="#839496" d="M 76.371094 141.625 L 328.835938 141.625 L 328.835938 232.511719 L 76.371094 232.511719 Z M 76.371094 141.625 " fill-opacity="0.9961" fill-rule="nonzero"/><path fill="#93a1a1" d="M 139.871094 141.625 L 266.101562 141.625 L 266.101562 232.511719 L 139.871094 232.511719 Z M 139.871094 141.625 " fill-opacity="0.9961" fill-rule="nonzero"/><path fill="#586e75" d="M 139.488281 232.511719 L 265.71875 232.511719 L 223.625 283.003906 L 181.582031 283.003906 Z M 139.488281 232.511719 " fill-opacity="1" fill-rule="nonzero"/><path fill="#657b83" d="M 122.199219 91.132812 L 283.777344 91.132812 L 283.777344 141.625 L 122.199219 141.625 Z M 122.199219 91.132812 " fill-opacity="0.9961" fill-rule="nonzero"/><path fill="#586e75" d="M 99.476562 40.640625 L 306.496094 40.640625 C 307.160156 40.640625 307.816406 40.703125 308.46875 40.832031 C 309.117188 40.960938 309.75 41.152344 310.363281 41.40625 C 310.976562 41.660156 311.558594 41.972656 312.109375 42.339844 C 312.660156 42.710938 313.167969 43.128906 313.636719 43.597656 C 314.105469 44.066406 314.527344 44.574219 314.894531 45.128906 C 315.261719 45.679688 315.574219 46.261719 315.828125 46.875 C 316.082031 47.484375 316.273438 48.117188 316.402344 48.769531 C 316.53125 49.417969 316.597656 50.074219 316.597656 50.738281 L 316.597656 81.035156 C 316.597656 81.695312 316.53125 82.351562 316.402344 83.003906 C 316.273438 83.652344 316.082031 84.285156 315.828125 84.898438 C 315.574219 85.511719 315.261719 86.09375 314.894531 86.644531 C 314.527344 87.195312 314.105469 87.707031 313.636719 88.175781 C 313.167969 88.644531 312.660156 89.0625 312.109375 89.429688 C 311.558594 89.796875 310.976562 90.109375 310.363281 90.363281 C 309.75 90.617188 309.117188 90.808594 308.46875 90.9375 C 307.816406 91.066406 307.160156 91.132812 306.496094 91.132812 L 99.476562 91.132812 C 98.8125 91.132812 98.15625 91.066406 97.507812 90.9375 C 96.855469 90.808594 96.226562 90.617188 95.613281 90.363281 C 95 90.109375 94.417969 89.796875 93.867188 89.429688 C 93.316406 89.0625 92.804688 88.644531 92.335938 88.175781 C 91.867188 87.707031 91.449219 87.195312 91.082031 86.644531 C 90.710938 86.09375 90.402344 85.511719 90.148438 84.898438 C 89.894531 84.285156 89.703125 83.652344 89.574219 83.003906 C 89.441406 82.351562 89.378906 81.695312 89.378906 81.035156 L 89.378906 50.738281 C 89.378906 50.074219 89.441406 49.417969 89.574219 48.769531 C 89.703125 48.117188 89.894531 47.484375 90.148438 46.875 C 90.402344 46.261719 90.710938 45.679688 91.082031 45.128906 C 91.449219 44.574219 91.867188 44.066406 92.335938 43.597656 C 92.804688 43.128906 93.316406 42.710938 93.867188 42.339844 C 94.417969 41.972656 95 41.660156 95.613281 41.40625 C 96.226562 41.152344 96.855469 40.960938 97.507812 40.832031 C 98.15625 40.703125 98.8125 40.640625 99.476562 40.640625 Z M 99.476562 40.640625 " fill-opacity="0.9961" fill-rule="nonzero"/><g clip-path="url(#e7ed054de3)"><path fill="#586e75" d="M 89.378906 0.246094 L 316.597656 0.246094 L 316.597656 50.738281 L 89.378906 50.738281 Z M 89.378906 0.246094 " fill-opacity="0.9961" fill-rule="nonzero"/></g></svg>