<svg xmlns="http://www.w3.org/2000/svg" xmlns:xlink="http://www.w3.org/1999/xlink" width="540" zoomAndPan="magnify" viewBox="0 0 404.88 404.99999" height="540" preserveAspectRatio="xMidYMid meet" version="1.0"><defs><clipPath id="a43344bd4a"><path d="M 141 0.0585938 L 279 0.0585938 L 279 202 L 141 202 Z M 141 0.0585938 " clip-rule="nonzero"/></clipPath></defs><path fill="#839496" d="M 98.699219 274.34375 L 321.875 274.34375 L 321.875 354.6875 L 98.699219 354.6875 Z M 98.699219 274.34375 " fill-opacity="0.9961" fill-rule="nonzero"/><path fill="#93a1a1" d="M 154.832031 274.34375 L 266.421875 274.34375 L 266.421875 354.6875 L 154.832031 354.6875 Z M 154.832031 274.34375 " fill-opacity="0.9961" fill-rule="nonzero"/><path fill="#586e75" d="M 154.492188 354.6875 L 266.082031 354.6875 L 228.867188 399.320312 L 191.703125 399.320312 Z M 154.492188 354.6875 " fill-opacity="1" fill-rule="nonzero"/><path fill="#657b83" d="M 139.210938 229.707031 L 282.042969 229.707031 L 282.042969 274.34375 L 139.210938 274.34375 Z M 139.210938 229.707031 " fill-opacity="0.9961" fill-rule="nonzero"/><path fill="#586e75" d="M 119.125 185.074219 L 302.128906 185.074219 C 302.714844 185.074219 303.292969 185.128906 303.871094 185.246094 C 304.445312 185.359375 305.003906 185.527344 305.542969 185.753906 C 306.085938 185.976562 306.601562 186.253906 307.085938 186.578125 C 307.574219 186.902344 308.027344 187.273438 308.441406 187.6875 C 308.855469 188.101562 309.226562 188.554688 309.550781 189.039062 C 309.875 189.527344 310.152344 190.042969 310.375 190.585938 C 310.601562 191.125 310.769531 191.683594 310.882812 192.257812 C 310.996094 192.832031 311.054688 193.414062 311.054688 194 L 311.054688 220.78125 C 311.054688 221.367188 310.996094 221.949219 310.882812 222.523438 C 310.769531 223.097656 310.601562 223.65625 310.375 224.199219 C 310.152344 224.738281 309.875 225.253906 309.550781 225.742188 C 309.226562 226.226562 308.855469 226.679688 308.441406 227.09375 C 308.027344 227.507812 307.574219 227.878906 307.085938 228.203125 C 306.601562 228.53125 306.085938 228.804688 305.542969 229.027344 C 305.003906 229.253906 304.445312 229.421875 303.871094 229.535156 C 303.292969 229.652344 302.714844 229.707031 302.128906 229.707031 L 119.125 229.707031 C 118.539062 229.707031 117.957031 229.652344 117.382812 229.535156 C 116.808594 229.421875 116.25 229.253906 115.707031 229.027344 C 115.167969 228.804688 114.652344 228.53125 114.164062 228.203125 C 113.675781 227.878906 113.226562 227.507812 112.8125 227.09375 C 112.398438 226.679688 112.027344 226.226562 111.703125 225.742188 C 111.375 225.253906 111.101562 224.738281 110.875 224.199219 C 110.652344 223.65625 110.484375 223.097656 110.367188 222.523438 C 110.253906 221.949219 110.195312 221.367188 110.195312 220.78125 L 110.195312 194 C 110.195312 193.414062 110.253906 192.832031 110.367188 192.257812 C 110.484375 191.683594 110.652344 191.125 110.875 190.585938 C 111.101562 190.042969 111.375 189.527344 111.703125 189.039062 C 112.027344 188.554688 112.398438 188.101562 112.8125 187.6875 C 113.226562 187.273438 113.675781 186.902344 114.164062 186.578125 C 114.652344 186.253906 115.167969 185.976562 115.707031 185.753906 C 116.25 185.527344 116.808594 185.359375 117.382812 185.246094 C 117.957031 185.128906 118.539062 185.074219 119.125 185.074219 Z M 119.125 185.074219 " fill-opacity="0.9961" fill-rule="nonzero"/><path fill="#586e75" d="M 110.195312 149.363281 L 311.054688 149.363281 L 311.054688 194 L 110.195312 194 Z M 110.195312 149.363281 " fill-opacity="0.9961" fill-rule="nonzero"/><g clip-path="url(#a43344bd4a)"><path fill="#f9d923" d="M 144.105469 129.023438 L 202.679688 197.894531 C 206.628906 202.5 213.867188 202.5 217.597656 197.894531 L 276.171875 129.023438 C 281.65625 122.664062 277.050781 112.792969 268.714844 112.792969 L 229.445312 112.792969 L 229.445312 9.929688 C 229.445312 4.445312 225.058594 0.0585938 219.574219 0.0585938 L 200.925781 0.0585938 C 195.441406 0.0585938 191.054688 4.445312 191.054688 9.929688 L 191.054688 112.792969 L 151.785156 112.792969 C 143.226562 112.792969 138.621094 122.664062 144.105469 129.023438 Z M 144.105469 129.023438 " fill-opacity="1" fill-rule="nonzero"/></g></svg>