<svg xmlns="http://www.w3.org/2000/svg" xmlns:xlink="http://www.w3.org/1999/xlink" width="540" zoomAndPan="magnify" viewBox="0 0 404.88 404.99999" height="540" preserveAspectRatio="xMidYMid meet" version="1.0"><defs><clipPath id="1154df6149"><path d="M 83.550781 53.871094 L 289 53.871094 L 289 350.78125 L 83.550781 350.78125 Z M 83.550781 53.871094 " clip-rule="nonzero"/></clipPath><clipPath id="c170b564b0"><path d="M 83.550781 170 L 269 170 L 269 350.78125 L 83.550781 350.78125 Z M 83.550781 170 " clip-rule="nonzero"/></clipPath><clipPath id="29f7d0a5a3"><path d="M 113 53.871094 L 321.035156 53.871094 L 321.035156 350.78125 L 113 350.78125 Z M 113 53.871094 " clip-rule="nonzero"/></clipPath><clipPath id="55aecf663c"><path d="M 138 170 L 321.035156 170 L 321.035156 350.78125 L 138 350.78125 Z M 138 170 " clip-rule="nonzero"/></clipPath></defs><g clip-path="url(#1154df6149)"><path stroke-linecap="butt" transform="matrix(6.927946, 0, 0, 6.927946, -129.460376, -322.074341)" fill="none" stroke-linejoin="miter" d="M 35.849964 58.379962 L 45.049006 58.379962 C 45.12456 58.379962 45.200115 58.387292 45.274541 58.401952 C 45.348968 58.417176 45.42114 58.439165 45.491056 58.467921 C 45.560972 58.496677 45.627505 58.532763 45.690655 58.574487 C 45.753805 58.616775 45.81188 58.664701 45.865445 58.718266 C 45.919574 58.771831 45.966936 58.83047 46.009224 58.893056 C 46.051512 58.956206 46.087034 59.022739 46.116354 59.093219 C 46.14511 59.163135 46.167099 59.235307 46.181759 59.309733 C 46.196419 59.38416 46.203749 59.459151 46.203749 59.535269 L 46.203749 94.254816 C 46.203749 94.330934 46.196419 94.405925 46.181759 94.480352 C 46.167099 94.554778 46.14511 94.62695 46.116354 94.696866 C 46.087034 94.766782 46.051512 94.833879 46.009224 94.896465 C 45.966936 94.959615 45.919574 95.018255 45.865445 95.071819 C 45.81188 95.125384 45.753805 95.17331 45.690655 95.215598 C 45.627505 95.257322 45.560972 95.292844 45.491056 95.322164 C 45.42114 95.35092 45.348968 95.37291 45.274541 95.387569 C 45.200115 95.402793 45.12456 95.410123 45.049006 95.410123 L 35.849964 95.410123 C 35.774409 95.410123 35.698855 95.402793 35.624428 95.387569 C 35.550565 95.37291 35.47783 95.35092 35.407913 95.322164 C 35.337997 95.292844 35.271464 95.257322 35.208314 95.215598 C 35.145164 95.17331 35.087089 95.125384 35.033524 95.071819 C 34.979395 95.018255 34.932033 94.959615 34.889745 94.896465 C 34.847457 94.833879 34.811935 94.766782 34.783179 94.696866 C 34.75386 94.62695 34.73187 94.554778 34.71721 94.480352 C 34.70255 94.405925 34.69522 94.330934 34.69522 94.254816 L 34.69522 59.535269 C 34.69522 59.459151 34.70255 59.38416 34.71721 59.309733 C 34.73187 59.235307 34.75386 59.163135 34.783179 59.093219 C 34.811935 59.022739 34.847457 58.956206 34.889745 58.893056 C 34.932033 58.83047 34.979395 58.771831 35.033524 58.718266 C 35.087089 58.664701 35.145164 58.616775 35.208314 58.574487 C 35.271464 58.532763 35.337997 58.496677 35.407913 58.467921 C 35.47783 58.439165 35.550565 58.417176 35.624428 58.401952 C 35.698855 58.387292 35.774409 58.379962 35.849964 58.379962 Z M 35.849964 58.379962 " stroke="#ff6600" stroke-width="2.5" stroke-opacity="1" stroke-miterlimit="4"/></g><path fill="#ffffff" d="M 170.992188 285.761719 C 170.992188 286.332031 170.964844 286.898438 170.90625 287.460938 C 170.851562 288.027344 170.769531 288.585938 170.65625 289.144531 C 170.546875 289.703125 170.410156 290.25 170.246094 290.792969 C 170.078125 291.335938 169.886719 291.871094 169.671875 292.394531 C 169.453125 292.921875 169.210938 293.433594 168.945312 293.933594 C 168.675781 294.433594 168.386719 294.921875 168.070312 295.394531 C 167.753906 295.863281 167.417969 296.320312 167.054688 296.757812 C 166.695312 297.199219 166.316406 297.617188 165.914062 298.019531 C 165.511719 298.421875 165.09375 298.800781 164.652344 299.160156 C 164.214844 299.523438 163.757812 299.859375 163.289062 300.175781 C 162.816406 300.492188 162.328125 300.78125 161.828125 301.050781 C 161.328125 301.316406 160.816406 301.558594 160.289062 301.777344 C 159.765625 301.996094 159.230469 302.183594 158.6875 302.351562 C 158.144531 302.515625 157.59375 302.652344 157.039062 302.761719 C 156.480469 302.875 155.921875 302.957031 155.355469 303.011719 C 154.792969 303.070312 154.226562 303.097656 153.65625 303.097656 C 153.089844 303.097656 152.523438 303.070312 151.957031 303.011719 C 151.394531 302.957031 150.832031 302.875 150.277344 302.761719 C 149.71875 302.652344 149.167969 302.515625 148.625 302.351562 C 148.082031 302.183594 147.546875 301.996094 147.023438 301.777344 C 146.5 301.558594 145.988281 301.316406 145.484375 301.050781 C 144.984375 300.78125 144.5 300.492188 144.027344 300.175781 C 143.554688 299.859375 143.097656 299.523438 142.660156 299.160156 C 142.222656 298.800781 141.800781 298.421875 141.398438 298.019531 C 141 297.617188 140.617188 297.199219 140.257812 296.757812 C 139.898438 296.320312 139.558594 295.863281 139.246094 295.394531 C 138.929688 294.921875 138.636719 294.433594 138.371094 293.933594 C 138.101562 293.433594 137.859375 292.921875 137.644531 292.394531 C 137.425781 291.871094 137.234375 291.335938 137.070312 290.792969 C 136.90625 290.25 136.765625 289.703125 136.65625 289.144531 C 136.546875 288.585938 136.460938 288.027344 136.40625 287.460938 C 136.351562 286.898438 136.324219 286.332031 136.324219 285.761719 C 136.324219 285.195312 136.351562 284.628906 136.40625 284.0625 C 136.460938 283.5 136.546875 282.9375 136.65625 282.382812 C 136.765625 281.824219 136.90625 281.273438 137.070312 280.730469 C 137.234375 280.1875 137.425781 279.652344 137.644531 279.128906 C 137.859375 278.605469 138.101562 278.09375 138.371094 277.589844 C 138.636719 277.089844 138.929688 276.605469 139.246094 276.132812 C 139.558594 275.660156 139.898438 275.207031 140.257812 274.765625 C 140.617188 274.328125 141 273.90625 141.398438 273.507812 C 141.800781 273.105469 142.222656 272.722656 142.660156 272.363281 C 143.097656 272.003906 143.554688 271.664062 144.027344 271.351562 C 144.5 271.035156 144.984375 270.742188 145.484375 270.476562 C 145.988281 270.207031 146.5 269.964844 147.023438 269.75 C 147.546875 269.53125 148.082031 269.339844 148.625 269.175781 C 149.167969 269.011719 149.71875 268.871094 150.277344 268.761719 C 150.832031 268.652344 151.394531 268.566406 151.957031 268.511719 C 152.523438 268.457031 153.089844 268.429688 153.65625 268.429688 C 154.226562 268.429688 154.792969 268.457031 155.355469 268.511719 C 155.921875 268.566406 156.480469 268.652344 157.039062 268.761719 C 157.59375 268.871094 158.144531 269.011719 158.6875 269.175781 C 159.230469 269.339844 159.765625 269.53125 160.289062 269.75 C 160.816406 269.964844 161.328125 270.207031 161.828125 270.476562 C 162.328125 270.742188 162.816406 271.035156 163.289062 271.351562 C 163.757812 271.664062 164.214844 272.003906 164.652344 272.363281 C 165.09375 272.722656 165.511719 273.105469 165.914062 273.507812 C 166.316406 273.90625 166.695312 274.328125 167.054688 274.765625 C 167.417969 275.207031 167.753906 275.660156 168.070312 276.132812 C 168.386719 276.605469 168.675781 277.089844 168.945312 277.589844 C 169.210938 278.09375 169.453125 278.605469 169.671875 279.128906 C 169.886719 279.652344 170.078125 280.1875 170.246094 280.730469 C 170.410156 281.273438 170.546875 281.824219 170.65625 282.382812 C 170.769531 282.9375 170.851562 283.5 170.90625 284.0625 C 170.964844 284.628906 170.992188 285.195312 170.992188 285.761719 Z M 170.992188 285.761719 " fill-opacity="1" fill-rule="nonzero"/><g clip-path="url(#c170b564b0)"><path stroke-linecap="butt" transform="matrix(6.927946, 0, 0, 6.927946, -129.460376, -322.074341)" fill="none" stroke-linejoin="miter" d="M 43.3682 87.736831 C 43.3682 87.819151 43.364253 87.900908 43.355795 87.982101 C 43.347902 88.063858 43.336061 88.144487 43.31971 88.225116 C 43.303922 88.305745 43.284188 88.384682 43.260507 88.463056 C 43.236261 88.54143 43.208633 88.618676 43.177622 88.69423 C 43.146047 88.770349 43.111089 88.844212 43.072748 88.916383 C 43.033843 88.988555 42.992119 89.059035 42.946448 89.127259 C 42.900777 89.19492 42.852287 89.260889 42.79985 89.324039 C 42.747976 89.387753 42.693284 89.448084 42.635209 89.506159 C 42.577133 89.564235 42.516802 89.618927 42.453088 89.6708 C 42.389938 89.723238 42.323969 89.771728 42.256308 89.817399 C 42.188084 89.86307 42.117604 89.904794 42.045432 89.943699 C 41.973261 89.98204 41.899398 90.016998 41.82328 90.048573 C 41.747725 90.080148 41.670479 90.107212 41.592105 90.131457 C 41.513732 90.155139 41.43423 90.174873 41.354165 90.19066 C 41.273536 90.207012 41.192907 90.218852 41.11115 90.226746 C 41.029957 90.235204 40.948201 90.239151 40.86588 90.239151 C 40.784123 90.239151 40.702367 90.235204 40.62061 90.226746 C 40.539417 90.218852 40.458224 90.207012 40.378159 90.19066 C 40.29753 90.174873 40.218028 90.155139 40.139655 90.131457 C 40.061281 90.107212 39.984035 90.080148 39.908481 90.048573 C 39.832926 90.016998 39.759063 89.98204 39.686328 89.943699 C 39.614156 89.904794 39.54424 89.86307 39.476016 89.817399 C 39.407791 89.771728 39.341822 89.723238 39.278672 89.6708 C 39.215522 89.618927 39.154627 89.564235 39.096552 89.506159 C 39.03904 89.448084 38.983784 89.387753 38.93191 89.324039 C 38.880037 89.260889 38.830983 89.19492 38.785876 89.127259 C 38.740205 89.059035 38.697917 88.988555 38.659576 88.916383 C 38.620671 88.844212 38.585713 88.770349 38.554702 88.69423 C 38.523127 88.618676 38.495499 88.54143 38.471817 88.463056 C 38.448136 88.384682 38.427838 88.305745 38.41205 88.225116 C 38.396263 88.144487 38.383858 88.063858 38.375965 87.982101 C 38.368071 87.900908 38.364124 87.819151 38.364124 87.736831 C 38.364124 87.655074 38.368071 87.573317 38.375965 87.491561 C 38.383858 87.410368 38.396263 87.329175 38.41205 87.24911 C 38.427838 87.168481 38.448136 87.088979 38.471817 87.010606 C 38.495499 86.932232 38.523127 86.854986 38.554702 86.779431 C 38.585713 86.703877 38.620671 86.630014 38.659576 86.557279 C 38.697917 86.485107 38.740205 86.415191 38.785876 86.346966 C 38.830983 86.278742 38.880037 86.213336 38.93191 86.149623 C 38.983784 86.086473 39.03904 86.025578 39.096552 85.968066 C 39.154627 85.909991 39.215522 85.854735 39.278672 85.802861 C 39.341822 85.750988 39.407791 85.701934 39.476016 85.656827 C 39.54424 85.611156 39.614156 85.568868 39.686328 85.530527 C 39.759063 85.491622 39.832926 85.456664 39.908481 85.425653 C 39.984035 85.394078 40.061281 85.36645 40.139655 85.342768 C 40.218028 85.319087 40.29753 85.298789 40.378159 85.283001 C 40.458224 85.267214 40.539417 85.254809 40.62061 85.246916 C 40.702367 85.239022 40.784123 85.235075 40.86588 85.235075 C 40.948201 85.235075 41.029957 85.239022 41.11115 85.246916 C 41.192907 85.254809 41.273536 85.267214 41.354165 85.283001 C 41.43423 85.298789 41.513732 85.319087 41.592105 85.342768 C 41.670479 85.36645 41.747725 85.394078 41.82328 85.425653 C 41.899398 85.456664 41.973261 85.491622 42.045432 85.530527 C 42.117604 85.568868 42.188084 85.611156 42.256308 85.656827 C 42.323969 85.701934 42.389938 85.750988 42.453088 85.802861 C 42.516802 85.854735 42.577133 85.909991 42.635209 85.968066 C 42.693284 86.025578 42.747976 86.086473 42.79985 86.149623 C 42.852287 86.213336 42.900777 86.278742 42.946448 86.346966 C 42.992119 86.415191 43.033843 86.485107 43.072748 86.557279 C 43.111089 86.630014 43.146047 86.703877 43.177622 86.779431 C 43.208633 86.854986 43.236261 86.932232 43.260507 87.010606 C 43.284188 87.088979 43.303922 87.168481 43.31971 87.24911 C 43.336061 87.329175 43.347902 87.410368 43.355795 87.491561 C 43.364253 87.573317 43.3682 87.655074 43.3682 87.736831 Z M 43.3682 87.736831 " stroke="#ff6600" stroke-width="2.5" stroke-opacity="1" stroke-miterlimit="4"/></g><g clip-path="url(#29f7d0a5a3)"><path stroke-linecap="butt" transform="matrix(6.927946, 0, 0, 6.927946, -29.129861, -322.074341)" fill="none" stroke-linejoin="miter" d="M 35.850183 58.379962 L 45.049224 58.379962 C 45.124779 58.379962 45.19977 58.387292 45.274196 58.401952 C 45.348623 58.417176 45.420795 58.439165 45.491275 58.467921 C 45.561191 58.496677 45.627724 58.532763 45.690874 58.574487 C 45.75346 58.616775 45.812099 58.664701 45.865664 58.718266 C 45.919229 58.771831 45.967155 58.83047 46.009443 58.893056 C 46.051731 58.956206 46.087253 59.022739 46.116009 59.093219 C 46.145328 59.163135 46.166754 59.235307 46.181978 59.309733 C 46.196638 59.38416 46.203968 59.459151 46.203968 59.535269 L 46.203968 94.254816 C 46.203968 94.330934 46.196638 94.405925 46.181978 94.480352 C 46.166754 94.554778 46.145328 94.62695 46.116009 94.696866 C 46.087253 94.766782 46.051731 94.833879 46.009443 94.896465 C 45.967155 94.959615 45.919229 95.018255 45.865664 95.071819 C 45.812099 95.125384 45.75346 95.17331 45.690874 95.215598 C 45.627724 95.257322 45.561191 95.292844 45.491275 95.322164 C 45.420795 95.35092 45.348623 95.37291 45.274196 95.387569 C 45.19977 95.402793 45.124779 95.410123 45.049224 95.410123 L 35.850183 95.410123 C 35.774064 95.410123 35.699074 95.402793 35.624647 95.387569 C 35.55022 95.37291 35.478048 95.35092 35.408132 95.322164 C 35.337652 95.292844 35.271119 95.257322 35.208533 95.215598 C 35.145383 95.17331 35.086744 95.125384 35.033179 95.071819 C 34.979614 95.018255 34.931688 94.959615 34.8894 94.896465 C 34.847676 94.833879 34.812154 94.766782 34.782834 94.696866 C 34.754079 94.62695 34.732089 94.554778 34.717429 94.480352 C 34.702205 94.405925 34.694875 94.330934 34.694875 94.254816 L 34.694875 59.535269 C 34.694875 59.459151 34.702205 59.38416 34.717429 59.309733 C 34.732089 59.235307 34.754079 59.163135 34.782834 59.093219 C 34.812154 59.022739 34.847676 58.956206 34.8894 58.893056 C 34.931688 58.83047 34.979614 58.771831 35.033179 58.718266 C 35.086744 58.664701 35.145383 58.616775 35.208533 58.574487 C 35.271119 58.532763 35.337652 58.496677 35.408132 58.467921 C 35.478048 58.439165 35.55022 58.417176 35.624647 58.401952 C 35.699074 58.387292 35.774064 58.379962 35.850183 58.379962 Z M 35.850183 58.379962 " stroke="#ff6600" stroke-width="2.5" stroke-opacity="1" stroke-miterlimit="4"/></g><path fill="#ffffff" d="M 271.320312 285.761719 C 271.320312 286.332031 271.292969 286.898438 271.238281 287.460938 C 271.183594 288.027344 271.097656 288.585938 270.988281 289.144531 C 270.878906 289.703125 270.738281 290.25 270.574219 290.792969 C 270.410156 291.335938 270.21875 291.871094 270 292.394531 C 269.785156 292.921875 269.542969 293.433594 269.273438 293.933594 C 269.007812 294.433594 268.714844 294.921875 268.398438 295.394531 C 268.085938 295.863281 267.746094 296.320312 267.386719 296.757812 C 267.027344 297.199219 266.644531 297.617188 266.246094 298.019531 C 265.84375 298.421875 265.421875 298.800781 264.984375 299.160156 C 264.546875 299.523438 264.089844 299.859375 263.617188 300.175781 C 263.144531 300.492188 262.660156 300.78125 262.160156 301.050781 C 261.65625 301.316406 261.144531 301.558594 260.621094 301.777344 C 260.097656 301.996094 259.5625 302.183594 259.019531 302.351562 C 258.476562 302.515625 257.925781 302.652344 257.371094 302.761719 C 256.8125 302.875 256.25 302.957031 255.6875 303.011719 C 255.121094 303.070312 254.554688 303.097656 253.988281 303.097656 C 253.421875 303.097656 252.855469 303.070312 252.289062 303.011719 C 251.722656 302.957031 251.164062 302.875 250.605469 302.761719 C 250.050781 302.652344 249.5 302.515625 248.957031 302.351562 C 248.414062 302.183594 247.878906 301.996094 247.355469 301.777344 C 246.828125 301.558594 246.316406 301.316406 245.816406 301.050781 C 245.316406 300.78125 244.828125 300.492188 244.359375 300.175781 C 243.886719 299.859375 243.429688 299.523438 242.992188 299.160156 C 242.550781 298.800781 242.132812 298.421875 241.730469 298.019531 C 241.328125 297.617188 240.949219 297.199219 240.589844 296.757812 C 240.226562 296.320312 239.890625 295.863281 239.574219 295.394531 C 239.257812 294.921875 238.96875 294.433594 238.699219 293.933594 C 238.433594 293.433594 238.191406 292.921875 237.972656 292.394531 C 237.757812 291.871094 237.566406 291.335938 237.398438 290.792969 C 237.234375 290.25 237.097656 289.703125 236.988281 289.144531 C 236.875 288.585938 236.792969 288.027344 236.738281 287.460938 C 236.683594 286.898438 236.652344 286.332031 236.652344 285.761719 C 236.652344 285.195312 236.683594 284.628906 236.738281 284.0625 C 236.792969 283.5 236.875 282.9375 236.988281 282.382812 C 237.097656 281.824219 237.234375 281.273438 237.398438 280.730469 C 237.566406 280.1875 237.757812 279.652344 237.972656 279.128906 C 238.191406 278.605469 238.433594 278.09375 238.699219 277.589844 C 238.96875 277.089844 239.257812 276.605469 239.574219 276.132812 C 239.890625 275.660156 240.226562 275.207031 240.589844 274.765625 C 240.949219 274.328125 241.328125 273.90625 241.730469 273.507812 C 242.132812 273.105469 242.550781 272.722656 242.992188 272.363281 C 243.429688 272.003906 243.886719 271.664062 244.359375 271.351562 C 244.828125 271.035156 245.316406 270.742188 245.816406 270.476562 C 246.316406 270.207031 246.828125 269.964844 247.355469 269.75 C 247.878906 269.53125 248.414062 269.339844 248.957031 269.175781 C 249.5 269.011719 250.050781 268.871094 250.605469 268.761719 C 251.164062 268.652344 251.722656 268.566406 252.289062 268.511719 C 252.855469 268.457031 253.421875 268.429688 253.988281 268.429688 C 254.554688 268.429688 255.121094 268.457031 255.6875 268.511719 C 256.25 268.566406 256.8125 268.652344 257.371094 268.761719 C 257.925781 268.871094 258.476562 269.011719 259.019531 269.175781 C 259.5625 269.339844 260.097656 269.53125 260.621094 269.75 C 261.144531 269.964844 261.65625 270.207031 262.160156 270.476562 C 262.660156 270.742188 263.144531 271.035156 263.617188 271.351562 C 264.089844 271.664062 264.546875 272.003906 264.984375 272.363281 C 265.421875 272.722656 265.84375 273.105469 266.246094 273.507812 C 266.644531 273.90625 267.027344 274.328125 267.386719 274.765625 C 267.746094 275.207031 268.085938 275.660156 268.398438 276.132812 C 268.714844 276.605469 269.007812 277.089844 269.273438 277.589844 C 269.542969 278.09375 269.785156 278.605469 270 279.128906 C 270.21875 279.652344 270.410156 280.1875 270.574219 280.730469 C 270.738281 281.273438 270.878906 281.824219 270.988281 282.382812 C 271.097656 282.9375 271.183594 283.5 271.238281 284.0625 C 271.292969 284.628906 271.320312 285.195312 271.320312 285.761719 Z M 271.320312 285.761719 " fill-opacity="1" fill-rule="nonzero"/><g clip-path="url(#55aecf663c)"><path stroke-linecap="butt" transform="matrix(6.927946, 0, 0, 6.927946, -29.129861, -322.074341)" fill="none" stroke-linejoin="miter" d="M 43.367855 87.736831 C 43.367855 87.819151 43.363908 87.900908 43.356014 87.982101 C 43.348121 88.063858 43.335716 88.144487 43.319929 88.225116 C 43.304141 88.305745 43.283843 88.384682 43.260162 88.463056 C 43.23648 88.54143 43.208852 88.618676 43.177277 88.69423 C 43.146266 88.770349 43.111308 88.844212 43.072403 88.916383 C 43.034062 88.988555 42.991774 89.059035 42.946103 89.127259 C 42.900996 89.19492 42.851942 89.260889 42.800069 89.324039 C 42.748195 89.387753 42.692939 89.448084 42.635427 89.506159 C 42.577352 89.564235 42.516457 89.618927 42.453307 89.6708 C 42.390157 89.723238 42.324188 89.771728 42.255963 89.817399 C 42.187739 89.86307 42.117823 89.904794 42.045651 89.943699 C 41.972916 89.98204 41.899053 90.016998 41.823498 90.048573 C 41.747944 90.080148 41.670698 90.107212 41.592324 90.131457 C 41.513951 90.155139 41.434449 90.174873 41.354384 90.19066 C 41.273755 90.207012 41.192562 90.218852 41.111369 90.226746 C 41.029612 90.235204 40.947856 90.239151 40.866099 90.239151 C 40.784342 90.239151 40.702586 90.235204 40.620829 90.226746 C 40.539072 90.218852 40.458443 90.207012 40.377814 90.19066 C 40.297749 90.174873 40.218247 90.155139 40.139874 90.131457 C 40.0615 90.107212 39.984254 90.080148 39.908699 90.048573 C 39.832581 90.016998 39.758718 89.98204 39.686547 89.943699 C 39.614375 89.904794 39.543895 89.86307 39.476235 89.817399 C 39.40801 89.771728 39.342041 89.723238 39.278891 89.6708 C 39.215177 89.618927 39.154846 89.564235 39.096771 89.506159 C 39.038695 89.448084 38.984003 89.387753 38.932129 89.324039 C 38.879692 89.260889 38.831202 89.19492 38.785531 89.127259 C 38.73986 89.059035 38.698136 88.988555 38.659231 88.916383 C 38.62089 88.844212 38.585932 88.770349 38.554357 88.69423 C 38.523346 88.618676 38.495718 88.54143 38.471473 88.463056 C 38.447791 88.384682 38.428057 88.305745 38.412269 88.225116 C 38.395918 88.144487 38.384077 88.063858 38.376184 87.982101 C 38.36829 87.900908 38.363779 87.819151 38.363779 87.736831 C 38.363779 87.655074 38.36829 87.573317 38.376184 87.491561 C 38.384077 87.410368 38.395918 87.329175 38.412269 87.24911 C 38.428057 87.168481 38.447791 87.088979 38.471473 87.010606 C 38.495718 86.932232 38.523346 86.854986 38.554357 86.779431 C 38.585932 86.703877 38.62089 86.630014 38.659231 86.557279 C 38.698136 86.485107 38.73986 86.415191 38.785531 86.346966 C 38.831202 86.278742 38.879692 86.213336 38.932129 86.149623 C 38.984003 86.086473 39.038695 86.025578 39.096771 85.968066 C 39.154846 85.909991 39.215177 85.854735 39.278891 85.802861 C 39.342041 85.750988 39.40801 85.701934 39.476235 85.656827 C 39.543895 85.611156 39.614375 85.568868 39.686547 85.530527 C 39.758718 85.491622 39.832581 85.456664 39.908699 85.425653 C 39.984254 85.394078 40.0615 85.36645 40.139874 85.342768 C 40.218247 85.319087 40.297749 85.298789 40.377814 85.283001 C 40.458443 85.267214 40.539072 85.254809 40.620829 85.246916 C 40.702586 85.239022 40.784342 85.235075 40.866099 85.235075 C 40.947856 85.235075 41.029612 85.239022 41.111369 85.246916 C 41.192562 85.254809 41.273755 85.267214 41.354384 85.283001 C 41.434449 85.298789 41.513951 85.319087 41.592324 85.342768 C 41.670698 85.36645 41.747944 85.394078 41.823498 85.425653 C 41.899053 85.456664 41.972916 85.491622 42.045651 85.530527 C 42.117823 85.568868 42.187739 85.611156 42.255963 85.656827 C 42.324188 85.701934 42.390157 85.750988 42.453307 85.802861 C 42.516457 85.854735 42.577352 85.909991 42.635427 85.968066 C 42.692939 86.025578 42.748195 86.086473 42.800069 86.149623 C 42.851942 86.213336 42.900996 86.278742 42.946103 86.346966 C 42.991774 86.415191 43.034062 86.485107 43.072403 86.557279 C 43.111308 86.630014 43.146266 86.703877 43.177277 86.779431 C 43.208852 86.854986 43.23648 86.932232 43.260162 87.010606 C 43.283843 87.088979 43.304141 87.168481 43.319929 87.24911 C 43.335716 87.329175 43.348121 87.410368 43.356014 87.491561 C 43.363908 87.573317 43.367855 87.655074 43.367855 87.736831 Z M 43.367855 87.736831 " stroke="#ff6600" stroke-width="2.5" stroke-opacity="1" stroke-miterlimit="4"/></g></svg>