<svg xmlns="http://www.w3.org/2000/svg" xmlns:xlink="http://www.w3.org/1999/xlink" width="1024" zoomAndPan="magnify" viewBox="0 0 768 767.999994" height="1024" preserveAspectRatio="xMidYMid meet" version="1.0"><defs><clipPath id="5489284128"><path d="M 385 384 L 763 384 L 763 761 L 385 761 Z M 385 384 " clip-rule="nonzero"/></clipPath></defs><path fill="#f390b5" d="M 318.902344 272.265625 C 318.902344 272.265625 174.707031 215.175781 77.796875 313.660156 C 77.796875 313.660156 45.875 348.144531 48.207031 385.023438 C 48.207031 385.023438 11.238281 371.714844 5.632812 404.316406 C 0.0351562 436.917969 45.886719 428.183594 45.886719 428.183594 C 45.886719 428.183594 50.816406 499.269531 109.59375 512.808594 C 168.375 526.34375 193.128906 512.867188 207.160156 520.96875 C 207.160156 520.96875 151.621094 540.617188 164.800781 560.222656 C 177.980469 579.828125 225.304688 569.886719 242.195312 548.628906 C 242.195312 548.628906 294.644531 580.148438 305.226562 565.542969 C 315.8125 550.9375 282.3125 518.578125 282.3125 518.578125 C 282.3125 518.578125 380.875 447.328125 400.609375 408.027344 C 420.339844 368.714844 438.082031 305.5 438.082031 305.5 Z M 318.902344 272.265625 " fill-opacity="1" fill-rule="nonzero"/><path fill="#f390b5" d="M 421.636719 190.941406 C 421.636719 190.941406 504.054688 167.269531 548.414062 254.570312 C 548.414062 254.570312 552.113281 269.335938 550.722656 286.632812 C 549.332031 303.925781 572.660156 310.511719 560.71875 337.042969 C 548.78125 363.578125 520.730469 391.125 461.835938 395.054688 C 402.941406 398.996094 375.523438 388.457031 346.710938 342.308594 C 346.710938 342.308594 338.390625 295.871094 355.605469 249.984375 C 355.605469 249.984375 302.597656 227.898438 263.902344 172.636719 C 225.210938 117.371094 205.996094 76.3125 237.117188 38.355469 C 268.234375 0.398438 300.734375 36.90625 300.734375 36.90625 C 300.734375 36.90625 297.492188 4.097656 342.726562 3.523438 C 387.957031 2.949219 417.441406 89.242188 419.40625 128.839844 C 421.371094 168.453125 421.636719 190.941406 421.636719 190.941406 Z M 421.636719 190.941406 " fill-opacity="1" fill-rule="nonzero"/><path fill="#fff1d7" d="M 363.949219 207.109375 C 363.949219 207.109375 314.628906 42.757812 258.445312 59.902344 C 202.261719 77.046875 325.707031 196.753906 363.949219 207.109375 Z M 363.949219 207.109375 " fill-opacity="1" fill-rule="nonzero"/><path fill="#fff1d7" d="M 559.546875 311.523438 C 559.546875 311.523438 552.582031 308.453125 539.5625 314.738281 C 526.542969 321.035156 550.964844 334.757812 554.433594 330.046875 C 557.902344 325.335938 563.535156 318.082031 559.546875 311.523438 Z M 559.546875 311.523438 " fill-opacity="1" fill-rule="nonzero"/><path fill="#1f1f1f" d="M 491.882812 290.304688 C 491.945312 291.1875 491.925781 292.066406 491.816406 292.941406 C 491.710938 293.820312 491.519531 294.679688 491.246094 295.515625 C 490.972656 296.355469 490.621094 297.160156 490.191406 297.929688 C 489.761719 298.695312 489.261719 299.414062 488.691406 300.082031 C 488.121094 300.75 487.496094 301.355469 486.808594 301.894531 C 486.121094 302.4375 485.386719 302.90625 484.609375 303.300781 C 483.832031 303.699219 483.023438 304.011719 482.183594 304.246094 C 481.34375 304.476562 480.488281 304.625 479.621094 304.6875 C 478.753906 304.75 477.886719 304.726562 477.023438 304.617188 C 476.160156 304.503906 475.3125 304.308594 474.484375 304.03125 C 473.660156 303.75 472.867188 303.390625 472.109375 302.953125 C 471.351562 302.515625 470.644531 302.007812 469.984375 301.425781 C 469.328125 300.847656 468.730469 300.207031 468.195312 299.507812 C 467.660156 298.808594 467.195312 298.066406 466.804688 297.273438 C 466.414062 296.484375 466.101562 295.660156 465.871094 294.808594 C 465.640625 293.957031 465.492188 293.089844 465.429688 292.207031 C 465.367188 291.324219 465.386719 290.445312 465.496094 289.566406 C 465.601562 288.691406 465.792969 287.832031 466.066406 286.992188 C 466.339844 286.152344 466.691406 285.351562 467.121094 284.582031 C 467.550781 283.816406 468.050781 283.097656 468.621094 282.429688 C 469.1875 281.761719 469.816406 281.15625 470.503906 280.613281 C 471.191406 280.070312 471.921875 279.601562 472.703125 279.207031 C 473.480469 278.8125 474.289062 278.5 475.128906 278.265625 C 475.96875 278.03125 476.820312 277.882812 477.691406 277.820312 C 478.558594 277.757812 479.425781 277.785156 480.289062 277.894531 C 481.152344 278.003906 482 278.199219 482.824219 278.480469 C 483.652344 278.761719 484.445312 279.121094 485.203125 279.558594 C 485.957031 279.996094 486.667969 280.503906 487.324219 281.082031 C 487.984375 281.664062 488.582031 282.300781 489.117188 283 C 489.652344 283.699219 490.117188 284.445312 490.507812 285.234375 C 490.898438 286.027344 491.207031 286.847656 491.441406 287.703125 C 491.671875 288.554688 491.820312 289.421875 491.882812 290.304688 Z M 491.882812 290.304688 " fill-opacity="1" fill-rule="nonzero"/><path fill="#1f1f1f" d="M 387.082031 205.523438 L 389.78125 205.167969 C 375.074219 89.675781 302.25 36.300781 301.515625 35.769531 L 299.953125 38.035156 C 300.664062 38.5625 372.535156 91.296875 387.082031 205.523438 Z M 387.082031 205.523438 " fill-opacity="1" fill-rule="nonzero"/><path fill="#1f1f1f" d="M 347.609375 280.929688 C 347.78125 279.816406 347.90625 279.183594 347.917969 279.128906 L 350.628906 279.691406 C 350.515625 280.21875 339.863281 334.34375 381.324219 367.613281 L 379.589844 369.773438 C 341.148438 338.929688 346.113281 290.800781 347.609375 280.929688 Z M 347.609375 280.929688 " fill-opacity="1" fill-rule="nonzero"/><path fill="#070707" d="M 240.769531 549.902344 C 240.554688 549.660156 218.683594 525.449219 206.746094 522.828125 L 207.5625 519.09375 C 220.683594 521.980469 242.679688 546.316406 243.597656 547.351562 Z M 240.769531 549.902344 " fill-opacity="1" fill-rule="nonzero"/><path fill="#070707" d="M 280.898438 519.875 C 280.589844 519.542969 250.054688 486.6875 217.304688 478.65625 L 215.085938 478.117188 L 216.019531 476.023438 C 216.085938 475.863281 223.328125 459.371094 222.375 438.8125 C 221.097656 411.429688 206.617188 390.101562 179.335938 375.425781 L 181.140625 372.058594 C 216.765625 391.214844 225.304688 418.910156 226.199219 438.78125 C 226.980469 456.109375 222.328125 470.324219 220.363281 475.496094 C 253.378906 484.609375 282.472656 515.933594 283.726562 517.289062 Z M 280.898438 519.875 " fill-opacity="1" fill-rule="nonzero"/><path fill="#070707" d="M 233.832031 484.136719 L 232.726562 480.484375 C 237.300781 479.105469 248.621094 460.808594 254.675781 449.59375 L 258.03125 451.410156 C 255.285156 456.476562 241.230469 481.894531 233.832031 484.136719 Z M 233.832031 484.136719 " fill-opacity="1" fill-rule="nonzero"/><g clip-path="url(#5489284128)"><path fill="#ff914d" d="M 573.207031 383.570312 C 572.183594 383.585938 571.160156 383.652344 570.140625 383.765625 C 569.121094 383.882812 568.109375 384.046875 567.105469 384.261719 C 566.101562 384.476562 565.109375 384.742188 564.132812 385.054688 C 563.15625 385.363281 562.195312 385.722656 561.253906 386.128906 C 560.3125 386.535156 559.390625 386.988281 558.492188 387.484375 C 557.59375 387.980469 556.722656 388.519531 555.878906 389.105469 C 555.035156 389.6875 554.21875 390.308594 553.433594 390.96875 C 552.652344 391.632812 551.902344 392.332031 551.1875 393.066406 C 550.472656 393.804688 549.792969 394.574219 549.152344 395.375 C 548.515625 396.175781 547.914062 397.007812 547.355469 397.871094 C 546.796875 398.730469 546.285156 399.617188 545.8125 400.53125 C 545.34375 401.441406 544.917969 402.375 544.539062 403.328125 C 544.15625 404.28125 543.824219 405.25 543.542969 406.238281 C 543.257812 407.222656 543.023438 408.21875 542.835938 409.230469 C 542.648438 410.238281 542.511719 411.253906 542.425781 412.277344 C 542.339844 413.300781 542.304688 414.324219 542.316406 415.351562 L 542.316406 540.75 L 416.917969 540.75 C 415.882812 540.734375 414.847656 540.773438 413.816406 540.859375 C 412.78125 540.949219 411.757812 541.085938 410.738281 541.277344 C 409.71875 541.464844 408.714844 541.707031 407.71875 541.996094 C 406.722656 542.285156 405.746094 542.621094 404.785156 543.007812 C 403.824219 543.394531 402.882812 543.828125 401.964844 544.308594 C 401.046875 544.785156 400.152344 545.308594 399.285156 545.878906 C 398.421875 546.445312 397.582031 547.054688 396.777344 547.707031 C 395.972656 548.359375 395.199219 549.046875 394.460938 549.773438 C 393.722656 550.5 393.023438 551.265625 392.363281 552.0625 C 391.699219 552.859375 391.078125 553.683594 390.496094 554.542969 C 389.917969 555.402344 389.382812 556.285156 388.890625 557.199219 C 388.394531 558.109375 387.949219 559.042969 387.550781 560 C 387.152344 560.957031 386.800781 561.929688 386.496094 562.917969 C 386.191406 563.910156 385.9375 564.914062 385.734375 565.929688 C 385.53125 566.945312 385.378906 567.96875 385.273438 569 C 385.171875 570.03125 385.121094 571.0625 385.121094 572.101562 C 385.121094 573.136719 385.171875 574.171875 385.273438 575.199219 C 385.378906 576.230469 385.53125 577.253906 385.734375 578.269531 C 385.9375 579.289062 386.191406 580.289062 386.496094 581.28125 C 386.800781 582.273438 387.152344 583.246094 387.550781 584.199219 C 387.949219 585.15625 388.394531 586.089844 388.890625 587.003906 C 389.382812 587.914062 389.917969 588.800781 390.496094 589.65625 C 391.078125 590.515625 391.699219 591.34375 392.363281 592.140625 C 393.023438 592.9375 393.722656 593.699219 394.460938 594.425781 C 395.199219 595.152344 395.972656 595.84375 396.777344 596.496094 C 397.582031 597.144531 398.421875 597.753906 399.285156 598.324219 C 400.152344 598.890625 401.046875 599.414062 401.964844 599.894531 C 402.882812 600.375 403.824219 600.804688 404.785156 601.191406 C 405.746094 601.578125 406.722656 601.917969 407.71875 602.207031 C 408.714844 602.496094 409.71875 602.734375 410.738281 602.925781 C 411.757812 603.113281 412.78125 603.253906 413.816406 603.339844 C 414.847656 603.429688 415.882812 603.464844 416.917969 603.449219 L 542.316406 603.449219 L 542.316406 728.851562 C 542.304688 729.886719 542.339844 730.921875 542.425781 731.953125 C 542.515625 732.984375 542.65625 734.011719 542.84375 735.03125 C 543.035156 736.046875 543.273438 737.054688 543.5625 738.050781 C 543.851562 739.046875 544.191406 740.023438 544.574219 740.984375 C 544.960938 741.945312 545.394531 742.886719 545.875 743.804688 C 546.355469 744.722656 546.878906 745.617188 547.445312 746.480469 C 548.015625 747.347656 548.625 748.183594 549.273438 748.992188 C 549.925781 749.796875 550.613281 750.570312 551.339844 751.308594 C 552.070312 752.042969 552.832031 752.746094 553.628906 753.40625 C 554.425781 754.070312 555.253906 754.691406 556.109375 755.269531 C 556.96875 755.851562 557.855469 756.386719 558.765625 756.878906 C 559.679688 757.371094 560.613281 757.816406 561.566406 758.21875 C 562.523438 758.617188 563.496094 758.96875 564.488281 759.273438 C 565.476562 759.578125 566.480469 759.828125 567.496094 760.035156 C 568.511719 760.238281 569.535156 760.390625 570.566406 760.492188 C 571.597656 760.597656 572.632812 760.648438 573.667969 760.648438 C 574.703125 760.648438 575.738281 760.597656 576.769531 760.492188 C 577.800781 760.390625 578.824219 760.238281 579.839844 760.035156 C 580.855469 759.828125 581.859375 759.578125 582.847656 759.273438 C 583.839844 758.96875 584.8125 758.617188 585.769531 758.21875 C 586.722656 757.816406 587.65625 757.371094 588.570312 756.878906 C 589.480469 756.386719 590.367188 755.851562 591.226562 755.269531 C 592.082031 754.691406 592.910156 754.070312 593.707031 753.40625 C 594.503906 752.746094 595.265625 752.042969 595.996094 751.308594 C 596.722656 750.570312 597.410156 749.796875 598.0625 748.992188 C 598.710938 748.183594 599.320312 747.347656 599.890625 746.480469 C 600.457031 745.617188 600.980469 744.722656 601.460938 743.804688 C 601.941406 742.886719 602.375 741.945312 602.761719 740.984375 C 603.144531 740.023438 603.484375 739.046875 603.773438 738.050781 C 604.0625 737.054688 604.300781 736.046875 604.492188 735.03125 C 604.679688 734.011719 604.820312 732.984375 604.90625 731.953125 C 604.996094 730.921875 605.03125 729.886719 605.019531 728.851562 L 605.019531 603.449219 L 730.417969 603.449219 C 731.453125 603.464844 732.488281 603.429688 733.519531 603.339844 C 734.554688 603.253906 735.578125 603.113281 736.597656 602.925781 C 737.617188 602.734375 738.621094 602.496094 739.617188 602.207031 C 740.613281 601.917969 741.589844 601.578125 742.550781 601.191406 C 743.511719 600.804688 744.453125 600.375 745.371094 599.894531 C 746.289062 599.414062 747.183594 598.890625 748.050781 598.324219 C 748.914062 597.753906 749.753906 597.144531 750.558594 596.496094 C 751.363281 595.84375 752.136719 595.152344 752.875 594.425781 C 753.613281 593.699219 754.3125 592.9375 754.972656 592.140625 C 755.636719 591.34375 756.257812 590.515625 756.839844 589.65625 C 757.417969 588.796875 757.953125 587.914062 758.445312 587.003906 C 758.9375 586.089844 759.386719 585.15625 759.785156 584.199219 C 760.183594 583.246094 760.535156 582.273438 760.839844 581.28125 C 761.144531 580.289062 761.398438 579.289062 761.601562 578.269531 C 761.804688 577.253906 761.957031 576.230469 762.0625 575.199219 C 762.164062 574.171875 762.214844 573.136719 762.214844 572.101562 C 762.214844 571.0625 762.164062 570.03125 762.0625 569 C 761.957031 567.96875 761.804688 566.945312 761.601562 565.929688 C 761.398438 564.914062 761.144531 563.910156 760.839844 562.917969 C 760.535156 561.929688 760.183594 560.957031 759.785156 560 C 759.386719 559.042969 758.9375 558.109375 758.445312 557.199219 C 757.953125 556.285156 757.417969 555.402344 756.839844 554.542969 C 756.257812 553.683594 755.636719 552.859375 754.972656 552.0625 C 754.3125 551.265625 753.613281 550.5 752.875 549.773438 C 752.136719 549.046875 751.363281 548.359375 750.558594 547.707031 C 749.753906 547.054688 748.914062 546.445312 748.050781 545.878906 C 747.183594 545.308594 746.289062 544.785156 745.371094 544.308594 C 744.453125 543.828125 743.511719 543.394531 742.550781 543.007812 C 741.589844 542.621094 740.613281 542.285156 739.617188 541.996094 C 738.621094 541.707031 737.617188 541.464844 736.597656 541.277344 C 735.578125 541.085938 734.554688 540.949219 733.519531 540.859375 C 732.488281 540.773438 731.453125 540.734375 730.417969 540.75 L 605.019531 540.75 L 605.019531 415.351562 C 605.03125 414.304688 604.996094 413.261719 604.90625 412.21875 C 604.8125 411.179688 604.671875 410.144531 604.480469 409.117188 C 604.285156 408.089844 604.042969 407.074219 603.746094 406.070312 C 603.449219 405.070312 603.105469 404.082031 602.710938 403.113281 C 602.320312 402.144531 601.878906 401.199219 601.390625 400.273438 C 600.902344 399.351562 600.367188 398.453125 599.789062 397.582031 C 599.210938 396.710938 598.59375 395.871094 597.929688 395.0625 C 597.265625 394.253906 596.566406 393.480469 595.828125 392.742188 C 595.085938 392 594.3125 391.300781 593.503906 390.640625 C 592.695312 389.980469 591.851562 389.359375 590.980469 388.78125 C 590.109375 388.203125 589.210938 387.671875 588.289062 387.183594 C 587.363281 386.699219 586.414062 386.257812 585.445312 385.863281 C 584.476562 385.472656 583.492188 385.128906 582.488281 384.835938 C 581.484375 384.539062 580.46875 384.296875 579.441406 384.105469 C 578.414062 383.910156 577.378906 383.769531 576.339844 383.683594 C 575.296875 383.59375 574.253906 383.554688 573.207031 383.570312 Z M 573.207031 383.570312 " fill-opacity="1" fill-rule="nonzero"/></g></svg>