<svg xmlns="http://www.w3.org/2000/svg" xmlns:xlink="http://www.w3.org/1999/xlink" width="1024" zoomAndPan="magnify" viewBox="0 0 768 767.999994" height="1024" preserveAspectRatio="xMidYMid meet" version="1.0"><path fill="#ff66c4" d="M 61.851562 545.792969 C 61.851562 544.355469 61.851562 542.917969 61.851562 541.480469 C 63.289062 353.078125 221.484375 302.742188 314.96875 302.742188 C 314.96875 302.742188 316.40625 302.742188 316.40625 302.742188 C 359.550781 302.742188 394.066406 296.992188 409.886719 286.925781 C 409.886719 286.925781 409.886719 285.484375 409.886719 284.046875 C 409.886719 273.980469 409.886719 255.285156 419.953125 236.589844 C 422.828125 230.835938 425.707031 227.960938 427.144531 223.644531 C 415.636719 216.453125 394.066406 203.511719 369.617188 192.003906 L 358.113281 186.253906 C 310.652344 166.117188 245.933594 137.355469 256.003906 89.894531 C 258.878906 78.390625 266.070312 68.324219 277.574219 62.570312 C 302.023438 51.066406 343.730469 59.695312 381.121094 72.636719 C 379.683594 68.324219 379.683594 64.007812 379.683594 59.695312 C 379.683594 48.1875 385.4375 39.558594 395.503906 32.367188 C 442.964844 3.605469 510.558594 64.007812 529.253906 88.457031 C 543.636719 107.152344 578.152344 147.421875 588.21875 157.488281 C 622.734375 166.117188 651.496094 187.691406 681.699219 220.769531 C 726.28125 268.226562 760.796875 334.382812 740.664062 378.964844 C 720.527344 420.671875 641.429688 436.492188 621.296875 437.929688 C 612.667969 590.375 628.488281 637.835938 628.488281 637.835938 L 629.925781 640.710938 L 629.925781 643.589844 C 629.925781 646.464844 631.363281 650.777344 632.800781 653.65625 C 654.375 652.21875 683.136719 656.53125 703.269531 673.789062 C 714.777344 683.855469 720.527344 698.238281 720.527344 715.496094 C 720.527344 727 716.214844 737.070312 707.585938 745.699219 C 690.328125 762.957031 660.125 764.394531 635.675781 764.394531 C 631.363281 764.394531 627.046875 764.394531 624.171875 764.394531 L 616.980469 764.394531 C 583.902344 764.394531 558.015625 728.441406 552.265625 721.25 C 540.757812 703.992188 496.175781 637.835938 468.851562 593.253906 C 464.535156 606.195312 457.34375 619.140625 448.714844 629.207031 C 444.402344 634.960938 437.210938 642.148438 430.019531 647.902344 C 471.726562 653.65625 487.546875 662.285156 497.613281 672.351562 C 511.996094 685.296875 513.433594 701.113281 513.433594 712.621094 C 513.433594 745.699219 490.421875 760.078125 478.917969 762.957031 L 178.339844 762.957031 C 146.703125 762.957031 133.757812 752.890625 125.128906 734.191406 L 123.691406 731.316406 C 113.625 714.058594 122.253906 695.363281 128.003906 679.542969 C 129.445312 675.226562 130.882812 672.351562 132.320312 669.476562 C 132.320312 668.039062 133.757812 666.597656 133.757812 665.160156 C 132.320312 666.597656 130.882812 666.597656 129.445312 666.597656 C 115.0625 673.789062 99.242188 680.980469 84.859375 680.980469 C 66.164062 682.417969 46.03125 675.226562 31.648438 662.285156 C 21.582031 653.65625 10.078125 636.398438 10.078125 607.632812 C 7.199219 594.691406 14.390625 557.296875 61.851562 545.792969 Z M 491.859375 117.21875 C 477.480469 98.523438 447.277344 75.515625 428.582031 71.199219 C 445.839844 92.773438 493.300781 130.164062 514.871094 144.546875 C 506.242188 134.480469 497.613281 125.851562 491.859375 117.21875 Z M 58.972656 639.273438 C 64.726562 645.027344 73.355469 646.464844 80.546875 646.464844 C 86.300781 646.464844 99.242188 639.273438 107.871094 634.960938 C 128.003906 626.332031 142.386719 617.703125 156.769531 627.769531 C 172.589844 639.273438 178.339844 665.160156 171.152344 689.609375 C 169.710938 693.925781 168.273438 698.238281 165.398438 702.554688 C 163.960938 706.867188 159.644531 715.496094 159.644531 718.371094 L 159.644531 719.8125 C 161.082031 721.25 161.082031 724.125 161.082031 724.125 C 161.082031 724.125 163.960938 725.5625 174.027344 725.5625 L 465.972656 725.5625 C 467.414062 724.125 467.414062 721.25 467.414062 718.371094 C 467.414062 711.183594 465.972656 711.183594 464.535156 709.742188 C 458.785156 703.992188 432.894531 691.046875 326.472656 693.925781 L 323.597656 650.777344 C 372.492188 645.027344 398.378906 624.890625 411.324219 607.632812 C 425.707031 590.375 431.457031 568.804688 428.582031 548.667969 L 428.582031 545.792969 C 428.582031 525.660156 440.085938 517.03125 450.152344 515.59375 C 465.972656 512.714844 477.480469 522.78125 486.109375 547.230469 C 490.421875 560.175781 539.320312 634.960938 583.902344 701.113281 C 591.09375 712.621094 605.476562 725.5625 612.667969 725.5625 L 621.296875 725.5625 C 651.496094 725.5625 668.753906 724.125 673.070312 719.8125 C 673.070312 714.058594 671.632812 711.183594 668.753906 709.742188 C 663.003906 703.992188 650.058594 701.113281 634.238281 701.113281 C 632.800781 701.113281 629.925781 701.113281 628.488281 701.113281 C 618.417969 701.113281 608.351562 698.238281 599.722656 691.046875 C 586.78125 679.542969 583.902344 660.847656 582.464844 652.21875 C 578.152344 637.835938 565.207031 578.871094 573.835938 424.988281 C 576.710938 396.222656 604.039062 396.222656 614.105469 396.222656 C 632.800781 396.222656 688.890625 378.964844 696.082031 361.707031 C 704.710938 343.011719 687.453125 295.554688 645.746094 250.96875 C 604.039062 206.386719 578.152344 190.566406 524.9375 199.195312 L 513.433594 200.632812 L 506.242188 192.003906 C 506.242188 192.003906 473.164062 158.925781 415.636719 131.601562 C 350.921875 101.402344 307.777344 94.210938 296.269531 97.085938 C 297.707031 104.277344 313.527344 117.222656 373.929688 143.109375 L 386.875 154.613281 C 442.964844 179.0625 471.726562 200.632812 474.601562 216.453125 C 476.042969 226.519531 473.164062 232.273438 467.414062 240.902344 C 465.972656 243.777344 461.660156 249.53125 457.34375 256.722656 C 451.59375 265.351562 453.03125 273.980469 453.03125 282.609375 C 453.03125 292.675781 453.03125 305.621094 442.964844 314.25 C 419.953125 334.382812 378.246094 344.449219 316.40625 344.449219 C 294.832031 344.449219 106.433594 348.765625 104.996094 540.039062 C 104.996094 542.917969 104.996094 545.792969 104.996094 547.230469 C 104.996094 555.859375 107.871094 580.308594 79.109375 584.625 C 57.535156 587.5 50.34375 596.128906 50.34375 613.386719 C 50.34375 626.332031 53.222656 633.519531 58.972656 639.273438 Z M 58.972656 639.273438 " fill-opacity="1" fill-rule="nonzero"/></svg>