<?xml version="1.0"?>
<svg width="720" height="720" xmlns="http://www.w3.org/2000/svg" xmlns:svg="http://www.w3.org/2000/svg" xmlns:xlink="http://www.w3.org/1999/xlink" version="1.1" xml:space="preserve">
 <!-- Created with SVG-edit - https://github.com/SVG-Edit/svgedit-->
 <defs>
  <symbol height="720" id="svg_69" version="1.1" width="720" xml:space="preserve" xmlns="http://www.w3.org/2000/svg" xmlns:svg="http://www.w3.org/2000/svg" xmlns:xlink="http://www.w3.org/1999/xlink">
   <!-- Created with SVG-edit - https://github.com/SVG-Edit/svgedit-->
   <defs>
    <symbol height="800px" id="svg_63" viewBox="0 0 72 72" width="800px" xmlns="http://www.w3.org/2000/svg">
     <g id="svg_68">
      <path d="m31.39,26.72c0,0 9.23,-1.82 8.42,-9.2c-1.35,-12.26 -1.47,-10.42 -1.47,-10.42l-5.53,1.01c0,0 3.19,13.59 -1.42,18.61z" fill="#92d3f5"/>
      <path d="m34.54,7.04c-8.14,0 -14.75,7.49 -14.75,16.74l0,16.39l29.5,0" fill="#92d3f5" stroke-linecap="round" stroke-linejoin="round" stroke-miterlimit="10" stroke-width="2"/>
      <rect fill="#d0cfce" height="22.09" stroke-linecap="round" stroke-linejoin="round" stroke-miterlimit="10" stroke-width="2" width="4" x="26.83" y="44.5"/>
      <rect fill="#d0cfce" height="16.48" stroke-linecap="round" stroke-linejoin="round" stroke-miterlimit="10" stroke-width="2" width="4" x="41.33" y="44.5"/>
      <path d="m34.54,7.56c0,0 15.32,0.55 15.91,13.88c0.96,22.14 0.06,18.92 0.06,18.92l-9.32,-0.19c0,0 1.43,-25.04 -6.65,-32.61z" fill="#61b2e4"/>
      <rect fill="#61b2e4" height="3.08" width="11.83" x="43.33" y="40.79"/>
      <rect fill="#92d3f5" height="3.08" width="27" x="16.34" y="40.79"/>
     </g>
     <g id="svg_67"/>
     <g id="svg_66"/>
     <g id="svg_65"/>
     <g id="svg_64">
      <path d="m34.54,7.04c-8.14,0 -14.75,7.49 -14.75,16.74l0,16.39l29.5,0" fill="none" stroke="#000000" stroke-linecap="round" stroke-linejoin="round" stroke-miterlimit="10" stroke-width="2"/>
      <rect fill="none" height="22.09" stroke="#000000" stroke-linecap="round" stroke-linejoin="round" stroke-miterlimit="10" stroke-width="2" width="4" x="26.83" y="44.5"/>
      <rect fill="none" height="16.48" stroke="#000000" stroke-linecap="round" stroke-linejoin="round" stroke-miterlimit="10" stroke-width="2" width="4" x="41.33" y="44.5"/>
      <path d="m25.81,19.06" fill="none" stroke="#000000" stroke-linecap="round" stroke-linejoin="round" stroke-miterlimit="10" stroke-width="2"/>
      <path d="m35.25,7.04c8.15,0 14.75,7.49 14.75,16.74l0,7.39" fill="none" stroke="#000000" stroke-linecap="round" stroke-linejoin="round" stroke-miterlimit="10" stroke-width="2"/>
      <polygon fill="none" points="16,44.5 45.5309,44.5 45.9063,44.5 56,44.5 56,40.1667 45.9063,40.1667 45.4999,40.1667 16,40.1667" stroke="#000000" stroke-linecap="round" stroke-linejoin="round" stroke-miterlimit="10" stroke-width="2"/>
     </g>
    </symbol>
    <symbol class="iconify iconify--fxemoji" height="800px" id="svg_61" preserveAspectRatio="xMidYMid meet" viewBox="0 0 512 512" width="800px" xmlns="http://www.w3.org/2000/svg" xmlns:xlink="http://www.w3.org/1999/xlink">
     <path d="m132.59,386.12c-65.89,0 -119.5,-53.6 -119.5,-119.5l0,-22.16c0,-65.89 53.61,-119.5 119.5,-119.5l246.82,0c65.89,0 119.5,53.61 119.5,119.5l0,22.16c0,65.9 -53.61,119.5 -119.5,119.5l-246.82,0z" fill="#2B3B47"/>
     <circle cx="399.49" cy="255.54" fill="#FF473E" r="62.54"/>
     <circle cx="255.56" cy="255.54" fill="#FFB636" r="62.54"/>
     <circle cx="111.63" cy="255.54" fill="#009E83" r="62.54"/>
     <path d="m399.49,211.85c31.34,0 57.29,23.05 61.84,53.12c0.46,-3.08 0.7,-6.22 0.7,-9.43c0,-34.54 -28,-62.54 -62.54,-62.54s-62.54,28 -62.54,62.54c0,3.21 0.24,6.35 0.71,9.43c4.54,-30.07 30.5,-53.12 61.83,-53.12z" fill="#D32A2A"/>
     <path d="m255.56,211.85c31.34,0 57.29,23.05 61.83,53.12c0.47,-3.08 0.71,-6.22 0.71,-9.43c0,-34.54 -28,-62.54 -62.54,-62.54s-62.54,28 -62.54,62.54c0,3.21 0.24,6.35 0.71,9.43c4.54,-30.07 30.49,-53.12 61.83,-53.12z" fill="#E2A042"/>
     <path d="m111.63,211.85c31.34,0 57.29,23.05 61.83,53.12c0.47,-3.08 0.71,-6.22 0.71,-9.43c0,-34.54 -28,-62.54 -62.54,-62.54s-62.54,28 -62.54,62.54c0,3.21 0.24,6.35 0.71,9.43c4.54,-30.07 30.49,-53.12 61.83,-53.12z" fill="#007F67"/>
     <path d="m379.41,136.47c59.64,0 108,48.35 108,108l0,22.15c0,59.65 -48.36,108 -108,108l-246.82,0c-59.64,0 -108,-48.35 -108,-108l0,-22.16c0,-59.64 48.36,-108 108,-108l246.82,0m0,-23l-246.82,0c-34.99,0 -67.89,13.63 -92.63,38.37c-24.74,24.75 -38.37,57.64 -38.37,92.63l0,22.16c0,34.99 13.63,67.89 38.37,92.63c24.74,24.75 57.64,38.37 92.63,38.37l246.82,0c34.99,0 67.88,-13.62 92.63,-38.37c24.74,-24.74 38.37,-57.64 38.37,-92.63l0,-22.15c0,-35 -13.63,-67.89 -38.37,-92.64c-24.74,-24.74 -57.64,-38.36 -92.63,-38.36l0,-0.01z" fill="#BFBCAF"/>
    </symbol>
   </defs>
   <g class="layer">
    <title>Layer 1</title>
    <use id="svg_62" transform="matrix(0.962668 0 0 0.996005 -49.1638 1618.49)" x="-63.44" xlink:href="#svg_63" y="-1672"/>
    <use id="svg_60" transform="matrix(0.86169 0 0 0.798911 -240.323 -149.165)" x="650.06" xlink:href="#svg_61" y="344.64"/>
   </g>
  </symbol>
 </defs>
 <g class="layer">
  <title>Layer 1</title>
  <use id="svg_70" transform="matrix(0.733146 0 0 1.05101 -26.5198 -17.95)" x="-5.86" xlink:href="#svg_69" y="-2.6"/>
 </g>
</svg>
