<svg xmlns="http://www.w3.org/2000/svg" xmlns:xlink="http://www.w3.org/1999/xlink" width="540" zoomAndPan="magnify" viewBox="0 0 404.88 404.99999" height="540" preserveAspectRatio="xMidYMid meet" version="1.0"><defs><clipPath id="7345cf0d98"><path d="M 121 70.707031 L 293 70.707031 L 293 334.628906 L 121 334.628906 Z M 121 70.707031 " clip-rule="nonzero"/></clipPath><clipPath id="90bbe9bbf0"><path d="M 111 54.777344 L 304 54.777344 L 304 350.191406 L 111 350.191406 Z M 111 54.777344 " clip-rule="nonzero"/></clipPath></defs><g clip-path="url(#7345cf0d98)"><path fill="#ffffff" d="M 208.082031 70.707031 C 153.683594 70.707031 122.832031 101.253906 121.953125 145.472656 L 121.953125 147.683594 L 169.980469 147.683594 L 169.980469 145.472656 C 171.035156 125.941406 184.515625 113.339844 204.890625 113.339844 C 225.089844 113.339844 238.558594 125.046875 238.558594 141.5625 C 238.558594 158.078125 231.644531 166.609375 208.789062 180.289062 C 184.332031 194.671875 174.578125 210.65625 176.878906 239.074219 L 177.160156 246.65625 L 224.199219 246.65625 L 224.199219 239.4375 C 224.199219 222.394531 230.761719 213.671875 254.328125 200.003906 C 279.3125 185.257812 292.238281 166.617188 292.238281 139.972656 C 292.238281 98.945312 258.765625 70.707031 208.082031 70.707031 Z M 201.695312 279.644531 C 183.667969 279.644531 172.421875 290.132812 172.421875 307.222656 C 172.421875 324.15625 183.679688 334.628906 201.695312 334.628906 C 219.714844 334.628906 230.820312 324.15625 230.820312 307.222656 C 230.820312 290.132812 219.726562 279.644531 201.695312 279.644531 Z M 201.695312 279.644531 " fill-opacity="1" fill-rule="nonzero"/></g><g clip-path="url(#90bbe9bbf0)"><path fill="#ffffff" d="M 208.53125 54.777344 C 147.386719 54.777344 112.714844 88.96875 111.726562 138.464844 L 111.726562 140.941406 L 165.707031 140.941406 L 165.707031 138.464844 C 166.890625 116.601562 182.042969 102.5 204.945312 102.5 C 227.648438 102.5 242.785156 115.601562 242.785156 134.089844 C 242.785156 152.574219 235.015625 162.121094 209.328125 177.433594 C 181.839844 193.535156 170.871094 211.425781 173.460938 243.234375 L 173.773438 251.71875 L 226.644531 251.71875 L 226.644531 243.640625 C 226.644531 224.5625 234.023438 214.804688 260.511719 199.503906 C 288.59375 182.996094 303.121094 162.132812 303.121094 132.308594 C 303.121094 86.382812 265.496094 54.777344 208.53125 54.777344 Z M 201.355469 288.644531 C 181.09375 288.644531 168.453125 300.386719 168.453125 319.515625 C 168.453125 338.46875 181.105469 350.191406 201.355469 350.191406 C 221.605469 350.191406 234.089844 338.46875 234.089844 319.515625 C 234.089844 300.386719 221.617188 288.644531 201.355469 288.644531 Z M 201.355469 288.644531 " fill-opacity="1" fill-rule="nonzero"/></g></svg>