<svg xmlns="http://www.w3.org/2000/svg" xmlns:xlink="http://www.w3.org/1999/xlink" width="1024" zoomAndPan="magnify" viewBox="0 0 768 767.999994" height="1024" preserveAspectRatio="xMidYMid meet" version="1.0"><defs><clipPath id="86eb198e30"><path d="M 321.394531 486.316406 L 446.644531 486.316406 L 446.644531 697 L 321.394531 697 Z M 321.394531 486.316406 " clip-rule="nonzero"/></clipPath><clipPath id="bea523ab83"><path d="M 431.578125 452 L 598 452 L 598 731 L 431.578125 731 Z M 431.578125 452 " clip-rule="nonzero"/></clipPath><clipPath id="099d40d5b9"><path d="M 558.257812 415.226562 L 768 415.226562 L 768 767.726562 L 558.257812 767.726562 Z M 558.257812 415.226562 " clip-rule="nonzero"/></clipPath></defs><path fill="#ececec" d="M 102.695312 345.347656 L 477.339844 345.347656 C 478.679688 345.347656 480.011719 345.253906 481.335938 345.0625 C 482.660156 344.875 483.964844 344.59375 485.25 344.21875 C 486.53125 343.847656 487.785156 343.382812 489.003906 342.832031 C 490.222656 342.28125 491.394531 341.644531 492.523438 340.929688 C 493.652344 340.210938 494.726562 339.417969 495.742188 338.546875 C 496.757812 337.675781 497.707031 336.738281 498.589844 335.734375 C 499.472656 334.730469 500.28125 333.667969 501.015625 332.546875 C 501.746094 331.429688 502.398438 330.261719 502.964844 329.050781 C 503.53125 327.839844 504.011719 326.59375 504.402344 325.316406 C 504.792969 324.035156 505.089844 322.734375 505.296875 321.414062 C 505.5 320.089844 505.613281 318.761719 505.628906 317.425781 C 505.648438 316.085938 505.570312 314.753906 505.398438 313.425781 C 505.226562 312.101562 504.964844 310.792969 504.605469 309.503906 C 504.25 308.214844 503.800781 306.957031 503.265625 305.730469 C 502.730469 304.503906 502.113281 303.324219 501.410156 302.183594 C 500.707031 301.046875 499.925781 299.964844 499.070312 298.9375 L 311.746094 74.308594 C 311.085938 73.515625 310.382812 72.761719 309.636719 72.042969 C 308.894531 71.328125 308.113281 70.652344 307.292969 70.023438 C 306.476562 69.390625 305.625 68.808594 304.742188 68.269531 C 303.859375 67.730469 302.949219 67.242188 302.015625 66.804688 C 301.078125 66.367188 300.121094 65.980469 299.144531 65.648438 C 298.164062 65.316406 297.171875 65.035156 296.164062 64.8125 C 295.15625 64.585938 294.136719 64.417969 293.109375 64.304688 C 292.082031 64.191406 291.050781 64.136719 290.019531 64.136719 C 288.984375 64.136719 287.957031 64.191406 286.929688 64.304688 C 285.902344 64.417969 284.882812 64.585938 283.875 64.8125 C 282.867188 65.035156 281.871094 65.316406 280.894531 65.648438 C 279.914062 65.980469 278.957031 66.367188 278.023438 66.804688 C 277.085938 67.242188 276.179688 67.730469 275.296875 68.269531 C 274.414062 68.808594 273.5625 69.390625 272.746094 70.023438 C 271.925781 70.652344 271.144531 71.328125 270.398438 72.042969 C 269.65625 72.761719 268.953125 73.515625 268.289062 74.308594 L 80.96875 298.9375 C 80.113281 299.964844 79.332031 301.046875 78.628906 302.183594 C 77.925781 303.324219 77.304688 304.503906 76.769531 305.730469 C 76.234375 306.957031 75.789062 308.214844 75.433594 309.503906 C 75.074219 310.792969 74.808594 312.101562 74.636719 313.425781 C 74.46875 314.753906 74.390625 316.085938 74.40625 317.425781 C 74.425781 318.761719 74.535156 320.089844 74.742188 321.414062 C 74.949219 322.734375 75.246094 324.035156 75.636719 325.316406 C 76.027344 326.59375 76.507812 327.839844 77.074219 329.050781 C 77.640625 330.261719 78.289062 331.429688 79.023438 332.546875 C 79.753906 333.667969 80.5625 334.730469 81.445312 335.734375 C 82.328125 336.738281 83.28125 337.675781 84.296875 338.546875 C 85.3125 339.417969 86.382812 340.210938 87.511719 340.929688 C 88.640625 341.644531 89.816406 342.28125 91.035156 342.832031 C 92.253906 343.382812 93.503906 343.847656 94.789062 344.21875 C 96.074219 344.59375 97.378906 344.875 98.703125 345.0625 C 100.027344 345.253906 101.359375 345.347656 102.695312 345.347656 Z M 290.019531 107.152344 L 457.199219 307.625 L 122.839844 307.625 Z M 290.019531 107.152344 " fill-opacity="1" fill-rule="nonzero"/><path fill="#ececec" d="M 478.625 394.195312 L 101.414062 394.195312 C 100.488281 394.195312 99.5625 394.242188 98.640625 394.335938 C 97.71875 394.425781 96.804688 394.5625 95.894531 394.746094 C 94.988281 394.925781 94.089844 395.152344 93.203125 395.421875 C 92.320312 395.691406 91.449219 396.003906 90.59375 396.359375 C 89.738281 396.714844 88.898438 397.109375 88.082031 397.546875 C 87.265625 397.984375 86.472656 398.457031 85.703125 398.972656 C 84.933594 399.488281 84.191406 400.039062 83.472656 400.628906 C 82.757812 401.214844 82.074219 401.835938 81.417969 402.492188 C 80.761719 403.148438 80.140625 403.832031 79.554688 404.546875 C 78.964844 405.265625 78.414062 406.007812 77.898438 406.777344 C 77.386719 407.546875 76.910156 408.339844 76.472656 409.15625 C 76.035156 409.972656 75.640625 410.808594 75.285156 411.664062 C 74.929688 412.519531 74.617188 413.390625 74.347656 414.277344 C 74.078125 415.164062 73.851562 416.0625 73.671875 416.96875 C 73.488281 417.878906 73.351562 418.792969 73.261719 419.714844 C 73.171875 420.636719 73.125 421.5625 73.121094 422.488281 L 73.121094 497.929688 C 73.125 498.855469 73.171875 499.78125 73.261719 500.699219 C 73.351562 501.621094 73.488281 502.539062 73.671875 503.445312 C 73.851562 504.355469 74.078125 505.25 74.347656 506.136719 C 74.617188 507.023438 74.929688 507.894531 75.285156 508.75 C 75.640625 509.605469 76.035156 510.441406 76.472656 511.257812 C 76.910156 512.074219 77.386719 512.867188 77.898438 513.640625 C 78.414062 514.410156 78.964844 515.152344 79.554688 515.867188 C 80.140625 516.582031 80.761719 517.269531 81.417969 517.925781 C 82.074219 518.578125 82.757812 519.199219 83.472656 519.789062 C 84.191406 520.375 84.933594 520.925781 85.703125 521.441406 C 86.472656 521.957031 87.265625 522.433594 88.082031 522.871094 C 88.898438 523.308594 89.738281 523.703125 90.59375 524.058594 C 91.449219 524.414062 92.320312 524.726562 93.203125 524.996094 C 94.089844 525.265625 94.988281 525.488281 95.894531 525.671875 C 96.804688 525.851562 97.71875 525.988281 98.640625 526.082031 C 99.5625 526.171875 100.488281 526.21875 101.414062 526.21875 L 478.625 526.21875 C 479.550781 526.21875 480.472656 526.171875 481.394531 526.082031 C 482.316406 525.988281 483.234375 525.851562 484.140625 525.671875 C 485.050781 525.488281 485.945312 525.265625 486.832031 524.996094 C 487.71875 524.726562 488.589844 524.414062 489.445312 524.058594 C 490.300781 523.703125 491.136719 523.308594 491.953125 522.871094 C 492.769531 522.433594 493.5625 521.957031 494.335938 521.441406 C 495.105469 520.925781 495.847656 520.375 496.5625 519.789062 C 497.277344 519.199219 497.964844 518.578125 498.621094 517.925781 C 499.273438 517.269531 499.894531 516.582031 500.484375 515.867188 C 501.070312 515.152344 501.621094 514.410156 502.136719 513.640625 C 502.652344 512.867188 503.128906 512.074219 503.566406 511.257812 C 504.003906 510.441406 504.398438 509.605469 504.753906 508.75 C 505.109375 507.894531 505.421875 507.023438 505.691406 506.136719 C 505.960938 505.25 506.183594 504.355469 506.367188 503.445312 C 506.546875 502.539062 506.683594 501.621094 506.777344 500.699219 C 506.867188 499.78125 506.914062 498.855469 506.914062 497.929688 L 506.914062 422.488281 C 506.914062 421.5625 506.867188 420.636719 506.777344 419.714844 C 506.683594 418.792969 506.546875 417.878906 506.367188 416.96875 C 506.183594 416.0625 505.960938 415.164062 505.691406 414.277344 C 505.421875 413.390625 505.109375 412.519531 504.753906 411.664062 C 504.398438 410.808594 504.003906 409.972656 503.566406 409.15625 C 503.128906 408.339844 502.652344 407.546875 502.136719 406.777344 C 501.621094 406.007812 501.070312 405.265625 500.484375 404.546875 C 499.894531 403.832031 499.273438 403.148438 498.621094 402.492188 C 497.964844 401.835938 497.277344 401.214844 496.5625 400.628906 C 495.847656 400.039062 495.105469 399.488281 494.335938 398.972656 C 493.5625 398.457031 492.769531 397.984375 491.953125 397.546875 C 491.136719 397.109375 490.300781 396.714844 489.445312 396.359375 C 488.589844 396.003906 487.71875 395.691406 486.832031 395.421875 C 485.945312 395.152344 485.050781 394.925781 484.140625 394.746094 C 483.234375 394.5625 482.316406 394.425781 481.394531 394.335938 C 480.472656 394.242188 479.550781 394.195312 478.625 394.195312 Z M 469.195312 488.5 L 110.84375 488.5 L 110.84375 431.917969 L 469.195312 431.917969 Z M 469.195312 488.5 " fill-opacity="1" fill-rule="nonzero"/><g clip-path="url(#86eb198e30)"><path fill="#ffde59" d="M 321.394531 696.609375 L 382.128906 591.609375 L 321.394531 486.609375 L 385.867188 486.609375 L 446.597656 591.609375 L 385.867188 696.609375 Z M 321.394531 696.609375 " fill-opacity="1" fill-rule="nonzero"/></g><g clip-path="url(#bea523ab83)"><path fill="#ff914d" d="M 431.578125 730.980469 L 512.1875 591.609375 L 431.578125 452.242188 L 517.152344 452.242188 L 597.761719 591.609375 L 517.152344 730.980469 Z M 431.578125 730.980469 " fill-opacity="1" fill-rule="nonzero"/></g><g clip-path="url(#099d40d5b9)"><path fill="#ff3131" d="M 558.257812 767.5 L 659.992188 591.609375 L 558.257812 415.71875 L 666.253906 415.71875 L 767.988281 591.609375 L 666.253906 767.5 Z M 558.257812 767.5 " fill-opacity="1" fill-rule="nonzero"/></g></svg>