<svg xmlns="http://www.w3.org/2000/svg" xmlns:xlink="http://www.w3.org/1999/xlink" width="1024" zoomAndPan="magnify" viewBox="0 0 768 767.999994" height="1024" preserveAspectRatio="xMidYMid meet" version="1.0"><defs><clipPath id="a51087285c"><path d="M 398.421875 393.988281 L 756 393.988281 L 756 751.738281 L 398.421875 751.738281 Z M 398.421875 393.988281 " clip-rule="nonzero"/></clipPath></defs><g clip-path="url(#a51087285c)"><path fill="#b6c9d6" d="M 577.167969 646.457031 C 536.449219 646.457031 503.445312 613.449219 503.445312 572.734375 C 503.445312 532.019531 536.449219 499.011719 577.167969 499.011719 C 617.882812 499.011719 650.886719 532.019531 650.886719 572.734375 C 650.886719 613.449219 617.882812 646.457031 577.167969 646.457031 Z M 746.261719 538.269531 L 713.257812 534.359375 C 710.273438 523.753906 706.042969 513.433594 700.542969 503.628906 L 721.109375 477.539062 C 724.542969 473.1875 724.171875 466.953125 720.253906 463.039062 L 686.863281 429.648438 C 682.949219 425.730469 676.714844 425.359375 672.363281 428.792969 L 646.273438 449.355469 C 636.46875 443.855469 626.140625 439.625 615.542969 436.644531 L 611.636719 403.636719 C 610.984375 398.132812 606.316406 393.988281 600.773438 393.988281 L 553.558594 393.988281 C 548.015625 393.988281 543.351562 398.132812 542.699219 403.636719 L 538.792969 436.644531 C 528.1875 439.625 517.867188 443.855469 508.058594 449.355469 L 481.96875 428.792969 C 477.617188 425.359375 471.386719 425.730469 467.46875 429.648438 L 434.082031 463.039062 C 430.164062 466.953125 429.792969 473.1875 433.226562 477.539062 L 453.789062 503.628906 C 448.289062 513.433594 444.054688 523.753906 441.078125 534.359375 L 408.070312 538.269531 C 402.566406 538.917969 398.421875 543.582031 398.421875 549.125 L 398.421875 596.339844 C 398.421875 601.886719 402.566406 606.550781 408.070312 607.203125 L 441.078125 611.109375 C 444.054688 621.710938 448.289062 632.035156 453.789062 641.839844 L 433.226562 667.929688 C 429.792969 672.28125 430.164062 678.515625 434.082031 682.429688 L 467.46875 715.820312 C 471.386719 719.738281 477.617188 720.109375 481.96875 716.675781 L 508.058594 696.113281 C 517.867188 701.613281 528.1875 705.84375 538.792969 708.824219 L 542.699219 741.828125 C 543.351562 747.335938 548.015625 751.480469 553.558594 751.480469 L 599.992188 751.480469 C 605.433594 751.480469 610.050781 747.476562 610.820312 742.082031 L 615.542969 708.824219 C 626.140625 705.84375 636.46875 701.613281 646.273438 696.113281 L 672.363281 716.675781 C 676.714844 720.109375 682.949219 719.738281 686.863281 715.820312 L 720.253906 682.429688 C 724.171875 678.515625 724.542969 672.28125 721.109375 667.929688 L 700.542969 641.839844 C 706.042969 632.035156 710.273438 621.710938 713.257812 611.109375 L 746.261719 607.203125 C 751.769531 606.550781 755.914062 601.886719 755.914062 596.339844 L 755.914062 549.125 C 755.914062 543.582031 751.769531 538.917969 746.261719 538.269531 " fill-opacity="1" fill-rule="nonzero"/></g><path fill="#f390b5" d="M 318.902344 272.265625 C 318.902344 272.265625 174.707031 215.175781 77.796875 313.660156 C 77.796875 313.660156 45.875 348.144531 48.207031 385.023438 C 48.207031 385.023438 11.238281 371.714844 5.632812 404.316406 C 0.0351562 436.917969 45.886719 428.183594 45.886719 428.183594 C 45.886719 428.183594 50.816406 499.269531 109.59375 512.808594 C 168.375 526.34375 193.128906 512.867188 207.160156 520.96875 C 207.160156 520.96875 151.621094 540.617188 164.800781 560.222656 C 177.980469 579.828125 225.304688 569.886719 242.195312 548.628906 C 242.195312 548.628906 294.644531 580.148438 305.226562 565.542969 C 315.8125 550.9375 282.3125 518.578125 282.3125 518.578125 C 282.3125 518.578125 380.875 447.328125 400.609375 408.027344 C 420.339844 368.714844 438.082031 305.5 438.082031 305.5 Z M 318.902344 272.265625 " fill-opacity="1" fill-rule="nonzero"/><path fill="#f390b5" d="M 421.636719 190.941406 C 421.636719 190.941406 504.054688 167.269531 548.414062 254.570312 C 548.414062 254.570312 552.113281 269.335938 550.722656 286.632812 C 549.332031 303.925781 572.660156 310.511719 560.71875 337.042969 C 548.78125 363.578125 520.730469 391.125 461.835938 395.054688 C 402.941406 398.996094 375.523438 388.457031 346.710938 342.308594 C 346.710938 342.308594 338.390625 295.871094 355.605469 249.984375 C 355.605469 249.984375 302.597656 227.898438 263.902344 172.636719 C 225.210938 117.371094 205.996094 76.3125 237.117188 38.355469 C 268.234375 0.398438 300.734375 36.90625 300.734375 36.90625 C 300.734375 36.90625 297.492188 4.097656 342.726562 3.523438 C 387.957031 2.949219 417.441406 89.242188 419.40625 128.839844 C 421.371094 168.453125 421.636719 190.941406 421.636719 190.941406 Z M 421.636719 190.941406 " fill-opacity="1" fill-rule="nonzero"/><path fill="#fff1d7" d="M 363.949219 207.109375 C 363.949219 207.109375 314.628906 42.757812 258.445312 59.902344 C 202.261719 77.046875 325.707031 196.753906 363.949219 207.109375 Z M 363.949219 207.109375 " fill-opacity="1" fill-rule="nonzero"/><path fill="#fff1d7" d="M 559.546875 311.523438 C 559.546875 311.523438 552.582031 308.453125 539.5625 314.738281 C 526.542969 321.035156 550.964844 334.757812 554.433594 330.046875 C 557.902344 325.335938 563.535156 318.082031 559.546875 311.523438 Z M 559.546875 311.523438 " fill-opacity="1" fill-rule="nonzero"/><path fill="#1f1f1f" d="M 491.882812 290.304688 C 491.945312 291.1875 491.925781 292.066406 491.816406 292.941406 C 491.710938 293.820312 491.519531 294.679688 491.246094 295.515625 C 490.972656 296.355469 490.621094 297.160156 490.191406 297.929688 C 489.761719 298.695312 489.261719 299.414062 488.691406 300.082031 C 488.121094 300.75 487.496094 301.355469 486.808594 301.894531 C 486.121094 302.4375 485.386719 302.90625 484.609375 303.300781 C 483.832031 303.699219 483.023438 304.011719 482.183594 304.246094 C 481.34375 304.476562 480.488281 304.625 479.621094 304.6875 C 478.753906 304.75 477.886719 304.726562 477.023438 304.617188 C 476.160156 304.503906 475.3125 304.308594 474.484375 304.03125 C 473.660156 303.75 472.867188 303.390625 472.109375 302.953125 C 471.351562 302.515625 470.644531 302.007812 469.984375 301.425781 C 469.328125 300.847656 468.730469 300.207031 468.195312 299.507812 C 467.660156 298.808594 467.195312 298.066406 466.804688 297.273438 C 466.414062 296.484375 466.101562 295.660156 465.871094 294.808594 C 465.640625 293.957031 465.492188 293.089844 465.429688 292.207031 C 465.367188 291.324219 465.386719 290.445312 465.496094 289.566406 C 465.601562 288.691406 465.792969 287.832031 466.066406 286.992188 C 466.339844 286.152344 466.691406 285.351562 467.121094 284.582031 C 467.550781 283.816406 468.050781 283.097656 468.621094 282.429688 C 469.1875 281.761719 469.816406 281.15625 470.503906 280.613281 C 471.191406 280.070312 471.921875 279.601562 472.703125 279.207031 C 473.480469 278.8125 474.289062 278.5 475.128906 278.265625 C 475.96875 278.03125 476.820312 277.882812 477.691406 277.820312 C 478.558594 277.757812 479.425781 277.785156 480.289062 277.894531 C 481.152344 278.003906 482 278.199219 482.824219 278.480469 C 483.652344 278.761719 484.445312 279.121094 485.203125 279.558594 C 485.957031 279.996094 486.667969 280.503906 487.324219 281.082031 C 487.984375 281.664062 488.582031 282.300781 489.117188 283 C 489.652344 283.699219 490.117188 284.445312 490.507812 285.234375 C 490.898438 286.027344 491.207031 286.847656 491.441406 287.703125 C 491.671875 288.554688 491.820312 289.421875 491.882812 290.304688 Z M 491.882812 290.304688 " fill-opacity="1" fill-rule="nonzero"/><path fill="#1f1f1f" d="M 387.082031 205.523438 L 389.78125 205.167969 C 375.074219 89.675781 302.25 36.300781 301.515625 35.769531 L 299.953125 38.035156 C 300.664062 38.5625 372.535156 91.296875 387.082031 205.523438 Z M 387.082031 205.523438 " fill-opacity="1" fill-rule="nonzero"/><path fill="#1f1f1f" d="M 347.609375 280.929688 C 347.78125 279.816406 347.90625 279.183594 347.917969 279.128906 L 350.628906 279.691406 C 350.515625 280.21875 339.863281 334.34375 381.324219 367.613281 L 379.589844 369.773438 C 341.148438 338.929688 346.113281 290.800781 347.609375 280.929688 Z M 347.609375 280.929688 " fill-opacity="1" fill-rule="nonzero"/><path fill="#070707" d="M 240.769531 549.902344 C 240.554688 549.660156 218.683594 525.449219 206.746094 522.828125 L 207.5625 519.09375 C 220.683594 521.980469 242.679688 546.316406 243.597656 547.351562 Z M 240.769531 549.902344 " fill-opacity="1" fill-rule="nonzero"/><path fill="#070707" d="M 280.898438 519.875 C 280.589844 519.542969 250.054688 486.6875 217.304688 478.65625 L 215.085938 478.117188 L 216.019531 476.023438 C 216.085938 475.863281 223.328125 459.371094 222.375 438.8125 C 221.097656 411.429688 206.617188 390.101562 179.335938 375.425781 L 181.140625 372.058594 C 216.765625 391.214844 225.304688 418.910156 226.199219 438.78125 C 226.980469 456.109375 222.328125 470.324219 220.363281 475.496094 C 253.378906 484.609375 282.472656 515.933594 283.726562 517.289062 Z M 280.898438 519.875 " fill-opacity="1" fill-rule="nonzero"/><path fill="#070707" d="M 233.832031 484.136719 L 232.726562 480.484375 C 237.300781 479.105469 248.621094 460.808594 254.675781 449.59375 L 258.03125 451.410156 C 255.285156 456.476562 241.230469 481.894531 233.832031 484.136719 Z M 233.832031 484.136719 " fill-opacity="1" fill-rule="nonzero"/></svg>