<svg xmlns="http://www.w3.org/2000/svg" xml:space="preserve" width="64" height="64"><ellipse cx="32" cy="26.144" stroke="#fff" stroke-width="2" rx="15.175" ry="15.226" style="fill:#fff;fill-opacity:1;fill-rule:evenodd;stroke-width:3;stroke-miterlimit:4;stroke-dasharray:none"/><path d="M20.327 56.986 10.21 55.034V44.103l2.724-3.904V19.897l-2.724-4.685v-9.37L14.49 3.5h6.615l2.335 3.123h17.12L42.895 3.5h6.614l4.28 2.342v9.37l-2.723 4.685V40.2l2.724 3.904v10.931l-10.117 1.952-3.113-3.513H23.44z" style="fill:none;fill-opacity:1;stroke:#fff;stroke-width:3;stroke-linecap:round;stroke-linejoin:round;stroke-miterlimit:4;stroke-dasharray:none;stroke-opacity:1"/><path fill="none" d="M24.996 58.377h14.008M29.665 58.377 32 61.5l2.335-3.123" style="fill:#000;fill-opacity:0;stroke:#fff;stroke-width:3;stroke-linecap:round;stroke-linejoin:round;stroke-miterlimit:4;stroke-dasharray:none;stroke-opacity:1"/><path d="M12.884 134.285a2.3 2.3 0 0 1-.66-.586c-.263-.374-.267-.394-.295-1.71-.026-1.213-.008-1.406.207-2.194.267-.982.634-2.08.819-2.448.205-.41.708-.91 1.086-1.081.338-.152.386-.153.96-.01 1.254.31 2.256.757 3.375 1.505.788.527 1.025.88 1.025 1.528 0 .625-.218.885-1.483 1.766-1.106.77-1.69 1.293-2.833 2.531-.286.31-.646.64-.8.734-.38.232-.921.218-1.401-.035m6.679-6.052c-.172-.061-.633-.354-1.023-.651-.75-.57-1.532-1.008-1.797-1.008-.088 0-.493-.105-.902-.235-.551-.176-.82-.316-1.045-.548-.36-.37-.386-.658-.131-1.419.095-.281.278-.972.407-1.535.332-1.446.627-2.317 1.119-3.3q.77-1.546 1.201-1.828c.29-.19 1.07-.168 1.943.056 1.006.257 1.813.734 3.8 2.245 2.776 2.11 3.398 3.126 2.834 4.631-.218.585-.468.826-1.36 1.31a8 8 0 0 0-1.32.951c-.84.77-2.224 1.453-2.935 1.447a3 3 0 0 1-.791-.115m7.316-5.488c-.256-.103-.58-.462-.88-.975-.568-.972-.8-1.32-1.176-1.77-.965-1.154-2.23-1.912-4.336-2.601-.954-.313-1.203-.432-1.49-.717l-.346-.341.046-.644c.062-.87.31-1.389 1.563-3.268 1.627-2.44 2.39-3.072 3.708-3.068.64.002 1.307.21 3.059.955 1.32.56 3.454 2.135 4.408 3.252.714.837 1.207 2.081 1.207 3.048 0 .779-.184 1.166-1.083 2.282a85 85 0 0 0-1.097 1.391c-.407.534-2.432 2.333-2.785 2.475-.211.085-.559.077-.798-.02m6.62-8.394c-1.291-.484-1.611-2.079-.658-3.284.288-.364 1.858-1.765 2.87-2.562 1.304-1.027 3.605-2.392 4.49-2.664.124-.038.506-.176.848-.306 2.577-.982 2.967-1.068 5.472-1.21 1.92-.107 2.614-.07 3.459.19 1.703.524 3 2.02 2.817 3.247-.208 1.387-1.764 2.965-3.188 3.23-.564.106-3.08.067-4.978-.077-2.287-.174-3.193-.036-4.738.723-1.27.623-1.659.87-2.722 1.73-1.01.816-1.491 1.023-2.497 1.071-.592.029-.93.003-1.175-.088m-3.146-2.906c-.868-.171-1.481-.616-1.635-1.187-.243-.902.147-1.992 1.61-4.502 1.082-1.855 1.194-2.058 1.642-2.98 1.228-2.53 2.394-6.881 2.381-8.895-.007-1.217.173-1.563 1.049-2.01.312-.16.59-.214 1.26-.243.767-.033.969-.006 1.868.25 1.78.506 2.385.943 2.948 2.128.51 1.073.422 2.127-.339 4.055-1.063 2.697-1.973 4.18-4.318 7.04-1.29 1.574-2.016 2.534-2.535 3.35-1.152 1.813-1.411 2.18-1.785 2.53-.57.531-1.159.659-2.146.464m-5.322-2.442c-.34-.15-.947-.801-1.19-1.277-.24-.472-.244-1.347-.01-2.34.097-.408.215-1.142.263-1.632.048-.489.157-1.505.242-2.257.168-1.487.114-2.533-.195-3.748-.316-1.244-1.368-2.674-2.385-3.244-.725-.405-.843-.641-.682-1.365.146-.654.445-1.235.818-1.588.38-.36 1.315-.865 1.936-1.046 1.463-.426 3.185.127 4.319 1.387.495.552.689.91.907 1.68.147.517.163.968.163 4.577 0 3.181-.032 4.323-.157 5.56-.38 3.759-.544 4.192-1.846 4.886-.967.516-1.647.642-2.183.407" style="fill:#a0a0a0;stroke-width:.088965" transform="matrix(.53481 0 0 .60113 15.654 -43.78)"/><path d="M13.022 134.236a1.72 1.72 0 0 1-.93-1.076c-.157-.582-.054-2.703.166-3.428.598-1.968.767-2.38 1.144-2.804.207-.232.518-.488.69-.57.293-.139.35-.139.869 0 1.925.512 3.917 1.61 4.214 2.32.183.438.153.938-.078 1.28-.11.162-.46.473-.778.691-1.36.933-2.227 1.66-2.936 2.464-1.108 1.257-1.576 1.48-2.361 1.123m6.598-6.11c-.19-.07-.69-.383-1.112-.695-.939-.696-1.289-.87-2.147-1.068-.826-.192-1.402-.47-1.635-.79-.202-.277-.229-.097.35-2.38.18-.71.428-1.61.55-2.001.278-.896 1.162-2.645 1.585-3.14.308-.359.342-.375.825-.373.599.002 1.784.284 2.284.545 1.304.679 3.936 2.696 4.92 3.771.77.84.957 1.502.683 2.423-.189.635-.474.935-1.354 1.423a7.6 7.6 0 0 0-1.304.938c-.388.37-.82.655-1.519 1.001-1.062.527-1.456.591-2.126.345m7.148-5.578c-.188-.127-.527-.588-.933-1.267-.932-1.56-1.983-2.557-3.436-3.26-.596-.29-1.781-.743-2.168-.831-.565-.129-1.071-.412-1.28-.716-.182-.267-.205-.384-.165-.822.054-.58.483-1.572 1.013-2.345.189-.275.647-.956 1.017-1.513.857-1.288 1.552-1.937 2.355-2.2.718-.236.886-.237 1.578-.006 2.06.687 2.789 1.021 3.991 1.827 1.752 1.175 2.767 2.204 3.313 3.357.791 1.669.691 2.47-.491 3.933-.315.39-.77.982-1.014 1.317-.274.379-.872.979-1.577 1.582-1.438 1.231-1.648 1.32-2.203.945zm6.963-8.25c-.77-.182-1.264-.794-1.337-1.654-.063-.741.259-1.293 1.344-2.302 2.388-2.22 4.576-3.662 6.822-4.497.416-.154.936-.354 1.156-.443 1.79-.725 2.693-.887 5.318-.953 1.805-.046 2.148-.033 2.67.104 1.186.312 2.348 1.162 2.766 2.025.214.441.252 1.192.086 1.678-.286.837-1.337 1.977-2.19 2.377l-.51.239-2.223-.001c-1.224 0-2.828-.037-3.566-.08-2.098-.124-3.167.113-4.886 1.083-.94.53-1.413.855-1.99 1.364-1.041.921-2.354 1.323-3.46 1.06m-3.236-2.934c-.607-.11-1.163-.383-1.437-.708-.215-.256-.241-.36-.241-.941 0-.517.054-.79.262-1.305.257-.64.593-1.322.957-1.942 1.815-3.101 2.335-4.13 2.897-5.738.988-2.828 1.449-4.87 1.548-6.85.03-.61.104-1.17.172-1.304.066-.13.31-.347.544-.483.388-.226.521-.25 1.507-.285.98-.034 1.16-.014 1.913.206 1.667.489 2.224.901 2.759 2.043.585 1.248.345 2.586-.96 5.367-.215.456-.39.85-.39.876 0 .118-1.066 1.842-1.571 2.54-.309.426-1.163 1.507-1.9 2.402-1.207 1.468-2.067 2.667-3.208 4.473-.461.73-1 1.343-1.331 1.514-.316.163-1.015.225-1.52.135m-5.302-2.434c-.4-.146-1.009-.747-1.247-1.23-.253-.514-.261-1.195-.026-2.176.095-.397.216-1.158.268-1.69.053-.533.16-1.45.238-2.037.256-1.914.048-3.85-.545-5.07-.384-.793-1.33-1.857-2.034-2.289-.743-.454-.828-.64-.639-1.392.258-1.027.713-1.54 1.877-2.114l.696-.344h1.118c1.093 0 1.133.007 1.74.304.709.347 1.774 1.345 2.036 1.908.088.19.24.73.337 1.201.164.797.173 1.114.133 4.504-.03 2.41-.09 4.071-.181 4.894a280 280 0 0 0-.228 2.135c-.123 1.228-.39 2.055-.785 2.427-.35.33-.986.673-1.704.92-.55.19-.654.194-1.054.049" style="fill:#e38634;stroke-width:.088965" transform="matrix(.53481 0 0 .60113 15.654 -43.78)"/><path d="M13.022 134.236a1.72 1.72 0 0 1-.93-1.076c-.157-.582-.054-2.703.166-3.428.598-1.968.767-2.38 1.144-2.804.207-.232.518-.488.69-.57.293-.139.35-.139.869 0 1.925.512 3.917 1.61 4.214 2.32.183.438.153.938-.078 1.28-.11.162-.46.473-.778.691-1.36.933-2.227 1.66-2.936 2.464-1.108 1.257-1.576 1.48-2.361 1.123m2.177-1.604c.878-.9 1.493-1.436 2.254-1.968 1.39-.97 1.57-1.218 1.304-1.8-.157-.346-1.529-1.213-2.529-1.6-1.62-.628-1.866-.642-2.383-.134-.402.396-.49.607-1.097 2.647-.225.757-.25.975-.247 2.09.002.814.042 1.317.114 1.45.162.302.627.551 1.027.552.333 0 .41-.06 1.557-1.237m4.421-4.507c-.19-.069-.69-.382-1.112-.694-.939-.696-1.289-.87-2.147-1.068-.826-.192-1.402-.47-1.635-.79-.202-.277-.229-.097.35-2.38.18-.71.428-1.61.55-2.001.278-.896 1.162-2.645 1.585-3.14.308-.359.342-.375.825-.373.599.002 1.784.284 2.284.545 1.304.679 3.936 2.696 4.92 3.771.77.84.957 1.502.683 2.423-.189.635-.474.935-1.354 1.423a7.6 7.6 0 0 0-1.304.938c-.388.37-.82.655-1.519 1.001-1.062.527-1.456.591-2.126.345m1.963-.79c.682-.344 1.117-.635 1.495-1.001a6.3 6.3 0 0 1 1.29-.917c.667-.352.781-.45.965-.82.508-1.024.304-1.666-.865-2.719-.985-.888-1.233-1.089-2.274-1.843a81 81 0 0 1-1.182-.87c-.693-.531-1.65-.876-2.788-1.003-.487-.055-.498-.051-.734.258-.341.447-1.251 2.267-1.416 2.83a48 48 0 0 0-.417 1.646 25 25 0 0 1-.455 1.685c-.097.282-.154.583-.127.669.06.19.64.478 1.242.618a5.9 5.9 0 0 1 2.325 1.082c.807.616 1.294.865 1.695.867.17.001.67-.192 1.246-.482m5.185-4.787c-.188-.127-.527-.588-.933-1.267-.932-1.56-1.983-2.557-3.436-3.26-.596-.29-1.781-.743-2.168-.831-.565-.129-1.071-.412-1.28-.716-.182-.267-.205-.384-.165-.822.054-.58.483-1.572 1.013-2.345.189-.275.647-.956 1.017-1.513.857-1.288 1.552-1.937 2.355-2.2.718-.236.886-.237 1.578-.006 2.06.687 2.789 1.021 3.991 1.827 1.752 1.175 2.767 2.204 3.313 3.357.791 1.669.691 2.47-.491 3.933-.315.39-.77.982-1.014 1.317-.274.379-.872.979-1.577 1.582-1.438 1.231-1.648 1.32-2.203.945zm.785-.37c.132-.068.34-.232.463-.364.122-.132.575-.52 1.005-.865.5-.399.916-.823 1.149-1.17.2-.3.654-.905 1.007-1.345.842-1.052.879-1.13.87-1.873-.006-.483-.072-.788-.284-1.318-.46-1.148-.903-1.667-2.351-2.752-1.501-1.125-2.203-1.533-3.251-1.892-.374-.129-.948-.35-1.274-.492-.745-.325-1.133-.326-1.809-.005-.67.319-1.198.86-1.823 1.87-.27.435-.713 1.106-.985 1.49-.667.943-.973 1.68-.973 2.345v.52l.384.186c.211.102.47.186.576.186s.504.123.884.273c2.595 1.026 3.996 2.136 5.014 3.973.44.797.884 1.358 1.071 1.358.048 0 .195-.056.327-.125zm6.178-7.88c-.77-.182-1.264-.794-1.337-1.654-.063-.741.259-1.293 1.344-2.302 2.388-2.22 4.576-3.662 6.822-4.497.416-.154.936-.354 1.156-.443 1.79-.725 2.693-.887 5.318-.953 1.805-.046 2.148-.033 2.67.104 1.186.312 2.348 1.162 2.766 2.025.214.441.252 1.192.086 1.678-.286.837-1.337 1.977-2.19 2.377l-.51.239-2.223-.001c-1.224 0-2.828-.037-3.566-.08-2.098-.124-3.167.113-4.886 1.083-.94.53-1.413.855-1.99 1.364-1.041.921-2.354 1.323-3.46 1.06m-3.236-2.934c-.607-.11-1.163-.383-1.437-.708-.215-.256-.241-.36-.241-.941 0-.517.054-.79.262-1.305.257-.64.593-1.322.957-1.942 1.815-3.101 2.335-4.13 2.897-5.738.988-2.828 1.449-4.87 1.548-6.85.03-.61.104-1.17.172-1.304.066-.13.31-.347.544-.483.388-.226.521-.25 1.507-.285.98-.034 1.16-.014 1.913.206 1.667.489 2.224.901 2.759 2.043.585 1.248.345 2.586-.96 5.367-.215.456-.39.85-.39.876 0 .118-1.066 1.842-1.571 2.54-.309.426-1.163 1.507-1.9 2.402-1.207 1.468-2.067 2.667-3.208 4.473-.461.73-1 1.343-1.331 1.514-.316.163-1.015.225-1.52.135m-5.302-2.434c-.4-.146-1.009-.747-1.247-1.23-.253-.514-.261-1.195-.026-2.176.095-.397.216-1.158.268-1.69.053-.533.16-1.45.238-2.037.256-1.914.048-3.85-.545-5.07-.384-.793-1.33-1.857-2.034-2.289-.743-.454-.828-.64-.639-1.392.258-1.027.713-1.54 1.877-2.114l.696-.344h1.118c1.093 0 1.133.007 1.74.304.709.347 1.774 1.345 2.036 1.908.088.19.24.73.337 1.201.164.797.173 1.114.133 4.504-.03 2.41-.09 4.071-.181 4.894a280 280 0 0 0-.228 2.135c-.123 1.228-.39 2.055-.785 2.427-.35.33-.986.673-1.704.92-.55.19-.654.194-1.054.049" style="fill:#51cf29;stroke-width:.088965" transform="matrix(.53481 0 0 .60113 15.654 -43.78)"/><path d="M13.022 134.236a1.72 1.72 0 0 1-.93-1.076c-.157-.582-.054-2.703.166-3.428.598-1.968.767-2.38 1.144-2.804.207-.232.518-.488.69-.57.293-.139.35-.139.869 0 1.925.512 3.917 1.61 4.214 2.32.183.438.153.938-.078 1.28-.11.162-.46.473-.778.691-1.36.933-2.227 1.66-2.936 2.464-1.108 1.257-1.576 1.48-2.361 1.123m2.177-1.604c.878-.9 1.493-1.436 2.254-1.968 1.39-.97 1.57-1.218 1.304-1.8-.157-.346-1.529-1.213-2.529-1.6-1.62-.628-1.866-.642-2.383-.134-.402.396-.49.607-1.097 2.647-.225.757-.25.975-.247 2.09.002.814.042 1.317.114 1.45.162.302.627.551 1.027.552.333 0 .41-.06 1.557-1.237m4.421-4.507c-.19-.069-.69-.382-1.112-.694-.939-.696-1.289-.87-2.147-1.068-.826-.192-1.402-.47-1.635-.79-.202-.277-.229-.097.35-2.38.18-.71.428-1.61.55-2.001.278-.896 1.162-2.645 1.585-3.14.308-.359.342-.375.825-.373.599.002 1.784.284 2.284.545 1.304.679 3.936 2.696 4.92 3.771.77.84.957 1.502.683 2.423-.189.635-.474.935-1.354 1.423a7.6 7.6 0 0 0-1.304.938c-.388.37-.82.655-1.519 1.001-1.062.527-1.456.591-2.126.345m1.963-.79c.682-.344 1.117-.635 1.495-1.001a6.3 6.3 0 0 1 1.29-.917c.667-.352.781-.45.965-.82.508-1.024.304-1.666-.865-2.719-.985-.888-1.233-1.089-2.274-1.843a81 81 0 0 1-1.182-.87c-.693-.531-1.65-.876-2.788-1.003-.487-.055-.498-.051-.734.258-.341.447-1.251 2.267-1.416 2.83a48 48 0 0 0-.417 1.646 25 25 0 0 1-.455 1.685c-.097.282-.154.583-.127.669.06.19.64.478 1.242.618a5.9 5.9 0 0 1 2.325 1.082c.807.616 1.294.865 1.695.867.17.001.67-.192 1.246-.482m5.185-4.787c-.188-.127-.527-.588-.933-1.267-.932-1.56-1.983-2.557-3.436-3.26-.596-.29-1.781-.743-2.168-.831-.565-.129-1.071-.412-1.28-.716-.182-.267-.205-.384-.165-.822.054-.58.483-1.572 1.013-2.345.189-.275.647-.956 1.017-1.513.857-1.288 1.552-1.937 2.355-2.2.718-.236.886-.237 1.578-.006 2.06.687 2.789 1.021 3.991 1.827 1.752 1.175 2.767 2.204 3.313 3.357.791 1.669.691 2.47-.491 3.933-.315.39-.77.982-1.014 1.317-.274.379-.872.979-1.577 1.582-1.438 1.231-1.648 1.32-2.203.945zm.785-.37c.132-.068.34-.232.463-.364.122-.132.575-.52 1.005-.865.5-.399.916-.823 1.149-1.17.2-.3.654-.905 1.007-1.345.842-1.052.879-1.13.87-1.873-.006-.483-.072-.788-.284-1.318-.46-1.148-.903-1.667-2.351-2.752-1.501-1.125-2.203-1.533-3.251-1.892-.374-.129-.948-.35-1.274-.492-.745-.325-1.133-.326-1.809-.005-.67.319-1.198.86-1.823 1.87-.27.435-.713 1.106-.985 1.49-.667.943-.973 1.68-.973 2.345v.52l.384.186c.211.102.47.186.576.186s.504.123.884.273c2.595 1.026 3.996 2.136 5.014 3.973.44.797.884 1.358 1.071 1.358.048 0 .195-.056.327-.125zm6.178-7.88c-.77-.182-1.264-.794-1.337-1.654-.063-.741.259-1.293 1.344-2.302 2.388-2.22 4.576-3.662 6.822-4.497.416-.154.936-.354 1.156-.443 1.79-.725 2.693-.887 5.318-.953 1.805-.046 2.148-.033 2.67.104 1.186.312 2.348 1.162 2.766 2.025.214.441.252 1.192.086 1.678-.286.837-1.337 1.977-2.19 2.377l-.51.239-2.223-.001c-1.224 0-2.828-.037-3.566-.08-2.098-.124-3.167.113-4.886 1.083-.94.53-1.413.855-1.99 1.364-1.041.921-2.354 1.323-3.46 1.06m1.624-.464a3.26 3.26 0 0 0 1.41-.777c.48-.44 1.511-1.124 2.46-1.635 1.758-.945 3.15-1.218 5.267-1.03.65.057 2.124.109 3.274.114l2.09.01.452-.238c.894-.472 1.995-1.975 1.995-2.724 0-.587-.197-1.012-.699-1.506-.51-.502-1.444-1.013-2.148-1.174-.507-.116-2.573-.12-3.938-.007-1.38.114-1.94.27-4.87 1.356-1.374.51-3.44 1.701-4.714 2.72-.798.636-2.747 2.407-2.886 2.62-.256.393-.36.995-.24 1.395.268.892 1.202 1.213 2.547.875zm-4.86-2.47c-.607-.11-1.163-.383-1.437-.708-.215-.256-.241-.36-.241-.941 0-.517.054-.79.262-1.305.257-.639.593-1.322.957-1.942 1.815-3.101 2.335-4.13 2.897-5.738.988-2.828 1.449-4.87 1.548-6.85.03-.61.104-1.17.172-1.304.066-.13.31-.347.544-.483.388-.226.521-.25 1.507-.285.98-.034 1.16-.014 1.913.206 1.667.489 2.224.901 2.759 2.043.585 1.248.345 2.586-.96 5.367-.215.456-.39.85-.39.876 0 .118-1.066 1.842-1.571 2.54-.309.426-1.163 1.507-1.9 2.402-1.207 1.468-2.067 2.667-3.208 4.473-.461.73-1 1.343-1.331 1.514-.316.163-1.015.225-1.52.135m1.783-.86c.225-.245.667-.863.982-1.373.83-1.343 1.857-2.75 3.208-4.398.984-1.2 1.81-2.283 2.25-2.95.81-1.225 1.682-3.1 2.33-5.006.454-1.34.26-2.514-.566-3.41-.59-.64-1.986-1.134-3.401-1.203-1.027-.05-1.64.112-1.99.527-.207.246-.225.337-.224 1.128 0 .474-.063 1.201-.14 1.617-.373 2.002-.399 2.114-.89 3.87-.068.245-.248.785-.399 1.201l-.435 1.201c-.318.885-.972 2.166-1.888 3.692-1.258 2.1-1.768 3.173-1.882 3.96-.072.5-.065.678.036.886.245.508.961.764 2.03.725.562-.02.577-.027.98-.467m-7.085-1.574c-.4-.146-1.009-.747-1.247-1.23-.253-.514-.261-1.195-.026-2.176.095-.397.216-1.158.268-1.69.053-.533.16-1.45.238-2.037.256-1.914.048-3.85-.545-5.07-.384-.793-1.33-1.857-2.034-2.289-.743-.454-.828-.64-.639-1.392.258-1.027.713-1.54 1.877-2.114l.696-.344h1.118c1.093 0 1.133.007 1.74.304.709.347 1.774 1.345 2.036 1.908.088.19.24.73.337 1.201.164.797.173 1.114.133 4.504-.03 2.41-.09 4.071-.181 4.894a280 280 0 0 0-.228 2.135c-.123 1.228-.39 2.055-.785 2.427-.35.33-.986.673-1.704.92-.55.19-.654.194-1.054.049m1.462-.638c1.5-.693 1.506-.71 1.9-4.849.143-1.506.185-2.67.199-5.471.017-3.723-.006-4.008-.391-4.913-.248-.58-1.219-1.493-1.972-1.854-.592-.284-.702-.306-1.5-.306-.844 0-.876.008-1.648.4-1.141.58-1.39.83-1.589 1.59-.21.808-.187.914.246 1.134.782.397 1.89 1.594 2.328 2.517.571 1.204.79 3.076.584 4.991a21 21 0 0 0-.111 1.245c.006.251-.31 2.53-.47 3.38-.21 1.131.02 1.715.919 2.325.397.27.555.25 1.505-.189" style="fill:#b16b2c;stroke-width:.088965" transform="matrix(.53481 0 0 .60113 15.654 -43.78)"/><path d="M13.022 134.236a1.72 1.72 0 0 1-.93-1.076c-.157-.582-.054-2.703.166-3.428.598-1.968.767-2.38 1.144-2.804.207-.232.518-.488.69-.57.293-.139.35-.139.869 0 1.925.512 3.917 1.61 4.214 2.32.183.438.153.938-.078 1.28-.11.162-.46.473-.778.691-1.36.933-2.227 1.66-2.936 2.464-1.108 1.257-1.576 1.48-2.361 1.123m2.135-1.379c.638-.655 1.487-1.425 1.888-1.713l1.221-.874c.284-.202.558-.485.643-.664.13-.276.133-.353.023-.667-.21-.6-1.768-1.545-3.455-2.097-.452-.147-.91-.268-1.02-.268-.112 0-.392.182-.651.423-.482.448-.635.782-1.092 2.38-.306 1.07-.374 1.669-.328 2.875.039.997.062 1.118.252 1.324.266.289.658.463 1.051.468.28.003.414-.106 1.468-1.187m4.463-4.732c-.19-.069-.69-.382-1.112-.694-.939-.696-1.289-.87-2.147-1.068-.826-.192-1.402-.47-1.635-.79-.202-.277-.229-.097.35-2.38.18-.71.428-1.61.55-2.001.278-.896 1.162-2.645 1.585-3.14.308-.359.342-.375.825-.373.599.002 1.784.284 2.284.545 1.304.679 3.936 2.696 4.92 3.771.77.84.957 1.502.683 2.423-.189.635-.474.935-1.354 1.423a7.6 7.6 0 0 0-1.304.938c-.388.37-.82.655-1.519 1.001-1.062.527-1.456.591-2.126.345m1.937-.622c.78-.37 1.133-.595 1.414-.898.398-.43.728-.666 1.553-1.109.674-.362.814-.494 1.012-.953.223-.515.215-1.194-.019-1.677-.247-.512-1.336-1.512-2.972-2.734-1.696-1.265-2.058-1.51-2.493-1.695-.447-.19-2.08-.508-2.28-.444-.217.069-.536.519-1.042 1.471-.58 1.094-.825 1.762-1.12 3.062a26 26 0 0 1-.463 1.754c-.306.947-.27 1.125.278 1.42.243.132.684.281.979.333.687.12 1.632.59 2.331 1.159.547.445 1.236.791 1.595.8.103.004.655-.217 1.227-.489m5.211-4.955c-.188-.127-.527-.588-.933-1.267-.932-1.56-1.983-2.557-3.436-3.26-.596-.29-1.781-.743-2.168-.831-.565-.129-1.071-.412-1.28-.716-.182-.267-.205-.384-.165-.822.054-.58.483-1.572 1.013-2.345.189-.275.647-.956 1.017-1.513.857-1.288 1.552-1.937 2.355-2.2.718-.236.886-.237 1.578-.006 2.06.687 2.789 1.021 3.991 1.827 1.752 1.175 2.767 2.204 3.313 3.357.791 1.669.691 2.47-.491 3.933-.315.39-.77.982-1.014 1.317-.274.379-.872.979-1.577 1.582-1.438 1.231-1.648 1.32-2.203.945zm1.32-.633c.285-.251.815-.7 1.179-.997.428-.349.832-.79 1.144-1.245.265-.388.669-.926.897-1.195.674-.794.81-1.037.86-1.535.101-.99-.405-2.397-1.166-3.244-.735-.817-2.956-2.448-3.93-2.885-.288-.13-.824-.343-1.191-.473-.367-.131-.865-.325-1.105-.432-.612-.27-1.128-.243-1.787.097-.776.4-1.264.914-1.953 2.058-.189.313-.572.89-.852 1.28-.924 1.291-1.32 2.655-.893 3.081.094.095.404.239.69.32.284.082.718.225.964.318.245.093.477.17.514.17.182 0 2.113 1.035 2.464 1.32q1.471 1.198 2.11 2.46c.49.966 1.008 1.498 1.37 1.403.093-.024.402-.25.686-.501m5.643-7.616c-.77-.183-1.264-.795-1.337-1.655-.063-.741.259-1.293 1.344-2.302 2.388-2.22 4.576-3.662 6.822-4.497.416-.154.936-.354 1.156-.443 1.79-.725 2.693-.887 5.318-.953 1.805-.046 2.148-.033 2.67.104 1.186.312 2.348 1.162 2.766 2.025.214.441.252 1.192.086 1.678-.286.837-1.337 1.977-2.19 2.377l-.51.239-2.223-.001c-1.224 0-2.828-.037-3.566-.08-2.098-.124-3.167.113-4.886 1.083-.94.53-1.413.855-1.99 1.364-1.041.921-2.354 1.323-3.46 1.06m1.624-.465a3.26 3.26 0 0 0 1.41-.777c.48-.44 1.511-1.124 2.46-1.635 1.758-.945 3.15-1.218 5.267-1.03.65.057 2.124.109 3.274.114l2.09.01.452-.238c.894-.472 1.995-1.975 1.995-2.724 0-.587-.197-1.012-.699-1.506-.51-.502-1.444-1.013-2.148-1.174-.507-.116-2.573-.12-3.938-.007-1.38.114-1.94.27-4.87 1.356-1.374.51-3.44 1.701-4.714 2.72-.798.636-2.747 2.407-2.886 2.62-.256.393-.36.995-.24 1.395.268.892 1.202 1.213 2.547.875zm-4.86-2.47c-.607-.11-1.163-.383-1.437-.708-.215-.256-.241-.36-.241-.941 0-.517.054-.79.262-1.305.257-.639.593-1.322.957-1.942 1.815-3.101 2.335-4.13 2.897-5.738.988-2.828 1.449-4.87 1.548-6.85.03-.61.104-1.17.172-1.304.066-.13.31-.347.544-.483.388-.226.521-.25 1.507-.285.98-.034 1.16-.014 1.913.206 1.667.489 2.224.901 2.759 2.043.585 1.248.345 2.586-.96 5.367-.215.456-.39.85-.39.876 0 .118-1.066 1.842-1.571 2.54-.309.426-1.163 1.507-1.9 2.402-1.207 1.468-2.067 2.667-3.208 4.473-.461.73-1 1.343-1.331 1.514-.316.163-1.015.225-1.52.135m1.783-.86c.225-.245.667-.863.982-1.373.83-1.343 1.857-2.75 3.208-4.398.984-1.2 1.81-2.283 2.25-2.95.81-1.225 1.682-3.1 2.33-5.006.454-1.34.26-2.514-.566-3.41-.59-.64-1.986-1.134-3.401-1.203-1.027-.05-1.64.112-1.99.527-.207.246-.225.337-.224 1.128 0 .474-.063 1.201-.14 1.617-.373 2.002-.399 2.114-.89 3.87-.068.245-.248.785-.399 1.201l-.435 1.201c-.318.885-.972 2.166-1.888 3.692-1.258 2.1-1.768 3.173-1.882 3.96-.072.5-.065.678.036.886.245.508.961.764 2.03.725.562-.02.577-.027.98-.467m-7.085-1.574c-.4-.146-1.009-.747-1.247-1.23-.253-.514-.261-1.195-.026-2.176.095-.397.216-1.158.268-1.69.053-.533.16-1.45.238-2.037.256-1.914.048-3.85-.545-5.07-.384-.793-1.33-1.857-2.034-2.289-.743-.454-.828-.64-.639-1.392.258-1.027.713-1.54 1.877-2.114l.696-.344h1.118c1.093 0 1.133.007 1.74.304.709.347 1.774 1.345 2.036 1.908.088.19.24.73.337 1.201.164.797.173 1.114.133 4.504-.03 2.41-.09 4.071-.181 4.894a280 280 0 0 0-.228 2.135c-.123 1.228-.39 2.055-.785 2.427-.35.33-.986.673-1.704.92-.55.19-.654.194-1.054.049m1.462-.638c1.5-.693 1.506-.71 1.9-4.849.143-1.506.185-2.67.199-5.471.017-3.723-.006-4.008-.391-4.913-.248-.58-1.219-1.493-1.972-1.854-.592-.284-.702-.306-1.5-.306-.844 0-.876.008-1.648.4-1.141.58-1.39.83-1.589 1.59-.21.808-.187.914.246 1.134.782.397 1.89 1.594 2.328 2.517.571 1.204.79 3.076.584 4.991a21 21 0 0 0-.111 1.245c.006.251-.31 2.53-.47 3.38-.21 1.131.02 1.715.919 2.325.397.27.555.25 1.505-.189" style="fill:#5e5e5c;stroke-width:.088965" transform="matrix(.53481 0 0 .60113 15.654 -43.78)"/><path d="M12.996 134.123a1.8 1.8 0 0 1-.623-.55c-.232-.35-.237-.39-.235-1.744.002-1.185.033-1.488.21-2.097.634-2.166.987-2.847 1.676-3.228l.367-.203.652.174c1.32.351 2.055.679 3.174 1.414.804.528.994.8.988 1.418-.005.585-.13.718-1.643 1.76-.839.579-1.423 1.112-2.665 2.432-.814.864-1.176.983-1.901.624m1.306-.343c.203-.148.37-.3.37-.339 0-.222 1.78-1.856 2.872-2.634 1.482-1.057 1.687-1.363 1.35-2.014-.176-.34-1.676-1.33-2.494-1.645-.88-.34-1.651-.573-1.893-.573-.416-.001-.98.505-1.262 1.135-.274.61-.78 2.492-.888 3.299-.145 1.086.01 2.275.34 2.624.473.501 1.044.553 1.605.147m5.336-5.737c-.18-.066-.64-.359-1.023-.65-.85-.646-1.333-.897-2.03-1.055q-1.411-.32-1.738-.765c-.227-.307-.217-.409.174-1.712.102-.343.267-1.004.365-1.468.222-1.051.445-1.674.991-2.775.5-1.006.909-1.638 1.142-1.763.39-.21 1.706-.011 2.605.392.908.407 3.296 2.12 4.537 3.254.851.778 1.309 1.562 1.309 2.242 0 .371-.261 1.12-.481 1.381-.116.137-.535.422-.932.633a8 8 0 0 0-1.352.963c-.463.424-.875.695-1.546 1.017-.99.473-1.397.535-2.021.306m1.962-.549c.724-.352 1.154-.626 1.434-.911.476-.485.808-.72 1.474-1.047.63-.309.975-.703 1.155-1.322.24-.829.021-1.377-.91-2.272-.893-.858-2.589-2.189-4.032-3.164-.684-.462-2.785-.988-3.07-.77-.337.26-1.297 1.983-1.624 2.917-.103.293-.328 1.134-.5 1.868s-.374 1.483-.45 1.665a2 2 0 0 0-.139.644c0 .263.053.348.336.535.185.122.615.287.956.366 1.084.25 1.795.608 2.688 1.35.424.352 1.038.624 1.437.637.117.004.677-.22 1.245-.496m5.388-4.92c-.243-.098-.706-.634-.933-1.079-1.149-2.251-2.898-3.54-6.088-4.483-.341-.1-.635-.261-.823-.448-.39-.39-.394-.868-.02-1.808.334-.833 2.162-3.603 2.818-4.267.953-.964 1.935-1.163 3.271-.66.392.146.952.357 1.246.468 1.62.612 3.768 2.132 4.85 3.43.651.783 1.155 2.036 1.155 2.873 0 .665-.27 1.208-1.13 2.28-.353.44-.834 1.043-1.068 1.342-.442.563-2.318 2.212-2.678 2.356-.244.096-.354.096-.6-.004zm.52-.195c.234-.125 2.168-1.752 2.432-2.045a12 12 0 0 0 .616-.833c.236-.342.622-.841.858-1.109.684-.774.818-1.128.756-1.992-.108-1.491-.685-2.416-2.375-3.806-1.03-.847-3.114-2.123-3.469-2.123-.046 0-.545-.18-1.108-.4s-1.155-.4-1.315-.4c-.412 0-1.285.443-1.775.9-.229.214-.641.75-.917 1.19a41 41 0 0 1-1.04 1.565c-.714 1.013-1.052 1.81-1.052 2.486 0 .47.025.536.254.7.14.1.45.227.69.284.587.139 1.39.457 2.608 1.037.949.45 1.079.545 1.967 1.431.762.76 1.036 1.106 1.38 1.743.405.752.995 1.475 1.203 1.475a.9.9 0 0 0 .287-.103m6.424-8.126a5 5 0 0 0-.327-.082c-.345-.076-.786-.48-.974-.894-.359-.79-.128-1.598.696-2.432.68-.688 2.644-2.345 3.318-2.798.123-.083.383-.263.579-.4.823-.58 2.2-1.286 3.336-1.71.416-.156.94-.359 1.164-.45 1.71-.702 2.734-.884 5.31-.95 2.386-.06 2.838.011 3.858.605.645.375 1.362 1.103 1.568 1.593.216.513.108 1.383-.25 2.013-.409.717-1.21 1.499-1.838 1.793l-.515.242h-2.18c-1.199 0-2.803-.036-3.566-.08-2.123-.123-3.08.079-4.843 1.018-.87.464-1.327.769-2.133 1.423-.839.68-1.323.943-1.952 1.057-.505.092-1.062.115-1.25.052m1.423-.42a3.26 3.26 0 0 0 1.41-.776c.48-.44 1.511-1.124 2.46-1.635 1.758-.945 3.15-1.218 5.267-1.03.65.057 2.124.109 3.274.114l2.09.01.452-.238c.894-.472 1.995-1.975 1.995-2.724 0-.587-.197-1.012-.699-1.506-.51-.502-1.444-1.013-2.148-1.174-.507-.116-2.573-.12-3.938-.007-1.38.114-1.94.27-4.87 1.356-1.374.51-3.44 1.701-4.714 2.72-.798.636-2.747 2.407-2.886 2.62-.256.393-.36.995-.24 1.395.268.892 1.202 1.213 2.547.875zm-4.867-2.56c-.532-.094-1.197-.424-1.414-.7-.262-.334-.23-1.26.072-2.076.24-.65.978-2.037 1.93-3.63 1.016-1.703 1.628-3.093 2.349-5.338.687-2.14 1.062-3.993 1.165-5.757.073-1.243.122-1.34.854-1.684.383-.18.583-.209 1.432-.21.829 0 1.12.04 1.823.252.461.14 1.044.358 1.297.487 1.004.512 1.737 1.95 1.598 3.134-.108.92-1.258 3.924-1.896 4.955-.113.182-.206.354-.206.382 0 .08-1.103 1.724-1.528 2.277-.211.275-.725.91-1.14 1.41-1.537 1.85-2.316 2.916-3.381 4.629-.552.886-.981 1.422-1.316 1.642-.38.25-1.02.338-1.64.228m1.79-.769c.225-.245.667-.863.982-1.373.83-1.343 1.857-2.75 3.208-4.398.984-1.2 1.81-2.283 2.25-2.95.81-1.225 1.682-3.1 2.33-5.006.454-1.34.26-2.514-.566-3.41-.59-.64-1.986-1.134-3.401-1.203-1.027-.05-1.64.112-1.99.527-.207.246-.225.337-.224 1.128 0 .474-.063 1.201-.14 1.617-.373 2.002-.399 2.114-.89 3.87-.068.245-.248.785-.399 1.201l-.435 1.201c-.318.885-.972 2.166-1.888 3.692-1.258 2.1-1.768 3.173-1.882 3.96-.072.5-.065.678.036.886.245.508.961.764 2.03.725.562-.02.577-.027.98-.467m-7.091-1.657c-.33-.106-.986-.788-1.207-1.255-.195-.41-.184-1.182.029-2.068.095-.397.217-1.158.27-1.69a79 79 0 0 1 .226-1.948c.272-2.068.06-4.034-.562-5.232-.43-.829-1.374-1.9-2.018-2.29-.724-.439-.806-.583-.668-1.172.258-1.093.694-1.605 1.86-2.186.626-.311.718-.331 1.653-.359.89-.026 1.045-.007 1.537.193.68.276 1.537.927 1.936 1.47.341.466.6 1.186.755 2.103.149.878.06 7.31-.123 8.986l-.234 2.159c-.14 1.308-.365 1.971-.8 2.365-.416.375-1.018.694-1.687.893-.543.16-.56.161-.967.03m1.468-.555c1.5-.693 1.506-.71 1.9-4.849.143-1.506.185-2.67.199-5.471.017-3.723-.006-4.008-.391-4.913-.248-.58-1.219-1.493-1.972-1.854-.592-.284-.702-.306-1.5-.306-.844 0-.876.008-1.648.4-1.141.58-1.39.83-1.589 1.59-.21.808-.187.914.246 1.134.782.397 1.89 1.594 2.328 2.517.571 1.204.79 3.076.584 4.991a21 21 0 0 0-.111 1.245c.006.251-.31 2.53-.47 3.38-.21 1.131.02 1.715.919 2.325.397.27.555.25 1.505-.189" style="fill:#315a23;stroke-width:.088965" transform="matrix(.53481 0 0 .60113 15.654 -43.78)"/><path d="M12.996 134.123a1.8 1.8 0 0 1-.623-.55c-.232-.35-.237-.39-.235-1.744.002-1.185.033-1.488.21-2.097.634-2.166.987-2.847 1.676-3.228l.367-.203.652.174c1.32.351 2.055.679 3.174 1.414.804.528.994.8.988 1.418-.005.585-.13.718-1.643 1.76-.839.579-1.423 1.112-2.665 2.432-.814.864-1.176.983-1.901.624m1.306-.343c.203-.148.37-.3.37-.339 0-.222 1.78-1.856 2.872-2.634 1.482-1.057 1.687-1.363 1.35-2.014-.176-.34-1.676-1.33-2.494-1.645-.88-.34-1.651-.573-1.893-.573-.416-.001-.98.505-1.262 1.135-.274.61-.78 2.492-.888 3.299-.145 1.086.01 2.275.34 2.624.473.501 1.044.553 1.605.147m5.336-5.737c-.18-.066-.64-.359-1.023-.65-.85-.646-1.333-.897-2.03-1.055q-1.411-.32-1.738-.765c-.227-.307-.217-.409.174-1.712.102-.343.267-1.004.365-1.468.222-1.051.445-1.674.991-2.775.5-1.006.909-1.638 1.142-1.763.39-.21 1.706-.011 2.605.392.908.407 3.296 2.12 4.537 3.254.851.778 1.309 1.562 1.309 2.242 0 .371-.261 1.12-.481 1.381-.116.137-.535.422-.932.633a8 8 0 0 0-1.352.963c-.463.424-.875.695-1.546 1.017-.99.473-1.397.535-2.021.306m1.962-.549c.724-.352 1.154-.626 1.434-.911.476-.485.808-.72 1.474-1.047.63-.309.975-.703 1.155-1.322.24-.829.021-1.377-.91-2.272-.893-.858-2.589-2.189-4.032-3.164-.684-.462-2.785-.988-3.07-.77-.337.26-1.297 1.983-1.624 2.917-.103.293-.328 1.134-.5 1.868s-.374 1.483-.45 1.665a2 2 0 0 0-.139.644c0 .263.053.348.336.535.185.122.615.287.956.366 1.084.25 1.795.608 2.688 1.35.424.352 1.038.624 1.437.637.117.004.677-.22 1.245-.496m5.388-4.92c-.243-.098-.706-.634-.933-1.079-1.149-2.251-2.898-3.54-6.088-4.483-.341-.1-.635-.261-.823-.448-.39-.39-.394-.868-.02-1.808.334-.833 2.162-3.603 2.818-4.267.953-.964 1.935-1.163 3.271-.66.392.146.952.357 1.246.468 1.62.612 3.768 2.132 4.85 3.43.651.783 1.155 2.036 1.155 2.873 0 .665-.27 1.208-1.13 2.28-.353.44-.834 1.043-1.068 1.342-.442.563-2.318 2.212-2.678 2.356-.244.096-.354.096-.6-.004zm.52-.195c.234-.125 2.168-1.752 2.432-2.045a12 12 0 0 0 .616-.833c.236-.342.622-.841.858-1.109.684-.774.818-1.128.756-1.992-.108-1.491-.685-2.416-2.375-3.806-1.03-.847-3.114-2.123-3.469-2.123-.046 0-.545-.18-1.108-.4s-1.155-.4-1.315-.4c-.412 0-1.285.443-1.775.9-.229.214-.641.75-.917 1.19a41 41 0 0 1-1.04 1.565c-.714 1.013-1.052 1.81-1.052 2.486 0 .47.025.536.254.7.14.1.45.227.69.284.587.139 1.39.457 2.608 1.037.949.45 1.079.545 1.967 1.431.762.76 1.036 1.106 1.38 1.743.405.752.995 1.475 1.203 1.475a.9.9 0 0 0 .287-.103m6.424-8.126a5 5 0 0 0-.327-.082c-.345-.076-.786-.48-.974-.894-.359-.79-.128-1.598.696-2.432.68-.688 2.644-2.345 3.318-2.798.123-.083.383-.263.579-.4.823-.58 2.2-1.286 3.336-1.71.416-.156.94-.359 1.164-.45 1.71-.702 2.734-.884 5.31-.95 2.386-.06 2.838.011 3.858.605.645.375 1.362 1.103 1.568 1.593.216.513.108 1.383-.25 2.013-.409.717-1.21 1.499-1.838 1.793l-.515.242h-2.18c-1.199 0-2.803-.036-3.566-.08-2.123-.123-3.08.079-4.843 1.018-.87.464-1.327.769-2.133 1.423-.839.68-1.323.943-1.952 1.057-.505.092-1.062.115-1.25.052m1.403-.263c.624-.15.921-.32 1.77-1.011 1.418-1.157 3.417-2.148 4.818-2.389.845-.145 1.36-.138 4.375.059 1.97.128 3.491.06 3.955-.176 1.087-.554 2.228-2.106 2.228-3.028 0-1.173-1.607-2.52-3.287-2.754-.351-.05-1.395-.05-2.629-.001-2.234.088-2.56.15-4.448.842-.49.18-1.17.429-1.513.553-1.65.601-3.91 1.975-5.39 3.278-.265.233-.74.647-1.058.921-1.064.919-1.412 1.372-1.551 2.019-.067.309.147 1.049.38 1.317.406.467 1.334.613 2.35.37m-4.847-2.716c-.532-.095-1.197-.425-1.414-.702-.262-.333-.23-1.259.072-2.075.24-.65.978-2.037 1.93-3.63 1.016-1.703 1.628-3.093 2.349-5.338.687-2.14 1.062-3.993 1.165-5.757.073-1.243.122-1.34.854-1.684.383-.18.583-.209 1.432-.21.829 0 1.12.04 1.823.252.461.14 1.044.358 1.297.487 1.004.512 1.737 1.95 1.598 3.134-.108.92-1.258 3.924-1.896 4.955-.113.182-.206.354-.206.382 0 .08-1.103 1.724-1.528 2.277-.211.275-.725.91-1.14 1.41-1.537 1.85-2.316 2.916-3.381 4.629-.552.886-.981 1.422-1.316 1.642-.38.25-1.02.338-1.64.228m1.227-.182c.404-.154.772-.523 1.26-1.263.258-.39.468-.725.468-.746 0-.18 2.327-3.327 3.38-4.572 1.614-1.907 2.72-3.613 3.429-5.294 1.007-2.384 1.138-2.82 1.141-3.78.002-.756-.024-.897-.248-1.331-.545-1.056-1.029-1.417-2.453-1.833-.693-.202-1.022-.247-1.824-.25-.896-.001-1.019.019-1.452.243-.596.307-.772.66-.692 1.388.072.654-.369 3.313-.797 4.807-.078.27-.177.63-.221.8-.044.172-.226.712-.405 1.202l-.452 1.245c-.257.708-1.19 2.518-1.95 3.781-1.925 3.197-2.32 4.69-1.392 5.263.565.35 1.716.526 2.208.34m-6.528-2.245c-.33-.106-.986-.788-1.207-1.255-.195-.41-.184-1.182.029-2.068.095-.397.217-1.158.27-1.69a79 79 0 0 1 .226-1.948c.272-2.068.06-4.034-.562-5.232-.43-.829-1.374-1.9-2.018-2.29-.724-.439-.806-.583-.668-1.172.258-1.093.694-1.605 1.86-2.186.626-.311.718-.331 1.653-.359.89-.026 1.045-.007 1.537.193.68.276 1.537.927 1.936 1.47.341.466.6 1.186.755 2.103.149.878.06 7.31-.123 8.986l-.234 2.159c-.14 1.308-.365 1.971-.8 2.365-.416.375-1.018.694-1.687.892-.543.162-.56.162-.967.032m.88-.143c.584-.202 1.476-.674 1.748-.925.35-.322.543-1.044.728-2.71.295-2.657.379-4.297.383-7.498.004-3.277-.045-3.757-.48-4.682-.246-.522-1.316-1.506-1.987-1.825-.49-.233-.618-.254-1.538-.254-1.112 0-1.292.05-2.257.632-.7.422-1.007.828-1.2 1.587-.173.684-.09.927.397 1.145.438.195.745.462 1.357 1.174.67.78.825 1.021 1.054 1.64.453 1.223.595 3.038.384 4.898-.06.538-.152 1.38-.202 1.868-.05.49-.151 1.17-.224 1.513-.218 1.022-.26 1.909-.106 2.275.19.453.632.925 1.07 1.142.206.102.38.186.384.186s.224-.075.489-.166" style="fill:#33362c;stroke-width:.088965" transform="matrix(.53481 0 0 .60113 15.654 -43.78)"/><text xml:space="preserve" x="21.267" y="39.548" style="font-size:37.7594px;fill:#1a1a1a;stroke-width:3.14661"><tspan x="21.267" y="39.548" style="stroke-width:3.14661">2</tspan></text></svg>