<svg xmlns="http://www.w3.org/2000/svg" xmlns:xlink="http://www.w3.org/1999/xlink" width="1024" zoomAndPan="magnify" viewBox="0 0 768 767.999994" height="1024" preserveAspectRatio="xMidYMid meet" version="1.0"><defs><filter x="0%" y="0%" width="100%" height="100%" id="d3ca37924e"><feColorMatrix values="0 0 0 0 1 0 0 0 0 1 0 0 0 0 1 0 0 0 1 0" color-interpolation-filters="sRGB"/></filter><mask id="2c9aeac8b7"><g filter="url(#d3ca37924e)"><rect x="-76.8" width="921.6" fill="#000000" y="-76.799999" height="921.599993" fill-opacity="0.65"/></g></mask><clipPath id="f5596b21f1"><path d="M 274 0.964844 L 286 0.964844 L 286 218 L 274 218 Z M 274 0.964844 " clip-rule="nonzero"/></clipPath><clipPath id="ca100ee3f7"><path d="M 1.734375 271 L 220 271 L 220 283 L 1.734375 283 Z M 1.734375 271 " clip-rule="nonzero"/></clipPath><clipPath id="fb33558ded"><path d="M 274 337 L 286 337 L 286 551.464844 L 274 551.464844 Z M 274 337 " clip-rule="nonzero"/></clipPath><clipPath id="677872b736"><path d="M 339 271 L 560.484375 271 L 560.484375 283 L 339 283 Z M 339 271 " clip-rule="nonzero"/></clipPath><clipPath id="ace636ba28"><rect x="0" width="561" y="0" height="553"/></clipPath></defs><g mask="url(#2c9aeac8b7)"><g transform="matrix(1, 0, 0, 1, 9, 17)"><g clip-path="url(#ace636ba28)"><path fill="#2b98be" d="M 311.257812 277.238281 C 311.257812 294.699219 297.105469 308.851562 279.648438 308.851562 C 262.1875 308.851562 248.035156 294.699219 248.035156 277.238281 C 248.035156 259.78125 262.1875 245.628906 279.648438 245.628906 C 297.105469 245.628906 311.257812 259.78125 311.257812 277.238281 " fill-opacity="1" fill-rule="nonzero"/><path fill="#1a323d" d="M 279.648438 251.003906 C 265.179688 251.003906 253.410156 262.773438 253.410156 277.238281 C 253.410156 291.707031 265.179688 303.476562 279.648438 303.476562 C 294.113281 303.476562 305.882812 291.707031 305.882812 277.238281 C 305.882812 262.773438 294.113281 251.003906 279.648438 251.003906 Z M 279.648438 314.234375 C 259.25 314.234375 242.65625 297.636719 242.65625 277.238281 C 242.65625 256.84375 259.25 240.246094 279.648438 240.246094 C 300.042969 240.246094 316.640625 256.84375 316.640625 277.238281 C 316.640625 297.636719 300.042969 314.234375 279.648438 314.234375 " fill-opacity="1" fill-rule="nonzero"/><path fill="#f7ab15" d="M 253.429688 438.109375 L 253.429688 383.242188 C 214.242188 373.546875 183.339844 342.644531 173.644531 303.457031 L 118.777344 303.457031 C 129.96875 372.371094 184.519531 426.917969 253.429688 438.109375 " fill-opacity="1" fill-rule="nonzero"/><path fill="#f7ab15" d="M 440.515625 303.457031 L 385.648438 303.457031 C 375.953125 342.644531 345.050781 373.546875 305.863281 383.242188 L 305.863281 438.109375 C 374.777344 426.917969 429.324219 372.371094 440.515625 303.457031 " fill-opacity="1" fill-rule="nonzero"/><path fill="#2b98be" d="M 488.5625 303.457031 C 476.683594 398.628906 401.039062 474.277344 305.863281 486.152344 L 305.863281 540.265625 C 430.726562 527.914062 530.320312 428.320312 542.675781 303.457031 L 488.5625 303.457031 " fill-opacity="1" fill-rule="nonzero"/><path fill="#2b98be" d="M 305.863281 68.328125 C 401.039062 80.203125 476.683594 155.851562 488.5625 251.023438 L 542.675781 251.023438 C 530.320312 126.160156 430.726562 26.566406 305.863281 14.214844 L 305.863281 68.328125 " fill-opacity="1" fill-rule="nonzero"/><path fill="#f7ab15" d="M 118.777344 251.023438 L 173.644531 251.023438 C 183.339844 211.835938 214.242188 180.933594 253.429688 171.238281 L 253.429688 116.371094 C 184.519531 127.5625 129.96875 182.109375 118.777344 251.023438 " fill-opacity="1" fill-rule="nonzero"/><path fill="#2b98be" d="M 253.429688 486.152344 C 158.253906 474.277344 82.609375 398.628906 70.734375 303.457031 L 16.621094 303.457031 C 28.96875 428.320312 128.566406 527.914062 253.429688 540.265625 L 253.429688 486.152344 " fill-opacity="1" fill-rule="nonzero"/><path fill="#2b98be" d="M 70.734375 251.023438 C 82.609375 155.851562 158.253906 80.203125 253.429688 68.328125 L 253.429688 14.214844 C 128.566406 26.566406 28.96875 126.160156 16.621094 251.023438 L 70.734375 251.023438 " fill-opacity="1" fill-rule="nonzero"/><path fill="#f7ab15" d="M 305.863281 116.371094 L 305.863281 171.238281 C 345.050781 180.933594 375.953125 211.835938 385.648438 251.023438 L 440.515625 251.023438 C 429.324219 182.109375 374.777344 127.5625 305.863281 116.371094 " fill-opacity="1" fill-rule="nonzero"/><path fill="#1a323d" d="M 125.230469 308.839844 C 137.832031 370.761719 186.125 419.050781 248.050781 431.65625 L 248.050781 387.371094 C 229.464844 382.027344 212.464844 372.007812 198.671875 358.210938 C 184.882812 344.417969 174.855469 327.425781 169.515625 308.839844 Z M 253.429688 443.484375 C 253.140625 443.484375 252.851562 443.464844 252.566406 443.414062 C 217.632812 437.742188 185.851562 421.429688 160.65625 396.230469 C 135.457031 371.039062 119.144531 339.257812 113.472656 304.320312 C 113.21875 302.765625 113.660156 301.175781 114.683594 299.972656 C 115.703125 298.773438 117.203125 298.082031 118.777344 298.082031 L 173.644531 298.082031 C 176.117188 298.082031 178.273438 299.765625 178.867188 302.167969 C 188.148438 339.675781 217.210938 368.742188 254.71875 378.023438 C 257.121094 378.613281 258.804688 380.769531 258.804688 383.242188 L 258.804688 438.109375 C 258.804688 439.6875 258.113281 441.183594 256.914062 442.207031 C 255.933594 443.039062 254.691406 443.484375 253.429688 443.484375 " fill-opacity="1" fill-rule="nonzero"/><path fill="#1a323d" d="M 311.246094 387.371094 L 311.246094 431.65625 C 373.167969 419.050781 421.457031 370.761719 434.0625 308.839844 L 389.78125 308.839844 C 384.433594 327.425781 374.414062 344.417969 360.617188 358.210938 C 346.824219 372.007812 329.832031 382.027344 311.246094 387.371094 Z M 305.863281 443.484375 C 304.601562 443.484375 303.359375 443.039062 302.382812 442.207031 C 301.179688 441.183594 300.488281 439.6875 300.488281 438.109375 L 300.488281 383.242188 C 300.488281 380.769531 302.171875 378.613281 304.574219 378.023438 C 342.082031 368.742188 371.148438 339.675781 380.429688 302.167969 C 381.019531 299.765625 383.179688 298.082031 385.648438 298.082031 L 440.515625 298.082031 C 442.09375 298.082031 443.589844 298.773438 444.613281 299.972656 C 445.632812 301.175781 446.078125 302.765625 445.820312 304.320312 C 440.148438 339.257812 423.835938 371.039062 398.636719 396.230469 C 373.445312 421.429688 341.664062 437.742188 306.726562 443.414062 C 306.445312 443.464844 306.152344 443.484375 305.863281 443.484375 " fill-opacity="1" fill-rule="nonzero"/><path fill="#1a323d" d="M 311.246094 490.851562 L 311.246094 534.261719 C 428.820312 519.890625 522.296875 426.414062 536.667969 308.839844 L 493.257812 308.839844 C 489.976562 331.128906 483.242188 352.648438 473.207031 372.878906 C 462.746094 393.964844 448.964844 413.136719 432.253906 429.847656 C 415.542969 446.558594 396.375 460.339844 375.289062 470.800781 C 355.054688 480.835938 333.535156 487.570312 311.246094 490.851562 Z M 305.863281 545.652344 C 304.539062 545.652344 303.25 545.152344 302.257812 544.253906 C 301.132812 543.234375 300.488281 541.789062 300.488281 540.265625 L 300.488281 486.152344 C 300.488281 483.4375 302.507812 481.148438 305.199219 480.816406 C 398.390625 469.191406 471.597656 395.984375 483.222656 302.792969 C 483.5625 300.101562 485.84375 298.082031 488.5625 298.082031 L 542.675781 298.082031 C 544.195312 298.082031 545.640625 298.722656 546.660156 299.847656 C 547.679688 300.972656 548.175781 302.476562 548.027344 303.984375 C 535.425781 431.394531 433.800781 533.015625 306.390625 545.617188 C 306.21875 545.636719 306.039062 545.652344 305.863281 545.652344 " fill-opacity="1" fill-rule="nonzero"/><path fill="#1a323d" d="M 493.257812 245.640625 L 536.667969 245.640625 C 522.296875 128.066406 428.820312 34.582031 311.246094 20.21875 L 311.246094 63.628906 C 333.535156 66.910156 355.054688 73.644531 375.289062 83.679688 C 396.375 94.140625 415.542969 107.921875 432.253906 124.632812 C 448.964844 141.34375 462.746094 160.511719 473.207031 181.601562 C 483.242188 201.832031 489.976562 223.351562 493.257812 245.640625 Z M 542.675781 256.398438 L 488.5625 256.398438 C 485.84375 256.398438 483.5625 254.378906 483.222656 251.6875 C 471.597656 158.496094 398.390625 85.289062 305.199219 73.664062 C 302.507812 73.324219 300.488281 71.035156 300.488281 68.328125 L 300.488281 14.214844 C 300.488281 12.691406 301.132812 11.246094 302.257812 10.226562 C 303.382812 9.207031 304.882812 8.710938 306.390625 8.863281 C 433.800781 21.464844 535.425781 123.085938 548.027344 250.488281 C 548.175781 252.003906 547.679688 253.507812 546.660156 254.632812 C 545.640625 255.757812 544.195312 256.398438 542.675781 256.398438 " fill-opacity="1" fill-rule="nonzero"/><path fill="#1a323d" d="M 125.230469 245.640625 L 169.515625 245.640625 C 174.855469 227.054688 184.882812 210.0625 198.675781 196.269531 C 212.464844 182.472656 229.464844 172.453125 248.050781 167.109375 L 248.050781 122.824219 C 186.125 135.429688 137.832031 183.71875 125.230469 245.640625 Z M 173.644531 256.398438 L 118.777344 256.398438 C 117.203125 256.398438 115.703125 255.707031 114.683594 254.507812 C 113.660156 253.304688 113.21875 251.714844 113.472656 250.160156 C 119.144531 215.222656 135.457031 183.441406 160.65625 158.25 C 185.851562 133.050781 217.632812 116.738281 252.566406 111.066406 C 254.121094 110.808594 255.710938 111.253906 256.914062 112.273438 C 258.113281 113.296875 258.804688 114.792969 258.804688 116.371094 L 258.804688 171.238281 C 258.804688 173.710938 257.121094 175.867188 254.71875 176.457031 C 217.210938 185.738281 188.148438 214.804688 178.867188 252.3125 C 178.273438 254.714844 176.117188 256.398438 173.644531 256.398438 " fill-opacity="1" fill-rule="nonzero"/><path fill="#1a323d" d="M 22.625 308.839844 C 36.992188 426.414062 130.476562 519.890625 248.050781 534.261719 L 248.050781 490.851562 C 225.757812 487.570312 204.234375 480.835938 184.007812 470.800781 C 162.921875 460.339844 143.753906 446.558594 127.039062 429.847656 C 110.328125 413.136719 96.546875 393.964844 86.085938 372.878906 C 76.054688 352.648438 69.320312 331.128906 66.039062 308.839844 Z M 253.429688 545.652344 C 253.253906 545.652344 253.078125 545.636719 252.902344 545.617188 C 125.492188 533.015625 23.871094 431.394531 11.265625 303.984375 C 11.117188 302.476562 11.613281 300.972656 12.632812 299.847656 C 13.652344 298.722656 15.101562 298.082031 16.621094 298.082031 L 70.734375 298.082031 C 73.445312 298.082031 75.734375 300.101562 76.070312 302.792969 C 87.695312 395.984375 160.902344 469.191406 254.097656 480.816406 C 256.789062 481.148438 258.804688 483.4375 258.804688 486.152344 L 258.804688 540.265625 C 258.804688 541.789062 258.164062 543.234375 257.039062 544.253906 C 256.046875 545.152344 254.757812 545.652344 253.429688 545.652344 " fill-opacity="1" fill-rule="nonzero"/><path fill="#1a323d" d="M 22.625 245.640625 L 66.039062 245.640625 C 69.320312 223.351562 76.054688 201.832031 86.085938 181.601562 C 96.546875 160.511719 110.328125 141.34375 127.039062 124.632812 C 143.753906 107.921875 162.921875 94.140625 184.007812 83.679688 C 204.234375 73.644531 225.757812 66.910156 248.050781 63.628906 L 248.050781 20.21875 C 130.476562 34.582031 36.992188 128.066406 22.625 245.640625 Z M 70.734375 256.398438 L 16.621094 256.398438 C 15.101562 256.398438 13.652344 255.757812 12.632812 254.632812 C 11.613281 253.507812 11.117188 252.003906 11.265625 250.488281 C 23.871094 123.085938 125.492188 21.464844 252.902344 8.863281 C 254.410156 8.710938 255.914062 9.207031 257.039062 10.226562 C 258.164062 11.246094 258.804688 12.691406 258.804688 14.214844 L 258.804688 68.328125 C 258.804688 71.035156 256.789062 73.324219 254.097656 73.664062 C 160.902344 85.289062 87.695312 158.496094 76.070312 251.6875 C 75.734375 254.378906 73.445312 256.398438 70.734375 256.398438 " fill-opacity="1" fill-rule="nonzero"/><path fill="#1a323d" d="M 389.78125 245.640625 L 434.0625 245.640625 C 421.457031 183.71875 373.167969 135.429688 311.246094 122.824219 L 311.246094 167.109375 C 329.832031 172.453125 346.824219 182.472656 360.617188 196.269531 C 374.414062 210.0625 384.433594 227.054688 389.78125 245.640625 Z M 440.515625 256.398438 L 385.648438 256.398438 C 383.179688 256.398438 381.019531 254.714844 380.429688 252.3125 C 371.148438 214.804688 342.082031 185.738281 304.574219 176.457031 C 302.171875 175.867188 300.488281 173.710938 300.488281 171.238281 L 300.488281 116.371094 C 300.488281 114.792969 301.179688 113.296875 302.382812 112.273438 C 303.582031 111.253906 305.171875 110.808594 306.726562 111.066406 C 341.664062 116.738281 373.445312 133.050781 398.636719 158.25 C 423.835938 183.441406 440.148438 215.222656 445.820312 250.160156 C 446.078125 251.714844 445.632812 253.304688 444.613281 254.507812 C 443.589844 255.707031 442.09375 256.398438 440.515625 256.398438 " fill-opacity="1" fill-rule="nonzero"/><g clip-path="url(#f5596b21f1)"><path fill="#1a323d" d="M 279.648438 217.398438 C 276.679688 217.398438 274.269531 214.992188 274.269531 212.019531 L 274.269531 -29.738281 C 274.269531 -32.714844 276.679688 -35.121094 279.648438 -35.121094 C 282.613281 -35.121094 285.023438 -32.714844 285.023438 -29.738281 L 285.023438 212.019531 C 285.023438 214.992188 282.613281 217.398438 279.648438 217.398438 " fill-opacity="1" fill-rule="nonzero"/></g><g clip-path="url(#ca100ee3f7)"><path fill="#1a323d" d="M 214.425781 282.617188 L -27.335938 282.617188 C -30.304688 282.617188 -32.714844 280.207031 -32.714844 277.238281 C -32.714844 274.273438 -30.304688 271.863281 -27.335938 271.863281 L 214.425781 271.863281 C 217.398438 271.863281 219.804688 274.273438 219.804688 277.238281 C 219.804688 280.207031 217.398438 282.617188 214.425781 282.617188 " fill-opacity="1" fill-rule="nonzero"/></g><g clip-path="url(#fb33558ded)"><path fill="#1a323d" d="M 279.648438 589.601562 C 276.679688 589.601562 274.269531 587.195312 274.269531 584.21875 L 274.269531 342.460938 C 274.269531 339.488281 276.679688 337.082031 279.648438 337.082031 C 282.613281 337.082031 285.023438 339.488281 285.023438 342.460938 L 285.023438 584.21875 C 285.023438 587.195312 282.613281 589.601562 279.648438 589.601562 " fill-opacity="1" fill-rule="nonzero"/></g><g clip-path="url(#677872b736)"><path fill="#1a323d" d="M 586.628906 282.617188 L 344.867188 282.617188 C 341.898438 282.617188 339.488281 280.207031 339.488281 277.238281 C 339.488281 274.273438 341.898438 271.863281 344.867188 271.863281 L 586.628906 271.863281 C 589.601562 271.863281 592.007812 274.273438 592.007812 277.238281 C 592.007812 280.207031 589.601562 282.617188 586.628906 282.617188 " fill-opacity="1" fill-rule="nonzero"/></g></g></g></g><path fill="#f390b5" d="M 540.386719 491.382812 C 540.386719 491.382812 411.03125 440.171875 324.101562 528.515625 C 324.101562 528.515625 295.460938 559.453125 297.554688 592.53125 C 297.554688 592.53125 264.390625 580.59375 259.363281 609.839844 C 254.339844 639.085938 295.472656 631.25 295.472656 631.25 C 295.472656 631.25 299.894531 695.019531 352.625 707.164062 C 405.351562 719.308594 427.558594 707.214844 440.144531 714.484375 C 440.144531 714.484375 390.324219 732.113281 402.148438 749.699219 C 413.96875 767.285156 456.421875 758.367188 471.574219 739.296875 C 471.574219 739.296875 518.625 767.574219 528.117188 754.472656 C 537.613281 741.367188 507.5625 712.339844 507.5625 712.339844 C 507.5625 712.339844 595.980469 648.425781 613.679688 613.171875 C 631.378906 577.90625 647.296875 521.195312 647.296875 521.195312 Z M 540.386719 491.382812 " fill-opacity="1" fill-rule="nonzero"/><path fill="#f390b5" d="M 632.542969 418.429688 C 632.542969 418.429688 706.476562 397.195312 746.269531 475.507812 C 746.269531 475.507812 749.589844 488.753906 748.34375 504.269531 C 747.09375 519.785156 768.019531 525.691406 757.308594 549.492188 C 746.601562 573.296875 721.4375 598.007812 668.605469 601.53125 C 615.773438 605.066406 591.175781 595.613281 565.332031 554.214844 C 565.332031 554.214844 557.867188 512.558594 573.3125 471.394531 C 573.3125 471.394531 525.757812 451.582031 491.046875 402.007812 C 456.339844 352.433594 439.101562 315.601562 467.019531 281.550781 C 494.933594 247.503906 524.085938 280.253906 524.085938 280.253906 C 524.085938 280.253906 521.179688 250.820312 561.753906 250.304688 C 602.332031 249.789062 628.78125 327.199219 630.546875 362.722656 C 632.308594 398.253906 632.542969 418.429688 632.542969 418.429688 Z M 632.542969 418.429688 " fill-opacity="1" fill-rule="nonzero"/><path fill="#fff1d7" d="M 580.796875 432.933594 C 580.796875 432.933594 536.550781 285.5 486.152344 300.878906 C 435.753906 316.261719 546.488281 423.644531 580.796875 432.933594 Z M 580.796875 432.933594 " fill-opacity="1" fill-rule="nonzero"/><path fill="#fff1d7" d="M 756.257812 526.597656 C 756.257812 526.597656 750.011719 523.847656 738.332031 529.484375 C 726.652344 535.132812 748.558594 547.441406 751.671875 543.214844 C 754.785156 538.988281 759.835938 532.484375 756.257812 526.597656 Z M 756.257812 526.597656 " fill-opacity="1" fill-rule="nonzero"/><path fill="#1f1f1f" d="M 695.558594 507.566406 C 695.617188 508.355469 695.597656 509.144531 695.5 509.933594 C 695.402344 510.71875 695.234375 511.488281 694.988281 512.242188 C 694.742188 512.992188 694.425781 513.714844 694.042969 514.402344 C 693.65625 515.09375 693.207031 515.738281 692.695312 516.335938 C 692.1875 516.933594 691.621094 517.476562 691.007812 517.964844 C 690.390625 518.449219 689.734375 518.871094 689.035156 519.226562 C 688.335938 519.578125 687.613281 519.859375 686.859375 520.070312 C 686.105469 520.28125 685.339844 520.414062 684.558594 520.46875 C 683.78125 520.523438 683.003906 520.503906 682.230469 520.402344 C 681.453125 520.304688 680.695312 520.128906 679.953125 519.878906 C 679.210938 519.625 678.5 519.304688 677.820312 518.910156 C 677.144531 518.519531 676.507812 518.0625 675.917969 517.542969 C 675.324219 517.023438 674.789062 516.449219 674.308594 515.820312 C 673.828125 515.195312 673.414062 514.527344 673.0625 513.816406 C 672.710938 513.109375 672.433594 512.371094 672.226562 511.605469 C 672.019531 510.839844 671.886719 510.0625 671.828125 509.269531 C 671.773438 508.480469 671.792969 507.691406 671.886719 506.902344 C 671.984375 506.117188 672.15625 505.347656 672.398438 504.59375 C 672.644531 503.84375 672.960938 503.121094 673.347656 502.433594 C 673.730469 501.742188 674.179688 501.097656 674.691406 500.5 C 675.203125 499.902344 675.765625 499.359375 676.382812 498.871094 C 676.996094 498.386719 677.65625 497.964844 678.351562 497.609375 C 679.050781 497.257812 679.777344 496.972656 680.53125 496.765625 C 681.28125 496.554688 682.046875 496.421875 682.828125 496.367188 C 683.605469 496.3125 684.382812 496.332031 685.160156 496.433594 C 685.933594 496.53125 686.691406 496.707031 687.433594 496.957031 C 688.175781 497.210938 688.886719 497.53125 689.566406 497.925781 C 690.246094 498.316406 690.878906 498.773438 691.472656 499.292969 C 692.0625 499.8125 692.597656 500.386719 693.078125 501.011719 C 693.558594 501.640625 693.972656 502.308594 694.324219 503.019531 C 694.675781 503.726562 694.953125 504.464844 695.164062 505.230469 C 695.371094 505.996094 695.503906 506.773438 695.558594 507.566406 Z M 695.558594 507.566406 " fill-opacity="1" fill-rule="nonzero"/><path fill="#1f1f1f" d="M 601.546875 431.511719 L 603.96875 431.191406 C 590.773438 327.589844 525.449219 279.707031 524.789062 279.230469 L 523.386719 281.261719 C 524.027344 281.738281 588.496094 329.042969 601.546875 431.511719 Z M 601.546875 431.511719 " fill-opacity="1" fill-rule="nonzero"/><path fill="#1f1f1f" d="M 566.136719 499.15625 C 566.292969 498.15625 566.40625 497.589844 566.414062 497.539062 L 568.847656 498.042969 C 568.746094 498.519531 559.1875 547.070312 596.382812 576.914062 L 594.824219 578.851562 C 560.34375 551.183594 564.796875 508.011719 566.136719 499.15625 Z M 566.136719 499.15625 " fill-opacity="1" fill-rule="nonzero"/><path fill="#070707" d="M 470.296875 740.441406 C 470.101562 740.222656 450.484375 718.503906 439.773438 716.152344 L 440.503906 712.804688 C 452.277344 715.390625 472.007812 737.222656 472.832031 738.152344 Z M 470.296875 740.441406 " fill-opacity="1" fill-rule="nonzero"/><path fill="#070707" d="M 506.292969 713.503906 C 506.015625 713.207031 478.625 683.734375 449.246094 676.527344 L 447.257812 676.042969 L 448.09375 674.167969 C 448.152344 674.023438 454.648438 659.230469 453.792969 640.789062 C 452.648438 616.222656 439.660156 597.089844 415.1875 583.925781 L 416.804688 580.902344 C 448.761719 598.089844 456.421875 622.933594 457.226562 640.757812 C 457.925781 656.300781 453.75 669.054688 451.988281 673.691406 C 481.605469 681.867188 507.707031 709.96875 508.832031 711.183594 Z M 506.292969 713.503906 " fill-opacity="1" fill-rule="nonzero"/><path fill="#070707" d="M 464.070312 681.445312 L 463.082031 678.167969 C 467.183594 676.929688 477.335938 660.519531 482.769531 650.457031 L 485.78125 652.085938 C 483.316406 656.632812 470.710938 679.433594 464.070312 681.445312 Z M 464.070312 681.445312 " fill-opacity="1" fill-rule="nonzero"/></svg>